<svg width="1524" height="762" viewBox="0 0 1524 762" fill="none" xmlns="http://www.w3.org/2000/svg">
<path d="M162.53 27.9297C134.588 44.1112 111.371 67.328 95.1895 95.2697C123.131 79.0882 146.348 55.8714 162.53 27.9297Z" fill="#838383"/>
<path d="M95.1895 95.2285C126.389 103.539 159.22 103.539 190.419 95.2285C159.221 86.9134 126.388 86.9134 95.1895 95.2285Z" fill="#838383"/>
<path d="M162.53 162.557C146.347 134.618 123.13 111.405 95.1895 95.2266C111.372 123.165 134.589 146.379 162.53 162.557Z" fill="#838383"/>
<path d="M95.1895 190.457C103.505 159.258 103.505 126.425 95.1895 95.2266C86.8743 126.425 86.8743 159.258 95.1895 190.457Z" fill="#838383"/>
<path d="M27.8496 162.557C55.7906 146.379 79.0073 123.165 95.1895 95.2266C67.2505 111.407 44.0343 134.62 27.8496 162.557Z" fill="#838383"/>
<path d="M95.1895 0C86.8743 31.1988 86.8743 64.0312 95.1895 95.23C103.505 64.0312 103.505 31.1988 95.1895 0Z" fill="#838383"/>
<path d="M27.8496 27.9297C44.0352 55.8682 67.2509 79.0841 95.1895 95.2697C79.008 67.328 55.7913 44.1112 27.8496 27.9297Z" fill="#838383"/>
<path d="M0 95.2285C31.1995 103.539 64.0305 103.539 95.23 95.2285C64.0312 86.9134 31.1988 86.9134 0 95.2285Z" fill="#838383"/>
<path d="M352.949 27.9297C325.008 44.1112 301.791 67.328 285.609 95.2697C313.551 79.0882 336.768 55.8714 352.949 27.9297Z" fill="#838383"/>
<path d="M285.609 95.2285C316.809 103.539 349.64 103.539 380.839 95.2285C349.641 86.9134 316.808 86.9134 285.609 95.2285Z" fill="#838383"/>
<path d="M352.949 162.557C336.767 134.618 313.55 111.405 285.609 95.2266C301.792 123.165 325.008 146.379 352.949 162.557Z" fill="#838383"/>
<path d="M285.609 190.457C293.925 159.258 293.925 126.425 285.609 95.2266C277.294 126.425 277.294 159.258 285.609 190.457Z" fill="#838383"/>
<path d="M218.27 162.557C246.211 146.379 269.427 123.165 285.609 95.2266C257.67 111.407 234.454 134.62 218.27 162.557Z" fill="#838383"/>
<path d="M285.609 0C277.294 31.1988 277.294 64.0312 285.609 95.23C293.925 64.0312 293.925 31.1988 285.609 0Z" fill="#838383"/>
<path d="M218.27 27.9297C234.455 55.8682 257.671 79.0841 285.609 95.2697C269.428 67.328 246.211 44.1112 218.27 27.9297Z" fill="#838383"/>
<path d="M190.42 95.2285C221.619 103.539 254.45 103.539 285.65 95.2285C254.451 86.9134 221.619 86.9134 190.42 95.2285Z" fill="#838383"/>
<path d="M543.369 27.9297C515.428 44.1112 492.211 67.328 476.029 95.2697C503.971 79.0882 527.188 55.8714 543.369 27.9297Z" fill="#838383"/>
<path d="M476.029 95.2285C507.229 103.539 540.06 103.539 571.259 95.2285C540.06 86.9134 507.228 86.9134 476.029 95.2285Z" fill="#838383"/>
<path d="M543.369 162.557C527.187 134.618 503.97 111.405 476.029 95.2266C492.211 123.165 515.428 146.379 543.369 162.557Z" fill="#838383"/>
<path d="M476.029 190.457C484.344 159.258 484.344 126.425 476.029 95.2266C467.714 126.425 467.714 159.258 476.029 190.457Z" fill="#838383"/>
<path d="M408.689 162.557C436.63 146.379 459.847 123.165 476.029 95.2266C448.09 111.407 424.874 134.62 408.689 162.557Z" fill="#838383"/>
<path d="M476.029 0C467.714 31.1988 467.714 64.0312 476.029 95.23C484.344 64.0312 484.344 31.1988 476.029 0Z" fill="#838383"/>
<path d="M408.689 27.9297C424.875 55.8682 448.091 79.0841 476.029 95.2697C459.848 67.328 436.631 44.1112 408.689 27.9297Z" fill="#838383"/>
<path d="M380.84 95.2285C412.039 103.539 444.87 103.539 476.07 95.2285C444.871 86.9134 412.039 86.9134 380.84 95.2285Z" fill="#838383"/>
<path d="M733.789 27.9297C705.848 44.1112 682.631 67.328 666.449 95.2697C694.391 79.0882 717.608 55.8714 733.789 27.9297Z" fill="#838383"/>
<path d="M666.449 95.2285C697.649 103.539 730.48 103.539 761.679 95.2285C730.48 86.9134 697.648 86.9134 666.449 95.2285Z" fill="#838383"/>
<path d="M733.789 162.557C717.607 134.618 694.39 111.405 666.449 95.2266C682.631 123.165 705.848 146.379 733.789 162.557Z" fill="#838383"/>
<path d="M666.449 190.457C674.764 159.258 674.764 126.425 666.449 95.2266C658.134 126.425 658.134 159.258 666.449 190.457Z" fill="#838383"/>
<path d="M599.109 162.557C627.05 146.379 650.267 123.165 666.449 95.2266C638.51 111.407 615.294 134.62 599.109 162.557Z" fill="#838383"/>
<path d="M666.449 0C658.134 31.1988 658.134 64.0312 666.449 95.23C674.764 64.0312 674.764 31.1988 666.449 0Z" fill="#838383"/>
<path d="M599.109 27.9297C615.295 55.8682 638.511 79.0841 666.449 95.2697C650.268 67.328 627.051 44.1112 599.109 27.9297Z" fill="#838383"/>
<path d="M571.26 95.2285C602.459 103.539 635.29 103.539 666.49 95.2285C635.291 86.9134 602.459 86.9134 571.26 95.2285Z" fill="#838383"/>
<path d="M162.53 218.383C134.588 234.564 111.371 257.781 95.1895 285.723C123.131 269.541 146.348 246.324 162.53 218.383Z" fill="#838383"/>
<path d="M95.1895 285.682C126.389 293.992 159.22 293.992 190.419 285.682C159.221 277.367 126.388 277.367 95.1895 285.682Z" fill="#838383"/>
<path d="M162.53 353.01C146.347 325.071 123.13 301.858 95.1895 285.68C111.372 313.618 134.589 336.832 162.53 353.01Z" fill="#838383"/>
<path d="M95.1895 380.91C103.505 349.711 103.505 316.878 95.1895 285.68C86.8743 316.878 86.8743 349.711 95.1895 380.91Z" fill="#838383"/>
<path d="M27.8496 353.01C55.7906 336.832 79.0073 313.618 95.1895 285.68C67.2505 301.86 44.0343 325.073 27.8496 353.01Z" fill="#838383"/>
<path d="M95.1895 190.453C86.8743 221.652 86.8743 254.484 95.1895 285.683C103.505 254.484 103.505 221.652 95.1895 190.453Z" fill="#838383"/>
<path d="M27.8496 218.383C44.0352 246.321 67.2509 269.537 95.1895 285.723C79.008 257.781 55.7913 234.564 27.8496 218.383Z" fill="#838383"/>
<path d="M0 285.682C31.1995 293.992 64.0305 293.992 95.23 285.682C64.0312 277.367 31.1988 277.367 0 285.682Z" fill="#838383"/>
<path d="M162.53 408.836C134.588 425.017 111.371 448.234 95.1895 476.176C123.131 459.994 146.348 436.778 162.53 408.836Z" fill="#838383"/>
<path d="M95.1895 476.135C126.389 484.445 159.22 484.445 190.419 476.135C159.221 467.82 126.388 467.82 95.1895 476.135Z" fill="#838383"/>
<path d="M162.53 543.463C146.347 515.524 123.13 492.311 95.1895 476.133C111.372 504.071 134.589 527.285 162.53 543.463Z" fill="#838383"/>
<path d="M95.1895 571.363C103.505 540.164 103.505 507.332 95.1895 476.133C86.8743 507.332 86.8743 540.164 95.1895 571.363Z" fill="#838383"/>
<path d="M27.8496 543.463C55.7906 527.285 79.0073 504.071 95.1895 476.133C67.2505 492.313 44.0343 515.526 27.8496 543.463Z" fill="#838383"/>
<path d="M95.1895 380.906C86.8743 412.105 86.8743 444.937 95.1895 476.136C103.505 444.937 103.505 412.105 95.1895 380.906Z" fill="#838383"/>
<path d="M27.8496 408.836C44.0352 436.774 67.2509 459.99 95.1895 476.176C79.008 448.234 55.7913 425.017 27.8496 408.836Z" fill="#838383"/>
<path d="M0 476.135C31.1995 484.445 64.0305 484.445 95.23 476.135C64.0312 467.82 31.1988 467.82 0 476.135Z" fill="#838383"/>
<path d="M162.53 599.289C134.588 615.471 111.371 638.687 95.1895 666.629C123.131 650.448 146.348 627.231 162.53 599.289Z" fill="#838383"/>
<path d="M95.1895 666.588C126.389 674.898 159.22 674.898 190.419 666.588C159.221 658.273 126.388 658.273 95.1895 666.588Z" fill="#838383"/>
<path d="M162.53 733.916C146.347 705.977 123.13 682.764 95.1895 666.586C111.372 694.525 134.589 717.738 162.53 733.916Z" fill="#838383"/>
<path d="M95.1895 761.816C103.505 730.617 103.505 697.785 95.1895 666.586C86.8743 697.785 86.8743 730.617 95.1895 761.816Z" fill="#838383"/>
<path d="M27.8496 733.916C55.7906 717.738 79.0073 694.525 95.1895 666.586C67.2505 682.767 44.0343 705.979 27.8496 733.916Z" fill="#838383"/>
<path d="M95.1895 571.359C86.8743 602.558 86.8743 635.391 95.1895 666.589C103.505 635.391 103.505 602.558 95.1895 571.359Z" fill="#838383"/>
<path d="M27.8496 599.289C44.0352 627.228 67.2509 650.443 95.1895 666.629C79.008 638.687 55.7913 615.471 27.8496 599.289Z" fill="#838383"/>
<path d="M0 666.588C31.1995 674.898 64.0305 674.898 95.23 666.588C64.0312 658.273 31.1988 658.273 0 666.588Z" fill="#838383"/>
<path d="M352.949 218.383C325.008 234.564 301.791 257.781 285.609 285.723C313.551 269.541 336.768 246.324 352.949 218.383Z" fill="#838383"/>
<path d="M285.609 285.682C316.809 293.992 349.64 293.992 380.839 285.682C349.641 277.367 316.808 277.367 285.609 285.682Z" fill="#838383"/>
<path d="M352.949 353.01C336.767 325.071 313.55 301.858 285.609 285.68C301.792 313.618 325.008 336.832 352.949 353.01Z" fill="#838383"/>
<path d="M285.609 380.91C293.925 349.711 293.925 316.878 285.609 285.68C277.294 316.878 277.294 349.711 285.609 380.91Z" fill="#838383"/>
<path d="M218.27 353.01C246.211 336.832 269.427 313.618 285.609 285.68C257.67 301.86 234.454 325.073 218.27 353.01Z" fill="#838383"/>
<path d="M285.609 190.453C277.294 221.652 277.294 254.484 285.609 285.683C293.925 254.484 293.925 221.652 285.609 190.453Z" fill="#838383"/>
<path d="M218.27 218.383C234.455 246.321 257.671 269.537 285.609 285.723C269.428 257.781 246.211 234.564 218.27 218.383Z" fill="#838383"/>
<path d="M190.42 285.682C221.619 293.992 254.45 293.992 285.65 285.682C254.451 277.367 221.619 277.367 190.42 285.682Z" fill="#838383"/>
<path d="M352.949 408.836C325.008 425.017 301.791 448.234 285.609 476.176C313.551 459.994 336.768 436.778 352.949 408.836Z" fill="#838383"/>
<path d="M285.609 476.135C316.809 484.445 349.64 484.445 380.839 476.135C349.641 467.82 316.808 467.82 285.609 476.135Z" fill="#838383"/>
<path d="M352.949 543.463C336.767 515.524 313.55 492.311 285.609 476.133C301.792 504.071 325.008 527.285 352.949 543.463Z" fill="#838383"/>
<path d="M285.609 571.363C293.925 540.164 293.925 507.332 285.609 476.133C277.294 507.332 277.294 540.164 285.609 571.363Z" fill="#838383"/>
<path d="M218.27 543.463C246.211 527.285 269.427 504.071 285.609 476.133C257.67 492.313 234.454 515.526 218.27 543.463Z" fill="#838383"/>
<path d="M285.609 380.906C277.294 412.105 277.294 444.937 285.609 476.136C293.925 444.937 293.925 412.105 285.609 380.906Z" fill="#838383"/>
<path d="M218.27 408.836C234.455 436.774 257.671 459.99 285.609 476.176C269.428 448.234 246.211 425.017 218.27 408.836Z" fill="#838383"/>
<path d="M190.42 476.135C221.619 484.445 254.45 484.445 285.65 476.135C254.451 467.82 221.619 467.82 190.42 476.135Z" fill="#838383"/>
<path d="M352.949 599.289C325.008 615.471 301.791 638.687 285.609 666.629C313.551 650.448 336.768 627.231 352.949 599.289Z" fill="#838383"/>
<path d="M285.609 666.588C316.809 674.898 349.64 674.898 380.839 666.588C349.641 658.273 316.808 658.273 285.609 666.588Z" fill="#838383"/>
<path d="M352.949 733.916C336.767 705.977 313.55 682.764 285.609 666.586C301.792 694.525 325.008 717.738 352.949 733.916Z" fill="#838383"/>
<path d="M285.609 761.816C293.925 730.617 293.925 697.785 285.609 666.586C277.294 697.785 277.294 730.617 285.609 761.816Z" fill="#838383"/>
<path d="M218.27 733.916C246.211 717.738 269.427 694.525 285.609 666.586C257.67 682.767 234.454 705.979 218.27 733.916Z" fill="#838383"/>
<path d="M285.609 571.359C277.294 602.558 277.294 635.391 285.609 666.589C293.925 635.391 293.925 602.558 285.609 571.359Z" fill="#838383"/>
<path d="M218.27 599.289C234.455 627.228 257.671 650.443 285.609 666.629C269.428 638.687 246.211 615.471 218.27 599.289Z" fill="#838383"/>
<path d="M190.42 666.588C221.619 674.898 254.45 674.898 285.65 666.588C254.451 658.273 221.619 658.273 190.42 666.588Z" fill="#838383"/>
<path d="M543.369 218.383C515.428 234.564 492.211 257.781 476.029 285.723C503.971 269.541 527.188 246.324 543.369 218.383Z" fill="#838383"/>
<path d="M476.029 285.682C507.229 293.992 540.06 293.992 571.259 285.682C540.06 277.367 507.228 277.367 476.029 285.682Z" fill="#838383"/>
<path d="M543.369 353.01C527.187 325.071 503.97 301.858 476.029 285.68C492.211 313.618 515.428 336.832 543.369 353.01Z" fill="#838383"/>
<path d="M476.029 380.91C484.344 349.711 484.344 316.878 476.029 285.68C467.714 316.878 467.714 349.711 476.029 380.91Z" fill="#838383"/>
<path d="M408.689 353.01C436.63 336.832 459.847 313.618 476.029 285.68C448.09 301.86 424.874 325.073 408.689 353.01Z" fill="#838383"/>
<path d="M476.029 190.453C467.714 221.652 467.714 254.484 476.029 285.683C484.344 254.484 484.344 221.652 476.029 190.453Z" fill="#838383"/>
<path d="M408.689 218.383C424.875 246.321 448.091 269.537 476.029 285.723C459.848 257.781 436.631 234.564 408.689 218.383Z" fill="#838383"/>
<path d="M380.84 285.682C412.039 293.992 444.87 293.992 476.07 285.682C444.871 277.367 412.039 277.367 380.84 285.682Z" fill="#838383"/>
<path d="M543.369 408.836C515.428 425.017 492.211 448.234 476.029 476.176C503.971 459.994 527.188 436.778 543.369 408.836Z" fill="#838383"/>
<path d="M476.029 476.135C507.229 484.445 540.06 484.445 571.259 476.135C540.06 467.82 507.228 467.82 476.029 476.135Z" fill="#838383"/>
<path d="M543.369 543.463C527.187 515.524 503.97 492.311 476.029 476.133C492.211 504.071 515.428 527.285 543.369 543.463Z" fill="#838383"/>
<path d="M476.029 571.363C484.344 540.164 484.344 507.332 476.029 476.133C467.714 507.332 467.714 540.164 476.029 571.363Z" fill="#838383"/>
<path d="M408.689 543.463C436.63 527.285 459.847 504.071 476.029 476.133C448.09 492.313 424.874 515.526 408.689 543.463Z" fill="#838383"/>
<path d="M476.029 380.906C467.714 412.105 467.714 444.937 476.029 476.136C484.344 444.937 484.344 412.105 476.029 380.906Z" fill="#838383"/>
<path d="M408.689 408.836C424.875 436.774 448.091 459.99 476.029 476.176C459.848 448.234 436.631 425.017 408.689 408.836Z" fill="#838383"/>
<path d="M380.84 476.135C412.039 484.445 444.87 484.445 476.07 476.135C444.871 467.82 412.039 467.82 380.84 476.135Z" fill="#838383"/>
<path d="M543.369 599.289C515.428 615.471 492.211 638.687 476.029 666.629C503.971 650.448 527.188 627.231 543.369 599.289Z" fill="#838383"/>
<path d="M476.029 666.588C507.229 674.898 540.06 674.898 571.259 666.588C540.06 658.273 507.228 658.273 476.029 666.588Z" fill="#838383"/>
<path d="M543.369 733.916C527.187 705.977 503.97 682.764 476.029 666.586C492.211 694.525 515.428 717.738 543.369 733.916Z" fill="#838383"/>
<path d="M476.029 761.816C484.344 730.617 484.344 697.785 476.029 666.586C467.714 697.785 467.714 730.617 476.029 761.816Z" fill="#838383"/>
<path d="M408.689 733.916C436.63 717.738 459.847 694.525 476.029 666.586C448.09 682.767 424.874 705.979 408.689 733.916Z" fill="#838383"/>
<path d="M476.029 571.359C467.714 602.558 467.714 635.391 476.029 666.589C484.344 635.391 484.344 602.558 476.029 571.359Z" fill="#838383"/>
<path d="M408.689 599.289C424.875 627.228 448.091 650.443 476.029 666.629C459.848 638.687 436.631 615.471 408.689 599.289Z" fill="#838383"/>
<path d="M380.84 666.588C412.039 674.898 444.87 674.898 476.07 666.588C444.871 658.273 412.039 658.273 380.84 666.588Z" fill="#838383"/>
<path d="M733.789 218.383C705.848 234.564 682.631 257.781 666.449 285.723C694.391 269.541 717.608 246.324 733.789 218.383Z" fill="#838383"/>
<path d="M666.449 285.682C697.649 293.992 730.48 293.992 761.679 285.682C730.48 277.367 697.648 277.367 666.449 285.682Z" fill="#838383"/>
<path d="M733.789 353.01C717.607 325.071 694.39 301.858 666.449 285.68C682.631 313.618 705.848 336.832 733.789 353.01Z" fill="#838383"/>
<path d="M666.449 380.91C674.764 349.711 674.764 316.878 666.449 285.68C658.134 316.878 658.134 349.711 666.449 380.91Z" fill="#838383"/>
<path d="M599.109 353.01C627.05 336.832 650.267 313.618 666.449 285.68C638.51 301.86 615.294 325.073 599.109 353.01Z" fill="#838383"/>
<path d="M666.449 190.453C658.134 221.652 658.134 254.484 666.449 285.683C674.764 254.484 674.764 221.652 666.449 190.453Z" fill="#838383"/>
<path d="M599.109 218.383C615.295 246.321 638.511 269.537 666.449 285.723C650.268 257.781 627.051 234.564 599.109 218.383Z" fill="#838383"/>
<path d="M571.26 285.682C602.459 293.992 635.29 293.992 666.49 285.682C635.291 277.367 602.459 277.367 571.26 285.682Z" fill="#838383"/>
<path d="M733.789 408.836C705.848 425.017 682.631 448.234 666.449 476.176C694.391 459.994 717.608 436.778 733.789 408.836Z" fill="#838383"/>
<path d="M666.449 476.135C697.649 484.445 730.48 484.445 761.679 476.135C730.48 467.82 697.648 467.82 666.449 476.135Z" fill="#838383"/>
<path d="M733.789 543.463C717.607 515.524 694.39 492.311 666.449 476.133C682.631 504.071 705.848 527.285 733.789 543.463Z" fill="#838383"/>
<path d="M666.449 571.363C674.764 540.164 674.764 507.332 666.449 476.133C658.134 507.332 658.134 540.164 666.449 571.363Z" fill="#838383"/>
<path d="M599.109 543.463C627.05 527.285 650.267 504.071 666.449 476.133C638.51 492.313 615.294 515.526 599.109 543.463Z" fill="#838383"/>
<path d="M666.449 380.906C658.134 412.105 658.134 444.937 666.449 476.136C674.764 444.937 674.764 412.105 666.449 380.906Z" fill="#838383"/>
<path d="M599.109 408.836C615.295 436.774 638.511 459.99 666.449 476.176C650.268 448.234 627.051 425.017 599.109 408.836Z" fill="#838383"/>
<path d="M571.26 476.135C602.459 484.445 635.29 484.445 666.49 476.135C635.291 467.82 602.459 467.82 571.26 476.135Z" fill="#838383"/>
<path d="M733.789 599.289C705.848 615.471 682.631 638.687 666.449 666.629C694.391 650.448 717.608 627.231 733.789 599.289Z" fill="#838383"/>
<path d="M666.449 666.588C697.649 674.898 730.48 674.898 761.679 666.588C730.48 658.273 697.648 658.273 666.449 666.588Z" fill="#838383"/>
<path d="M733.789 733.916C717.607 705.977 694.39 682.764 666.449 666.586C682.631 694.525 705.848 717.738 733.789 733.916Z" fill="#838383"/>
<path d="M666.449 761.816C674.764 730.617 674.764 697.785 666.449 666.586C658.134 697.785 658.134 730.617 666.449 761.816Z" fill="#838383"/>
<path d="M599.109 733.916C627.05 717.738 650.267 694.525 666.449 666.586C638.51 682.767 615.294 705.979 599.109 733.916Z" fill="#838383"/>
<path d="M666.449 571.359C658.134 602.558 658.134 635.391 666.449 666.589C674.764 635.391 674.764 602.558 666.449 571.359Z" fill="#838383"/>
<path d="M599.109 599.289C615.295 627.228 638.511 650.443 666.449 666.629C650.268 638.687 627.051 615.471 599.109 599.289Z" fill="#838383"/>
<path d="M571.26 666.588C602.459 674.898 635.29 674.898 666.49 666.588C635.291 658.273 602.459 658.273 571.26 666.588Z" fill="#838383"/>
<path d="M924.209 27.9297C896.268 44.1112 873.051 67.328 856.869 95.2697C884.811 79.0882 908.028 55.8714 924.209 27.9297Z" fill="#838383"/>
<path d="M856.869 95.2285C888.069 103.539 920.9 103.539 952.099 95.2285C920.9 86.9134 888.068 86.9134 856.869 95.2285Z" fill="#838383"/>
<path d="M924.209 162.557C908.027 134.618 884.81 111.405 856.869 95.2266C873.051 123.165 896.268 146.379 924.209 162.557Z" fill="#838383"/>
<path d="M856.869 190.457C865.184 159.258 865.184 126.425 856.869 95.2266C848.554 126.425 848.554 159.258 856.869 190.457Z" fill="#838383"/>
<path d="M789.529 162.557C817.47 146.379 840.687 123.165 856.869 95.2266C828.93 111.407 805.714 134.62 789.529 162.557Z" fill="#838383"/>
<path d="M856.869 0C848.554 31.1988 848.554 64.0312 856.869 95.23C865.184 64.0312 865.184 31.1988 856.869 0Z" fill="#838383"/>
<path d="M789.529 27.9297C805.715 55.8682 828.931 79.0841 856.869 95.2697C840.688 67.328 817.471 44.1112 789.529 27.9297Z" fill="#838383"/>
<path d="M761.68 95.2285C792.879 103.539 825.71 103.539 856.91 95.2285C825.711 86.9134 792.878 86.9134 761.68 95.2285Z" fill="#838383"/>
<path d="M1114.63 27.9297C1086.69 44.1112 1063.47 67.328 1047.29 95.2697C1075.23 79.0882 1098.45 55.8714 1114.63 27.9297Z" fill="#838383"/>
<path d="M1047.29 95.2285C1078.49 103.539 1111.32 103.539 1142.52 95.2285C1111.32 86.9134 1078.49 86.9134 1047.29 95.2285Z" fill="#838383"/>
<path d="M1114.63 162.557C1098.45 134.618 1075.23 111.405 1047.29 95.2266C1063.47 123.165 1086.69 146.379 1114.63 162.557Z" fill="#838383"/>
<path d="M1047.29 190.457C1055.6 159.258 1055.6 126.425 1047.29 95.2266C1038.97 126.425 1038.97 159.258 1047.29 190.457Z" fill="#838383"/>
<path d="M979.949 162.557C1007.89 146.379 1031.11 123.165 1047.29 95.2266C1019.35 111.407 996.134 134.62 979.949 162.557Z" fill="#838383"/>
<path d="M1047.29 0C1038.97 31.1988 1038.97 64.0312 1047.29 95.23C1055.6 64.0312 1055.6 31.1988 1047.29 0Z" fill="#838383"/>
<path d="M979.949 27.9297C996.135 55.8682 1019.35 79.0841 1047.29 95.2697C1031.11 67.328 1007.89 44.1112 979.949 27.9297Z" fill="#838383"/>
<path d="M952.1 95.2285C983.299 103.539 1016.13 103.539 1047.33 95.2285C1016.13 86.9134 983.298 86.9134 952.1 95.2285Z" fill="#838383"/>
<path d="M1305.05 27.9297C1277.11 44.1112 1253.89 67.328 1237.71 95.2697C1265.65 79.0882 1288.87 55.8714 1305.05 27.9297Z" fill="#838383"/>
<path d="M1237.71 95.2285C1268.91 103.539 1301.74 103.539 1332.94 95.2285C1301.74 86.9134 1268.91 86.9134 1237.71 95.2285Z" fill="#838383"/>
<path d="M1305.05 162.557C1288.87 134.618 1265.65 111.405 1237.71 95.2266C1253.89 123.165 1277.11 146.379 1305.05 162.557Z" fill="#838383"/>
<path d="M1237.71 190.457C1246.02 159.258 1246.02 126.425 1237.71 95.2266C1229.39 126.425 1229.39 159.258 1237.71 190.457Z" fill="#838383"/>
<path d="M1170.37 162.557C1198.31 146.379 1221.53 123.165 1237.71 95.2266C1209.77 111.407 1186.55 134.62 1170.37 162.557Z" fill="#838383"/>
<path d="M1237.71 0C1229.39 31.1988 1229.39 64.0312 1237.71 95.23C1246.02 64.0312 1246.02 31.1988 1237.71 0Z" fill="#838383"/>
<path d="M1170.37 27.9297C1186.55 55.8682 1209.77 79.0841 1237.71 95.2697C1221.53 67.328 1198.31 44.1112 1170.37 27.9297Z" fill="#838383"/>
<path d="M1142.52 95.2285C1173.72 103.539 1206.55 103.539 1237.75 95.2285C1206.55 86.9134 1173.72 86.9134 1142.52 95.2285Z" fill="#838383"/>
<path d="M1495.47 27.9297C1467.53 44.1112 1444.31 67.328 1428.13 95.2697C1456.07 79.0882 1479.29 55.8714 1495.47 27.9297Z" fill="#838383"/>
<path d="M1428.13 95.2285C1459.33 103.539 1492.16 103.539 1523.36 95.2285C1492.16 86.9134 1459.33 86.9134 1428.13 95.2285Z" fill="#838383"/>
<path d="M1495.47 162.557C1479.29 134.618 1456.07 111.405 1428.13 95.2266C1444.31 123.165 1467.53 146.379 1495.47 162.557Z" fill="#838383"/>
<path d="M1428.13 190.457C1436.44 159.258 1436.44 126.425 1428.13 95.2266C1419.81 126.425 1419.81 159.258 1428.13 190.457Z" fill="#838383"/>
<path d="M1360.79 162.557C1388.73 146.379 1411.95 123.165 1428.13 95.2266C1400.19 111.407 1376.97 134.62 1360.79 162.557Z" fill="#838383"/>
<path d="M1428.13 0C1419.81 31.1988 1419.81 64.0312 1428.13 95.23C1436.44 64.0312 1436.44 31.1988 1428.13 0Z" fill="#838383"/>
<path d="M1360.79 27.9297C1376.97 55.8682 1400.19 79.0841 1428.13 95.2697C1411.95 67.328 1388.73 44.1112 1360.79 27.9297Z" fill="#838383"/>
<path d="M1332.94 95.2285C1364.14 103.539 1396.97 103.539 1428.17 95.2285C1396.97 86.9134 1364.14 86.9134 1332.94 95.2285Z" fill="#838383"/>
<path d="M924.209 218.383C896.268 234.564 873.051 257.781 856.869 285.723C884.811 269.541 908.028 246.324 924.209 218.383Z" fill="#838383"/>
<path d="M856.869 285.682C888.069 293.992 920.9 293.992 952.099 285.682C920.9 277.367 888.068 277.367 856.869 285.682Z" fill="#838383"/>
<path d="M924.209 353.01C908.027 325.071 884.81 301.858 856.869 285.68C873.051 313.618 896.268 336.832 924.209 353.01Z" fill="#838383"/>
<path d="M856.869 380.91C865.184 349.711 865.184 316.878 856.869 285.68C848.554 316.878 848.554 349.711 856.869 380.91Z" fill="#838383"/>
<path d="M789.529 353.01C817.47 336.832 840.687 313.618 856.869 285.68C828.93 301.86 805.714 325.073 789.529 353.01Z" fill="#838383"/>
<path d="M856.869 190.453C848.554 221.652 848.554 254.484 856.869 285.683C865.184 254.484 865.184 221.652 856.869 190.453Z" fill="#838383"/>
<path d="M789.529 218.383C805.715 246.321 828.931 269.537 856.869 285.723C840.688 257.781 817.471 234.564 789.529 218.383Z" fill="#838383"/>
<path d="M761.68 285.682C792.879 293.992 825.71 293.992 856.91 285.682C825.711 277.367 792.878 277.367 761.68 285.682Z" fill="#838383"/>
<path d="M924.209 408.836C896.268 425.017 873.051 448.234 856.869 476.176C884.811 459.994 908.028 436.778 924.209 408.836Z" fill="#838383"/>
<path d="M856.869 476.135C888.069 484.445 920.9 484.445 952.099 476.135C920.9 467.82 888.068 467.82 856.869 476.135Z" fill="#838383"/>
<path d="M924.209 543.463C908.027 515.524 884.81 492.311 856.869 476.133C873.051 504.071 896.268 527.285 924.209 543.463Z" fill="#838383"/>
<path d="M856.869 571.363C865.184 540.164 865.184 507.332 856.869 476.133C848.554 507.332 848.554 540.164 856.869 571.363Z" fill="#838383"/>
<path d="M789.529 543.463C817.47 527.285 840.687 504.071 856.869 476.133C828.93 492.313 805.714 515.526 789.529 543.463Z" fill="#838383"/>
<path d="M856.869 380.906C848.554 412.105 848.554 444.937 856.869 476.136C865.184 444.937 865.184 412.105 856.869 380.906Z" fill="#838383"/>
<path d="M789.529 408.836C805.715 436.774 828.931 459.99 856.869 476.176C840.688 448.234 817.471 425.017 789.529 408.836Z" fill="#838383"/>
<path d="M761.68 476.135C792.879 484.445 825.71 484.445 856.91 476.135C825.711 467.82 792.878 467.82 761.68 476.135Z" fill="#838383"/>
<path d="M924.209 599.289C896.268 615.471 873.051 638.687 856.869 666.629C884.811 650.448 908.028 627.231 924.209 599.289Z" fill="#838383"/>
<path d="M856.869 666.588C888.069 674.898 920.9 674.898 952.099 666.588C920.9 658.273 888.068 658.273 856.869 666.588Z" fill="#838383"/>
<path d="M924.209 733.916C908.027 705.977 884.81 682.764 856.869 666.586C873.051 694.525 896.268 717.738 924.209 733.916Z" fill="#838383"/>
<path d="M856.869 761.816C865.184 730.617 865.184 697.785 856.869 666.586C848.554 697.785 848.554 730.617 856.869 761.816Z" fill="#838383"/>
<path d="M789.529 733.916C817.47 717.738 840.687 694.525 856.869 666.586C828.93 682.767 805.714 705.979 789.529 733.916Z" fill="#838383"/>
<path d="M856.869 571.359C848.554 602.558 848.554 635.391 856.869 666.589C865.184 635.391 865.184 602.558 856.869 571.359Z" fill="#838383"/>
<path d="M789.529 599.289C805.715 627.228 828.931 650.443 856.869 666.629C840.688 638.687 817.471 615.471 789.529 599.289Z" fill="#838383"/>
<path d="M761.68 666.588C792.879 674.898 825.71 674.898 856.91 666.588C825.711 658.273 792.878 658.273 761.68 666.588Z" fill="#838383"/>
<path d="M1114.63 218.383C1086.69 234.564 1063.47 257.781 1047.29 285.723C1075.23 269.541 1098.45 246.324 1114.63 218.383Z" fill="#838383"/>
<path d="M1047.29 285.682C1078.49 293.992 1111.32 293.992 1142.52 285.682C1111.32 277.367 1078.49 277.367 1047.29 285.682Z" fill="#838383"/>
<path d="M1114.63 353.01C1098.45 325.071 1075.23 301.858 1047.29 285.68C1063.47 313.618 1086.69 336.832 1114.63 353.01Z" fill="#838383"/>
<path d="M1047.29 380.91C1055.6 349.711 1055.6 316.878 1047.29 285.68C1038.97 316.878 1038.97 349.711 1047.29 380.91Z" fill="#838383"/>
<path d="M979.949 353.01C1007.89 336.832 1031.11 313.618 1047.29 285.68C1019.35 301.86 996.134 325.073 979.949 353.01Z" fill="#838383"/>
<path d="M1047.29 190.453C1038.97 221.652 1038.97 254.484 1047.29 285.683C1055.6 254.484 1055.6 221.652 1047.29 190.453Z" fill="#838383"/>
<path d="M979.949 218.383C996.135 246.321 1019.35 269.537 1047.29 285.723C1031.11 257.781 1007.89 234.564 979.949 218.383Z" fill="#838383"/>
<path d="M952.1 285.682C983.299 293.992 1016.13 293.992 1047.33 285.682C1016.13 277.367 983.298 277.367 952.1 285.682Z" fill="#838383"/>
<path d="M1114.63 408.836C1086.69 425.017 1063.47 448.234 1047.29 476.176C1075.23 459.994 1098.45 436.778 1114.63 408.836Z" fill="#838383"/>
<path d="M1047.29 476.135C1078.49 484.445 1111.32 484.445 1142.52 476.135C1111.32 467.82 1078.49 467.82 1047.29 476.135Z" fill="#838383"/>
<path d="M1114.63 543.463C1098.45 515.524 1075.23 492.311 1047.29 476.133C1063.47 504.071 1086.69 527.285 1114.63 543.463Z" fill="#838383"/>
<path d="M1047.29 571.363C1055.6 540.164 1055.6 507.332 1047.29 476.133C1038.97 507.332 1038.97 540.164 1047.29 571.363Z" fill="#838383"/>
<path d="M979.949 543.463C1007.89 527.285 1031.11 504.071 1047.29 476.133C1019.35 492.313 996.134 515.526 979.949 543.463Z" fill="#838383"/>
<path d="M1047.29 380.906C1038.97 412.105 1038.97 444.937 1047.29 476.136C1055.6 444.937 1055.6 412.105 1047.29 380.906Z" fill="#838383"/>
<path d="M979.949 408.836C996.135 436.774 1019.35 459.99 1047.29 476.176C1031.11 448.234 1007.89 425.017 979.949 408.836Z" fill="#838383"/>
<path d="M952.1 476.135C983.299 484.445 1016.13 484.445 1047.33 476.135C1016.13 467.82 983.298 467.82 952.1 476.135Z" fill="#838383"/>
<path d="M1114.63 599.289C1086.69 615.471 1063.47 638.687 1047.29 666.629C1075.23 650.448 1098.45 627.231 1114.63 599.289Z" fill="#838383"/>
<path d="M1047.29 666.588C1078.49 674.898 1111.32 674.898 1142.52 666.588C1111.32 658.273 1078.49 658.273 1047.29 666.588Z" fill="#838383"/>
<path d="M1114.63 733.916C1098.45 705.977 1075.23 682.764 1047.29 666.586C1063.47 694.525 1086.69 717.738 1114.63 733.916Z" fill="#838383"/>
<path d="M1047.29 761.816C1055.6 730.617 1055.6 697.785 1047.29 666.586C1038.97 697.785 1038.97 730.617 1047.29 761.816Z" fill="#838383"/>
<path d="M979.949 733.916C1007.89 717.738 1031.11 694.525 1047.29 666.586C1019.35 682.767 996.134 705.979 979.949 733.916Z" fill="#838383"/>
<path d="M1047.29 571.359C1038.97 602.558 1038.97 635.391 1047.29 666.589C1055.6 635.391 1055.6 602.558 1047.29 571.359Z" fill="#838383"/>
<path d="M979.949 599.289C996.135 627.228 1019.35 650.443 1047.29 666.629C1031.11 638.687 1007.89 615.471 979.949 599.289Z" fill="#838383"/>
<path d="M952.1 666.588C983.299 674.898 1016.13 674.898 1047.33 666.588C1016.13 658.273 983.298 658.273 952.1 666.588Z" fill="#838383"/>
<path d="M1305.05 218.383C1277.11 234.564 1253.89 257.781 1237.71 285.723C1265.65 269.541 1288.87 246.324 1305.05 218.383Z" fill="#838383"/>
<path d="M1237.71 285.682C1268.91 293.992 1301.74 293.992 1332.94 285.682C1301.74 277.367 1268.91 277.367 1237.71 285.682Z" fill="#838383"/>
<path d="M1305.05 353.01C1288.87 325.071 1265.65 301.858 1237.71 285.68C1253.89 313.618 1277.11 336.832 1305.05 353.01Z" fill="#838383"/>
<path d="M1237.71 380.91C1246.02 349.711 1246.02 316.878 1237.71 285.68C1229.39 316.878 1229.39 349.711 1237.71 380.91Z" fill="#838383"/>
<path d="M1170.37 353.01C1198.31 336.832 1221.53 313.618 1237.71 285.68C1209.77 301.86 1186.55 325.073 1170.37 353.01Z" fill="#838383"/>
<path d="M1237.71 190.453C1229.39 221.652 1229.39 254.484 1237.71 285.683C1246.02 254.484 1246.02 221.652 1237.71 190.453Z" fill="#838383"/>
<path d="M1170.37 218.383C1186.55 246.321 1209.77 269.537 1237.71 285.723C1221.53 257.781 1198.31 234.564 1170.37 218.383Z" fill="#838383"/>
<path d="M1142.52 285.682C1173.72 293.992 1206.55 293.992 1237.75 285.682C1206.55 277.367 1173.72 277.367 1142.52 285.682Z" fill="#838383"/>
<path d="M1305.05 408.836C1277.11 425.017 1253.89 448.234 1237.71 476.176C1265.65 459.994 1288.87 436.778 1305.05 408.836Z" fill="#838383"/>
<path d="M1237.71 476.135C1268.91 484.445 1301.74 484.445 1332.94 476.135C1301.74 467.82 1268.91 467.82 1237.71 476.135Z" fill="#838383"/>
<path d="M1305.05 543.463C1288.87 515.524 1265.65 492.311 1237.71 476.133C1253.89 504.071 1277.11 527.285 1305.05 543.463Z" fill="#838383"/>
<path d="M1237.71 571.363C1246.02 540.164 1246.02 507.332 1237.71 476.133C1229.39 507.332 1229.39 540.164 1237.71 571.363Z" fill="#838383"/>
<path d="M1170.37 543.463C1198.31 527.285 1221.53 504.071 1237.71 476.133C1209.77 492.313 1186.55 515.526 1170.37 543.463Z" fill="#838383"/>
<path d="M1237.71 380.906C1229.39 412.105 1229.39 444.937 1237.71 476.136C1246.02 444.937 1246.02 412.105 1237.71 380.906Z" fill="#838383"/>
<path d="M1170.37 408.836C1186.55 436.774 1209.77 459.99 1237.71 476.176C1221.53 448.234 1198.31 425.017 1170.37 408.836Z" fill="#838383"/>
<path d="M1142.52 476.135C1173.72 484.445 1206.55 484.445 1237.75 476.135C1206.55 467.82 1173.72 467.82 1142.52 476.135Z" fill="#838383"/>
<path d="M1305.05 599.289C1277.11 615.471 1253.89 638.687 1237.71 666.629C1265.65 650.448 1288.87 627.231 1305.05 599.289Z" fill="#838383"/>
<path d="M1237.71 666.588C1268.91 674.898 1301.74 674.898 1332.94 666.588C1301.74 658.273 1268.91 658.273 1237.71 666.588Z" fill="#838383"/>
<path d="M1305.05 733.916C1288.87 705.977 1265.65 682.764 1237.71 666.586C1253.89 694.525 1277.11 717.738 1305.05 733.916Z" fill="#838383"/>
<path d="M1237.71 761.816C1246.02 730.617 1246.02 697.785 1237.71 666.586C1229.39 697.785 1229.39 730.617 1237.71 761.816Z" fill="#838383"/>
<path d="M1170.37 733.916C1198.31 717.738 1221.53 694.525 1237.71 666.586C1209.77 682.767 1186.55 705.979 1170.37 733.916Z" fill="#838383"/>
<path d="M1237.71 571.359C1229.39 602.558 1229.39 635.391 1237.71 666.589C1246.02 635.391 1246.02 602.558 1237.71 571.359Z" fill="#838383"/>
<path d="M1170.37 599.289C1186.55 627.228 1209.77 650.443 1237.71 666.629C1221.53 638.687 1198.31 615.471 1170.37 599.289Z" fill="#838383"/>
<path d="M1142.52 666.588C1173.72 674.898 1206.55 674.898 1237.75 666.588C1206.55 658.273 1173.72 658.273 1142.52 666.588Z" fill="#838383"/>
<path d="M1495.47 218.383C1467.53 234.564 1444.31 257.781 1428.13 285.723C1456.07 269.541 1479.29 246.324 1495.47 218.383Z" fill="#838383"/>
<path d="M1428.13 285.682C1459.33 293.992 1492.16 293.992 1523.36 285.682C1492.16 277.367 1459.33 277.367 1428.13 285.682Z" fill="#838383"/>
<path d="M1495.47 353.01C1479.29 325.071 1456.07 301.858 1428.13 285.68C1444.31 313.618 1467.53 336.832 1495.47 353.01Z" fill="#838383"/>
<path d="M1428.13 380.91C1436.44 349.711 1436.44 316.878 1428.13 285.68C1419.81 316.878 1419.81 349.711 1428.13 380.91Z" fill="#838383"/>
<path d="M1360.79 353.01C1388.73 336.832 1411.95 313.618 1428.13 285.68C1400.19 301.86 1376.97 325.073 1360.79 353.01Z" fill="#838383"/>
<path d="M1428.13 190.453C1419.81 221.652 1419.81 254.484 1428.13 285.683C1436.44 254.484 1436.44 221.652 1428.13 190.453Z" fill="#838383"/>
<path d="M1360.79 218.383C1376.97 246.321 1400.19 269.537 1428.13 285.723C1411.95 257.781 1388.73 234.564 1360.79 218.383Z" fill="#838383"/>
<path d="M1332.94 285.682C1364.14 293.992 1396.97 293.992 1428.17 285.682C1396.97 277.367 1364.14 277.367 1332.94 285.682Z" fill="#838383"/>
<path d="M1495.47 408.836C1467.53 425.017 1444.31 448.234 1428.13 476.176C1456.07 459.994 1479.29 436.778 1495.47 408.836Z" fill="#838383"/>
<path d="M1428.13 476.135C1459.33 484.445 1492.16 484.445 1523.36 476.135C1492.16 467.82 1459.33 467.82 1428.13 476.135Z" fill="#838383"/>
<path d="M1495.47 543.463C1479.29 515.524 1456.07 492.311 1428.13 476.133C1444.31 504.071 1467.53 527.285 1495.47 543.463Z" fill="#838383"/>
<path d="M1428.13 571.363C1436.44 540.164 1436.44 507.332 1428.13 476.133C1419.81 507.332 1419.81 540.164 1428.13 571.363Z" fill="#838383"/>
<path d="M1360.79 543.463C1388.73 527.285 1411.95 504.071 1428.13 476.133C1400.19 492.313 1376.97 515.526 1360.79 543.463Z" fill="#838383"/>
<path d="M1428.13 380.906C1419.81 412.105 1419.81 444.937 1428.13 476.136C1436.44 444.937 1436.44 412.105 1428.13 380.906Z" fill="#838383"/>
<path d="M1360.79 408.836C1376.97 436.774 1400.19 459.99 1428.13 476.176C1411.95 448.234 1388.73 425.017 1360.79 408.836Z" fill="#838383"/>
<path d="M1332.94 476.135C1364.14 484.445 1396.97 484.445 1428.17 476.135C1396.97 467.82 1364.14 467.82 1332.94 476.135Z" fill="#838383"/>
<path d="M1495.47 599.289C1467.53 615.471 1444.31 638.687 1428.13 666.629C1456.07 650.448 1479.29 627.231 1495.47 599.289Z" fill="#838383"/>
<path d="M1428.13 666.588C1459.33 674.898 1492.16 674.898 1523.36 666.588C1492.16 658.273 1459.33 658.273 1428.13 666.588Z" fill="#838383"/>
<path d="M1495.47 733.916C1479.29 705.977 1456.07 682.764 1428.13 666.586C1444.31 694.525 1467.53 717.738 1495.47 733.916Z" fill="#838383"/>
<path d="M1428.13 761.816C1436.44 730.617 1436.44 697.785 1428.13 666.586C1419.81 697.785 1419.81 730.617 1428.13 761.816Z" fill="#838383"/>
<path d="M1360.79 733.916C1388.73 717.738 1411.95 694.525 1428.13 666.586C1400.19 682.767 1376.97 705.979 1360.79 733.916Z" fill="#838383"/>
<path d="M1428.13 571.359C1419.81 602.558 1419.81 635.391 1428.13 666.589C1436.44 635.391 1436.44 602.558 1428.13 571.359Z" fill="#838383"/>
<path d="M1360.79 599.289C1376.97 627.228 1400.19 650.443 1428.13 666.629C1411.95 638.687 1388.73 615.471 1360.79 599.289Z" fill="#838383"/>
<path d="M1332.94 666.588C1364.14 674.898 1396.97 674.898 1428.17 666.588C1396.97 658.273 1364.14 658.273 1332.94 666.588Z" fill="#838383"/>
</svg>
