<svg width="315" height="80" viewBox="0 0 315 80" fill="none" xmlns="http://www.w3.org/2000/svg">
<path d="M25.8767 76.2402C21.1839 76.2402 16.8546 74.7781 12.8888 71.8538C8.98911 68.9295 5.84953 64.6823 3.47006 59.1123C1.15669 53.5422 0 46.9278 0 39.2689C0 32.0278 1.15669 25.4482 3.47006 19.53C5.78343 13.5422 9.22045 8.80766 13.7811 5.32637C18.3417 1.77546 23.7947 0 30.1399 0C35.8903 0 41.3763 1.18364 46.5979 3.55091L39.2612 33.9426H38.8647C35.8242 28.8599 32.6847 24.1253 29.4459 19.7389C26.2733 15.3525 22.4728 10.4787 18.0443 5.11749C16.7885 10.9661 16.1606 16.8842 16.1606 22.8721C16.1606 29.6258 17.0529 35.8225 18.8375 41.4621C20.6221 47.1018 23.5303 51.6623 27.5622 55.1436C31.5941 58.5553 36.7826 60.2611 43.1279 60.2611C44.7142 60.2611 46.3336 60.1567 47.986 59.9478L48.2834 60.3655C47.3581 62.9417 45.8378 65.4482 43.7228 67.8851C41.6077 70.322 38.9969 72.3412 35.8903 73.9426C32.8499 75.4743 29.512 76.2402 25.8767 76.2402Z" fill="#FAFAFA"/>
<path d="M101.33 2.29765C100.603 4.03829 100.108 6.37075 99.8432 9.29504C99.5788 12.2193 99.4467 17.6153 99.4467 25.483V50.9661C99.4467 58.8338 99.5788 64.2298 99.8432 67.1541C100.108 70.0783 100.603 72.4108 101.33 74.1514V74.7781H80.2126V74.1514C80.9397 72.4108 81.4354 70.0783 81.6998 67.1541C81.9642 64.2298 82.0964 58.8338 82.0964 50.9661V38.329C77.9323 38.0505 73.9334 37.8416 70.0999 37.7023V50.9661C70.0999 58.8338 70.232 64.2298 70.4964 67.1541C70.7608 70.0783 71.2565 72.4108 71.9836 74.1514V74.7781H50.8658V74.1514C51.5929 72.4108 52.0886 70.0783 52.353 67.1541C52.6174 64.2298 52.7496 58.8338 52.7496 50.9661V25.483C52.7496 17.6153 52.6174 12.2193 52.353 9.29504C52.0886 6.37075 51.5929 4.03829 50.8658 2.29765V1.67102H71.9836V2.29765C71.2565 4.03829 70.7608 6.37075 70.4964 9.29504C70.232 12.2193 70.0999 17.6153 70.0999 25.483V35.6136C73.9334 35.4743 77.9323 35.2654 82.0964 34.9869V25.483C82.0964 17.6153 81.9642 12.2193 81.6998 9.29504C81.4354 6.37075 80.9397 4.03829 80.2126 2.29765V1.67102H101.33V2.29765Z" fill="#FAFAFA"/>
<path d="M147.145 46.9974C149.855 59.1819 152.4 68.2332 154.779 74.1514V74.7781H132.075V74.1514C132.207 72.8982 132.274 71.7494 132.274 70.705C132.274 65.2045 131.381 57.2672 129.597 46.893C125.367 46.9626 121.566 47.2411 118.195 47.7285C118.063 59.0078 119.517 67.8155 122.557 74.1514V74.7781H105.009V74.4648C107.917 66.5274 111.784 52.1845 116.609 31.436L121.665 9.81723L119.286 1.8799V1.46214L139.313 1.67102C139.048 2.7154 138.916 3.93385 138.916 5.32637C138.916 7.13664 139.148 9.50391 139.61 12.4282C140.139 15.3525 141.031 19.5648 142.287 25.0653L147.145 46.9974ZM118.294 44.3864C121.533 44.8738 125.201 45.1523 129.299 45.2219C128.242 39.9304 127.515 36.4143 127.118 34.6736L122.26 13.1593C120.079 24.2298 118.757 34.6388 118.294 44.3864Z" fill="#FAFAFA"/>
<path d="M177.668 50.9661C177.668 58.8338 177.8 64.2298 178.064 67.1541C178.329 70.0783 178.825 72.4108 179.552 74.1514V74.7781H158.434V74.1514C159.161 72.4108 159.657 70.0783 159.921 67.1541C160.185 64.2298 160.318 58.8338 160.318 50.9661V25.483C160.318 17.6153 160.185 12.2193 159.921 9.29504C159.657 6.37075 159.161 4.03829 158.434 2.29765V1.67102H179.552V2.29765C178.825 4.03829 178.329 6.37075 178.064 9.29504C177.8 12.2193 177.668 17.6153 177.668 25.483V50.9661ZM191.052 21.5144C195.481 35.161 198.686 44.9434 200.669 50.8616C202.718 56.7798 204.437 61.4795 205.825 64.9608C207.279 68.4421 209.361 73.0374 212.071 78.7467L211.179 79.6867C205.23 78.6423 199.678 75.3351 194.522 69.765C189.433 64.195 184.41 54.7258 179.452 41.3577V40.7311C183.617 30.7746 186.591 22.5936 188.375 16.188C190.226 9.78241 191.152 5.1523 191.152 2.29765V1.67102H210.485V2.29765C205.329 6.96258 198.852 13.3681 191.052 21.5144Z" fill="#FAFAFA"/>
<path d="M251.571 35.9269C259.106 57.1628 264.327 71.5753 267.236 79.1645L266.74 80C263.832 79.7911 260.824 78.7119 257.718 76.7624C254.677 74.8825 251.108 71.1575 247.01 65.5875C242.912 59.9478 238.517 51.9408 233.824 41.5666V55.1436C233.824 60.9225 233.956 65.1349 234.221 67.7807C234.551 70.3568 235.047 72.4804 235.708 74.1514V74.7781H214.59V74.1514C215.251 72.4804 215.714 70.3568 215.978 67.7807C216.308 65.1349 216.474 60.9225 216.474 55.1436V21.3055C216.474 15.5265 216.308 11.349 215.978 8.77284C215.714 6.12707 215.251 3.96867 214.59 2.29765V1.67102H238.583C246.184 1.67102 251.868 3.2376 255.636 6.37076C259.403 9.50392 261.287 14.0992 261.287 20.1567C261.287 23.1506 260.428 26.04 258.709 28.8251C257.057 31.5405 254.677 33.9077 251.571 35.9269ZM234.419 4.38642C234.022 5.63968 233.824 12.8808 233.824 26.1097V40.9399C236.27 39.3386 238.285 36.832 239.872 33.4204C241.458 30.0087 242.251 25.9008 242.251 21.0966C242.251 16.5013 241.59 12.7415 240.268 9.81723C238.946 6.89295 236.997 5.08268 234.419 4.38642Z" fill="#FAFAFA"/>
<path d="M306.803 46.9974C309.513 59.1819 312.058 68.2332 314.437 74.1514V74.7781H291.733V74.1514C291.865 72.8982 291.931 71.7494 291.931 70.705C291.931 65.2045 291.039 57.2672 289.254 46.893C285.024 46.9626 281.224 47.2411 277.853 47.7285C277.72 59.0078 279.175 67.8155 282.215 74.1514V74.7781H264.666V74.4648C267.575 66.5274 271.441 52.1845 276.266 31.436L281.323 9.81723L278.943 1.8799V1.46214L298.97 1.67102C298.706 2.7154 298.574 3.93385 298.574 5.32637C298.574 7.13664 298.805 9.50391 299.268 12.4282C299.797 15.3525 300.689 19.5648 301.945 25.0653L306.803 46.9974ZM277.952 44.3864C281.191 44.8738 284.859 45.1523 288.957 45.2219C287.899 39.9304 287.172 36.4143 286.776 34.6736L281.918 13.1593C279.736 24.2298 278.414 34.6388 277.952 44.3864Z" fill="#FAFAFA"/>
</svg>
