<svg width="81" height="80" viewBox="0 0 81 80" fill="none" xmlns="http://www.w3.org/2000/svg">
<path d="M27.8761 10.7261C25.3161 8.16362 22.4323 5.94645 19.2979 4.13086C19.2877 11.4039 21.2025 18.5501 24.8477 24.8438C27.9802 26.6571 30.8621 28.8719 33.4204 31.4322C29.7847 25.1373 27.8723 17.9954 27.8761 10.7261Z" fill="white"/>
<path d="M55.1547 24.8438C58.8 18.5501 60.7147 11.4039 60.7045 4.13086C57.5695 5.94607 54.6852 8.16327 52.1249 10.7261C52.1308 17.9948 50.2209 25.1367 46.5875 31.4322C49.1442 28.8724 52.0243 26.6575 55.1547 24.8438Z" fill="white"/>
<path d="M52.1254 10.7285C52.1263 7.10646 51.6544 3.49981 50.7214 0C45.5715 5.13531 41.8722 11.5419 39.9993 18.5692C40.9315 22.0663 41.4035 25.6702 41.4033 29.2894C43.2833 22.2675 46.9816 15.8653 52.1254 10.7285Z" fill="white"/>
<path d="M61.4309 39.9943C68.4589 38.1211 74.8661 34.4221 80.0024 29.2727C76.5019 28.3402 72.8946 27.8687 69.272 27.8701C64.1345 33.013 57.7322 36.7111 50.7102 38.5917C54.3296 38.5903 57.9337 39.0618 61.4309 39.9943Z" fill="white"/>
<path d="M69.272 27.8712C71.8349 25.3111 74.0522 22.4269 75.8675 19.292C68.5944 19.2816 61.4481 21.1968 55.1549 24.843C53.3404 27.9744 51.1255 30.8561 48.5663 33.4153C54.8609 29.7796 62.0027 27.8673 69.272 27.8712Z" fill="white"/>
<path d="M55.1549 55.1534C61.4484 58.7986 68.5946 60.7132 75.8675 60.7029C74.0519 57.5687 71.8346 54.685 69.272 52.1251C62.0027 52.129 54.8609 50.2168 48.5663 46.5811C51.1255 49.1402 53.3404 52.0219 55.1549 55.1534Z" fill="white"/>
<path d="M80.0024 50.7138C74.867 45.5632 68.4594 41.864 61.4309 39.9922C57.9337 40.9246 54.3296 41.3961 50.7102 41.3947C57.7322 43.2753 64.1345 46.9734 69.272 52.1163C72.8946 52.1177 76.5019 51.6462 80.0024 50.7138Z" fill="white"/>
<path d="M40.0005 61.4247C41.8721 68.4538 45.571 74.8624 50.7212 79.9994C51.6536 76.4995 52.1251 72.8929 52.1238 69.2709C46.9806 64.1339 43.2828 57.7318 41.4031 50.71C41.4034 54.3273 40.9318 57.9292 40.0005 61.4247Z" fill="white"/>
<path d="M52.1249 69.2754C54.6848 71.8403 57.5691 74.0593 60.7045 75.8762C60.7147 68.6036 58.7999 61.4578 55.1547 55.1646C52.0239 53.3488 49.1437 51.1316 46.5875 48.5693C50.2209 54.8649 52.1308 62.0067 52.1249 69.2754Z" fill="white"/>
<path d="M24.8477 55.1547C21.2014 61.45 19.2866 68.5982 19.2979 75.8732C22.4322 74.0581 25.316 71.8414 27.8761 69.2793C27.8723 62.01 29.7847 54.8681 33.4204 48.5732C30.8617 51.1311 27.9798 53.3436 24.8477 55.1547Z" fill="white"/>
<path d="M27.8755 69.2641C27.8735 72.888 28.3455 76.4966 29.2795 79.9981C34.4296 74.8631 38.1285 68.4563 40.0002 61.4288C39.0668 57.9301 38.5948 54.3243 38.5962 50.7031C36.7159 57.7247 33.0181 64.1267 27.8755 69.2641Z" fill="white"/>
<path d="M18.5701 39.9922C11.5421 41.8642 5.13504 45.5634 0 50.7138C3.50051 51.6462 7.10777 52.1177 10.7304 52.1163C15.8674 46.9735 22.2692 43.2754 29.2908 41.3947C25.6714 41.3961 22.0673 40.9246 18.5701 39.9922Z" fill="white"/>
<path d="M10.73 52.1251C8.16695 54.6847 5.94962 57.5684 4.1344 60.7029C11.4074 60.7131 18.5535 58.7984 24.847 55.1534C26.6594 52.0215 28.873 49.1398 31.4316 46.5811C25.138 50.2158 17.9978 52.128 10.73 52.1251Z" fill="white"/>
<path d="M24.847 24.843C18.5539 21.1968 11.4076 19.2816 4.1344 19.292C5.94924 22.4272 8.16661 25.3114 10.73 27.8712C17.9978 27.8683 25.138 29.7806 31.4316 33.4153C28.873 30.8566 26.6594 27.9748 24.847 24.843Z" fill="white"/>
<path d="M10.7304 27.8701C7.10777 27.8687 3.50051 28.3402 0 29.2727C5.13556 34.4223 11.5424 38.1214 18.5701 39.9943C22.0673 39.0619 25.6714 38.5904 29.2908 38.5917C22.2692 36.711 15.8674 33.013 10.7304 27.8701Z" fill="white"/>
<path d="M40.0002 18.5692C38.1285 11.5417 34.4296 5.13495 29.2795 0C28.3458 3.49966 27.8738 7.10641 27.8755 10.7285C33.0181 15.8659 36.7159 22.2679 38.5962 29.2894C38.5953 25.6701 39.0673 22.0662 40.0002 18.5692Z" fill="white"/>
</svg>
