<svg width="230" height="48" viewBox="0 0 230 48" fill="none" xmlns="http://www.w3.org/2000/svg">
<path d="M16.7255 6.43569C15.1894 4.89819 13.4591 3.56788 11.5785 2.47852C11.5724 6.84237 12.7213 11.1301 14.9084 14.9064C16.7879 15.9943 18.5171 17.3233 20.0521 18.8594C17.8706 15.0825 16.7232 10.7973 16.7255 6.43569Z" fill="black"/>
<path d="M33.0931 14.9064C35.2803 11.1301 36.4291 6.84237 36.423 2.47852C34.542 3.56765 32.8114 4.89798 31.2752 6.43569C31.2787 10.7969 30.1328 15.0821 27.9527 18.8594C29.4867 17.3235 31.2148 15.9946 33.0931 14.9064Z" fill="black"/>
<path d="M31.2753 6.43712C31.2759 4.2639 30.9928 2.0999 30.433 0C27.343 3.08121 25.1234 6.92518 23.9996 11.1416C24.559 13.2399 24.8422 15.4022 24.8421 17.5738C25.9701 13.3606 28.1891 9.51923 31.2753 6.43712Z" fill="black"/>
<path d="M36.8587 23.9972C41.0755 22.8733 44.9199 20.6539 48.0017 17.5642C45.9014 17.0047 43.737 16.7218 41.5634 16.7227C38.4809 19.8084 34.6395 22.0273 30.4262 23.1556C32.5979 23.1548 34.7604 23.4377 36.8587 23.9972Z" fill="black"/>
<path d="M41.5633 16.7208C43.1011 15.1847 44.4315 13.4542 45.5207 11.5733C41.1568 11.567 36.869 12.7161 33.0931 14.9038C32.0043 16.7827 30.6754 18.5118 29.1399 20.0473C32.9167 17.8658 37.2018 16.7185 41.5633 16.7208Z" fill="black"/>
<path d="M33.0931 33.0936C36.8692 35.2807 41.1569 36.4296 45.5207 36.4234C44.4313 34.5428 43.1009 32.8126 41.5633 31.2766C37.2018 31.279 32.9167 30.1316 29.1399 27.9502C30.6754 29.4857 32.0043 31.2147 33.0931 33.0936Z" fill="black"/>
<path d="M48.0017 30.4281C44.9204 27.3377 41.0758 25.1182 36.8587 23.9951C34.7604 24.5546 32.5979 24.8375 30.4262 24.8366C34.6395 25.965 38.4809 28.1839 41.5634 31.2696C43.737 31.2705 45.9014 30.9876 48.0017 30.4281Z" fill="black"/>
<path d="M24.0004 36.8556C25.1234 41.0731 27.3427 44.9183 30.4328 48.0005C30.9923 45.9006 31.2752 43.7366 31.2744 41.5634C28.1885 38.4812 25.9698 34.6399 24.842 30.4268C24.8421 32.5972 24.5592 34.7584 24.0004 36.8556Z" fill="black"/>
<path d="M31.2752 41.5663C32.8111 43.1052 34.5418 44.4367 36.423 45.5268C36.4291 41.1632 35.2802 36.8757 33.0931 33.0998C31.2146 32.0102 29.4865 30.6799 27.9527 29.1426C30.1328 32.9199 31.2787 37.2051 31.2752 41.5663Z" fill="black"/>
<path d="M14.9084 33.0925C12.7206 36.8696 11.5717 41.1586 11.5785 45.5236C13.4591 44.4346 15.1894 43.1045 16.7255 41.5673C16.7232 37.2057 17.8706 32.9205 20.0521 29.1436C18.5169 30.6783 16.7877 32.0058 14.9084 33.0925Z" fill="black"/>
<path d="M16.7254 41.5595C16.7241 43.7338 17.0073 45.899 17.5678 47.9999C20.6578 44.9189 22.8772 41.0748 24.0002 36.8583C23.4402 34.759 23.157 32.5956 23.1578 30.4229C22.0296 34.6358 19.811 38.477 16.7254 41.5595Z" fill="black"/>
<path d="M11.1421 23.9951C6.9253 25.1184 3.08104 27.3379 0 30.4281C2.10032 30.9876 4.26469 31.2705 6.43825 31.2696C9.52047 28.1839 13.3616 25.9651 17.5746 24.8366C15.4029 24.8374 13.2405 24.5545 11.1421 23.9951Z" fill="black"/>
<path d="M6.438 31.2766C4.90017 32.8124 3.56976 34.5426 2.48062 36.4234C6.84442 36.4294 11.1321 35.2806 14.9083 33.0936C15.9957 31.2145 17.3238 29.4854 18.859 27.9502C15.0829 30.131 10.7987 31.2784 6.438 31.2766Z" fill="black"/>
<path d="M14.9083 14.9038C11.1324 12.7161 6.84455 11.567 2.48062 11.5733C3.56953 13.4544 4.89996 15.1849 6.438 16.7208C10.7987 16.7191 15.0829 17.8664 18.859 20.0473C17.3238 18.512 15.9957 16.7829 14.9083 14.9038Z" fill="black"/>
<path d="M6.43825 16.7227C4.26469 16.7218 2.10032 17.0047 0 17.5642C3.08136 20.654 6.92549 22.8735 11.1421 23.9972C13.2405 23.4378 15.4029 23.1549 17.5746 23.1556C13.3616 22.0272 9.52047 19.8084 6.43825 16.7227Z" fill="black"/>
<path d="M24.0002 11.1416C22.8772 6.92507 20.6578 3.08099 17.5678 0C17.0075 2.09981 16.7243 4.26387 16.7254 6.43712C19.811 9.51959 22.0296 13.3608 23.1578 17.5738C23.1573 15.4022 23.4405 13.2398 24.0002 11.1416Z" fill="black"/>
<path d="M77.6309 42.1201C75.1592 42.1201 72.879 41.389 70.7902 39.9269C68.7362 38.4648 67.0826 36.3412 65.8294 33.5561C64.6109 30.7711 64.0017 27.4639 64.0017 23.6345C64.0017 20.0139 64.6109 16.7241 65.8294 13.765C67.0478 10.7711 68.8581 8.40383 71.2602 6.66319C73.6623 4.88773 76.5343 4 79.8764 4C82.9051 4 85.7945 4.59182 88.5448 5.77546L84.6805 20.9713H84.4717C82.8703 18.4299 81.2167 16.0627 79.5108 13.8695C77.8398 11.6762 75.8381 9.23934 73.5056 6.55874C72.8442 9.48303 72.5134 12.4421 72.5134 15.436C72.5134 18.8129 72.9834 21.9112 73.9234 24.7311C74.8633 27.5509 76.3951 29.8312 78.5187 31.5718C80.6422 33.2776 83.375 34.1306 86.7171 34.1306C87.5526 34.1306 88.4055 34.0783 89.2758 33.9739L89.4325 34.1828C88.9451 35.4708 88.1444 36.7241 87.0304 37.9426C85.9164 39.161 84.5413 40.1706 82.9051 40.9713C81.3037 41.7372 79.5456 42.1201 77.6309 42.1201Z" fill="black"/>
<path d="M117.372 5.14883C116.989 6.01915 116.728 7.18538 116.589 8.64752C116.45 10.1097 116.38 12.8077 116.38 16.7415V29.483C116.38 33.4169 116.45 36.1149 116.589 37.577C116.728 39.0392 116.989 40.2054 117.372 41.0757V41.389H106.25V41.0757C106.632 40.2054 106.894 39.0392 107.033 37.577C107.172 36.1149 107.242 33.4169 107.242 29.483V23.1645C105.049 23.0252 102.942 22.9208 100.923 22.8512V29.483C100.923 33.4169 100.993 36.1149 101.132 37.577C101.271 39.0392 101.532 40.2054 101.915 41.0757V41.389H90.7926V41.0757C91.1756 40.2054 91.4367 39.0392 91.5759 37.577C91.7152 36.1149 91.7848 33.4169 91.7848 29.483V16.7415C91.7848 12.8077 91.7152 10.1097 91.5759 8.64752C91.4367 7.18538 91.1756 6.01915 90.7926 5.14883V4.83551H101.915V5.14883C101.532 6.01915 101.271 7.18538 101.132 8.64752C100.993 10.1097 100.923 12.8077 100.923 16.7415V21.8068C102.942 21.7372 105.049 21.6327 107.242 21.4935V16.7415C107.242 12.8077 107.172 10.1097 107.033 8.64752C106.894 7.18538 106.632 6.01915 106.25 5.14883V4.83551H117.372V5.14883Z" fill="black"/>
<path d="M141.503 27.4987C142.93 33.591 144.271 38.1166 145.524 41.0757V41.389H133.566V41.0757C133.635 40.4491 133.67 39.8747 133.67 39.3525C133.67 36.6023 133.2 32.6336 132.26 27.4465C130.032 27.4813 128.03 27.6205 126.255 27.8642C126.185 33.5039 126.951 37.9077 128.553 41.0757V41.389H119.31V41.2324C120.841 37.2637 122.878 30.0923 125.419 19.718L128.083 8.90862L126.829 4.93995V4.73107L137.378 4.83551C137.238 5.3577 137.169 5.96693 137.169 6.66319C137.169 7.56832 137.291 8.75196 137.534 10.2141C137.813 11.6762 138.283 13.7824 138.944 16.5326L141.503 27.4987ZM126.307 26.1932C128.013 26.4369 129.945 26.5762 132.103 26.611C131.546 23.9652 131.163 22.2071 130.955 21.3368L128.396 10.5796C127.247 16.1149 126.551 21.3194 126.307 26.1932Z" fill="black"/>
<path d="M157.579 29.483C157.579 33.4169 157.649 36.1149 157.788 37.577C157.927 39.0392 158.188 40.2054 158.571 41.0757V41.389H147.449V41.0757C147.832 40.2054 148.093 39.0392 148.232 37.577C148.371 36.1149 148.441 33.4169 148.441 29.483V16.7415C148.441 12.8077 148.371 10.1097 148.232 8.64752C148.093 7.18538 147.832 6.01915 147.449 5.14883V4.83551H158.571V5.14883C158.188 6.01915 157.927 7.18538 157.788 8.64752C157.649 10.1097 157.579 12.8077 157.579 16.7415V29.483ZM164.629 14.7572C166.961 21.5805 168.65 26.4717 169.694 29.4308C170.773 32.3899 171.678 34.7398 172.409 36.4804C173.175 38.2211 174.272 40.5187 175.699 43.3734L175.229 43.8433C172.096 43.3211 169.172 41.6675 166.456 38.8825C163.776 36.0975 161.13 31.3629 158.519 24.6789V24.3655C160.712 19.3873 162.279 15.2968 163.219 12.094C164.194 8.89121 164.681 6.57615 164.681 5.14883V4.83551H174.864V5.14883C172.148 7.48129 168.737 10.6841 164.629 14.7572Z" fill="black"/>
<path d="M196.504 21.9634C200.472 32.5814 203.223 39.7876 204.754 43.5822L204.493 44C202.962 43.8956 201.378 43.356 199.741 42.3812C198.14 41.4413 196.26 39.5788 194.102 36.7937C191.943 33.9739 189.628 29.9704 187.156 24.7833V31.5718C187.156 34.4613 187.226 36.5675 187.365 37.8903C187.539 39.1784 187.801 40.2402 188.149 41.0757V41.389H177.026V41.0757C177.374 40.2402 177.618 39.1784 177.757 37.8903C177.931 36.5675 178.018 34.4613 178.018 31.5718V14.6527C178.018 11.7633 177.931 9.6745 177.757 8.38642C177.618 7.06353 177.374 5.98433 177.026 5.14883V4.83551H189.663C193.666 4.83551 196.66 5.6188 198.645 7.18538C200.629 8.75196 201.621 11.0496 201.621 14.0783C201.621 15.5753 201.169 17.02 200.264 18.4125C199.393 19.7702 198.14 20.9539 196.504 21.9634ZM187.47 6.19321C187.261 6.81984 187.156 10.4404 187.156 17.0548V24.47C188.445 23.6693 189.506 22.416 190.342 20.7102C191.177 19.0044 191.595 16.9504 191.595 14.5483C191.595 12.2507 191.247 10.3708 190.551 8.90862C189.854 7.44648 188.827 6.54134 187.47 6.19321Z" fill="black"/>
<path d="M225.594 27.4987C227.022 33.591 228.362 38.1166 229.615 41.0757V41.389H217.657V41.0757C217.727 40.4491 217.761 39.8747 217.761 39.3525C217.761 36.6023 217.292 32.6336 216.352 27.4465C214.124 27.4813 212.122 27.6205 210.346 27.8642C210.277 33.5039 211.043 37.9077 212.644 41.0757V41.389H203.401V41.2324C204.933 37.2637 206.969 30.0923 209.511 19.718L212.174 8.90862L210.921 4.93995V4.73107L221.469 4.83551C221.33 5.3577 221.26 5.96693 221.26 6.66319C221.26 7.56832 221.382 8.75196 221.626 10.2141C221.904 11.6762 222.374 13.7824 223.036 16.5326L225.594 27.4987ZM210.399 26.1932C212.104 26.4369 214.036 26.5762 216.195 26.611C215.638 23.9652 215.255 22.2071 215.046 21.3368L212.487 10.5796C211.339 16.1149 210.642 21.3194 210.399 26.1932Z" fill="black"/>
</svg>
