<svg width="166" height="40" viewBox="0 0 166 40" fill="none" xmlns="http://www.w3.org/2000/svg">
<path d="M13.6292 38.1201C11.1575 38.1201 8.87729 37.389 6.78851 35.9269C4.73455 34.4648 3.08094 32.3412 1.82768 29.5561C0.609225 26.7711 0 23.4639 0 19.6345C0 16.0139 0.609225 12.7241 1.82768 9.76501C3.04613 6.77111 4.8564 4.40383 7.25849 2.66319C9.66058 0.887728 12.5326 0 15.8747 0C18.9034 0 21.7929 0.591819 24.5431 1.77546L20.6789 16.9713H20.47C18.8686 14.4299 17.215 12.0627 15.5091 9.86945C13.8381 7.67624 11.8364 5.23934 9.50392 2.55874C8.84247 5.48303 8.51175 8.44213 8.51175 11.436C8.51175 14.8129 8.98172 17.9112 9.92167 20.7311C10.8616 23.5509 12.3934 25.8312 14.517 27.5718C16.6406 29.2776 19.3734 30.1306 22.7154 30.1306C23.5509 30.1306 24.4038 30.0783 25.2742 29.9739L25.4308 30.1828C24.9434 31.4708 24.1427 32.7241 23.0287 33.9426C21.9147 35.161 20.5396 36.1706 18.9034 36.9713C17.302 37.7372 15.544 38.1201 13.6292 38.1201Z" fill="#FAFAFA"/>
<path d="M53.3706 1.14883C52.9877 2.01915 52.7266 3.18538 52.5873 4.64752C52.4481 6.10966 52.3784 8.80766 52.3784 12.7415V25.483C52.3784 29.4169 52.4481 32.1149 52.5873 33.577C52.7266 35.0392 52.9877 36.2054 53.3706 37.0757V37.389H42.2479V37.0757C42.6308 36.2054 42.8919 35.0392 43.0312 33.577C43.1704 32.1149 43.24 29.4169 43.24 25.483V19.1645C41.0468 19.0252 38.9407 18.9208 36.9215 18.8512V25.483C36.9215 29.4169 36.9911 32.1149 37.1304 33.577C37.2696 35.0392 37.5307 36.2054 37.9137 37.0757V37.389H26.791V37.0757C27.1739 36.2054 27.435 35.0392 27.5742 33.577C27.7135 32.1149 27.7831 29.4169 27.7831 25.483V12.7415C27.7831 8.80766 27.7135 6.10966 27.5742 4.64752C27.435 3.18538 27.1739 2.01915 26.791 1.14883V0.835508H37.9137V1.14883C37.5307 2.01915 37.2696 3.18538 37.1304 4.64752C36.9911 6.10966 36.9215 8.80766 36.9215 12.7415V17.8068C38.9407 17.7372 41.0468 17.6327 43.24 17.4935V12.7415C43.24 8.80766 43.1704 6.10966 43.0312 4.64752C42.8919 3.18538 42.6308 2.01915 42.2479 1.14883V0.835508H53.3706V1.14883Z" fill="#FAFAFA"/>
<path d="M77.5012 23.4987C78.9286 29.591 80.2689 34.1166 81.5221 37.0757V37.389H69.5639V37.0757C69.6335 36.4491 69.6683 35.8747 69.6683 35.3525C69.6683 32.6023 69.1984 28.6336 68.2584 23.4465C66.0304 23.4813 64.0286 23.6205 62.2532 23.8642C62.1836 29.5039 62.9494 33.9077 64.5508 37.0757V37.389H55.308V37.2324C56.8398 33.2637 58.8763 26.0923 61.4177 15.718L64.0809 4.90862L62.8276 0.939948V0.731071L73.3759 0.835508C73.2367 1.3577 73.167 1.96693 73.167 2.66319C73.167 3.56832 73.2889 4.75196 73.5326 6.2141C73.8111 7.67624 74.281 9.78242 74.9425 12.5326L77.5012 23.4987ZM62.3054 22.1932C64.0112 22.4369 65.9434 22.5762 68.1018 22.611C67.5447 19.9652 67.1618 18.2071 66.9529 17.3368L64.3942 6.57963C63.2453 12.1149 62.5491 17.3194 62.3054 22.1932Z" fill="#FAFAFA"/>
<path d="M93.5774 25.483C93.5774 29.4169 93.6471 32.1149 93.7863 33.577C93.9256 35.0392 94.1867 36.2054 94.5696 37.0757V37.389H83.4469V37.0757C83.8298 36.2054 84.0909 35.0392 84.2302 33.577C84.3694 32.1149 84.4391 29.4169 84.4391 25.483V12.7415C84.4391 8.80766 84.3694 6.10966 84.2302 4.64752C84.0909 3.18538 83.8298 2.01915 83.4469 1.14883V0.835508H94.5696V1.14883C94.1867 2.01915 93.9256 3.18538 93.7863 4.64752C93.6471 6.10966 93.5774 8.80766 93.5774 12.7415V25.483ZM100.627 10.7572C102.96 17.5805 104.648 22.4717 105.692 25.4308C106.772 28.3899 107.677 30.7398 108.408 32.4804C109.174 34.2211 110.27 36.5187 111.698 39.3734L111.228 39.8433C108.094 39.3211 105.17 37.6675 102.455 34.8825C99.7741 32.0975 97.1283 27.3629 94.5174 20.6789V20.3655C96.7106 15.3873 98.2772 11.2968 99.2171 8.09399C100.192 4.89121 100.679 2.57615 100.679 1.14883V0.835508H110.862V1.14883C108.147 3.48129 104.735 6.68407 100.627 10.7572Z" fill="#FAFAFA"/>
<path d="M132.502 17.9634C136.471 28.5814 139.221 35.7876 140.753 39.5822L140.492 40C138.96 39.8956 137.376 39.356 135.74 38.3812C134.138 37.4413 132.258 35.5788 130.1 32.7937C127.942 29.9739 125.627 25.9704 123.155 20.7833V27.5718C123.155 30.4613 123.224 32.5675 123.364 33.8903C123.538 35.1784 123.799 36.2402 124.147 37.0757V37.389H113.024V37.0757C113.372 36.2402 113.616 35.1784 113.755 33.8903C113.929 32.5675 114.016 30.4613 114.016 27.5718V10.6527C114.016 7.76327 113.929 5.6745 113.755 4.38642C113.616 3.06353 113.372 1.98433 113.024 1.14883V0.835508H125.661C129.665 0.835508 132.659 1.6188 134.643 3.18538C136.627 4.75196 137.62 7.04961 137.62 10.0783C137.62 11.5753 137.167 13.02 136.262 14.4125C135.392 15.7702 134.138 16.9539 132.502 17.9634ZM123.468 2.19321C123.259 2.81984 123.155 6.44038 123.155 13.0548V20.47C124.443 19.6693 125.505 18.416 126.34 16.7102C127.176 15.0044 127.593 12.9504 127.593 10.5483C127.593 8.25065 127.245 6.37076 126.549 4.90862C125.853 3.44648 124.826 2.54134 123.468 2.19321Z" fill="#FAFAFA"/>
<path d="M161.593 23.4987C163.02 29.591 164.36 34.1166 165.614 37.0757V37.389H153.655V37.0757C153.725 36.4491 153.76 35.8747 153.76 35.3525C153.76 32.6023 153.29 28.6336 152.35 23.4465C150.122 23.4813 148.12 23.6205 146.345 23.8642C146.275 29.5039 147.041 33.9077 148.642 37.0757V37.389H139.399V37.2324C140.931 33.2637 142.968 26.0923 145.509 15.718L148.172 4.90862L146.919 0.939948V0.731071L157.467 0.835508C157.328 1.3577 157.258 1.96693 157.258 2.66319C157.258 3.56832 157.38 4.75196 157.624 6.2141C157.903 7.67624 158.373 9.78242 159.034 12.5326L161.593 23.4987ZM146.397 22.1932C148.103 22.4369 150.035 22.5762 152.193 22.611C151.636 19.9652 151.253 18.2071 151.044 17.3368L148.486 6.57963C147.337 12.1149 146.641 17.3194 146.397 22.1932Z" fill="#FAFAFA"/>
</svg>
