<svg width="116" height="24" viewBox="0 0 116 24" fill="none" xmlns="http://www.w3.org/2000/svg">
<path d="M8.96039 3.21799C8.19237 2.44923 7.32722 1.78408 6.38691 1.2394C6.38386 3.42133 6.95828 5.5652 8.05186 7.45332C8.9916 7.99729 9.8562 8.66176 10.6237 9.42984C9.53296 7.54137 8.95926 5.39879 8.96039 3.21799Z" fill="#FFFBEB"/>
<path d="M17.1442 7.45332C18.2378 5.5652 18.8122 3.42133 18.8091 1.2394C17.8686 1.78397 17.0033 2.44913 16.2352 3.21799C16.237 5.3986 15.664 7.54117 14.574 9.42984C15.341 8.6619 16.205 7.99744 17.1442 7.45332Z" fill="#FFFBEB"/>
<path d="M16.2352 3.21799C16.2355 2.13137 16.094 1.04995 15.8141 0C14.2691 1.5406 13.1594 3.46259 12.5975 5.57079C12.8772 6.61994 13.0188 7.70109 13.0187 8.78687C13.5827 6.68027 14.6921 4.75904 16.2352 3.21799Z" fill="#FFFBEB"/>
<path d="M19.027 11.9984C21.1354 11.4364 23.0576 10.3267 24.5985 8.78189C23.5483 8.50216 22.4661 8.36071 21.3793 8.36113C19.8381 9.90401 17.9174 11.0134 15.8108 11.5776C16.8966 11.5772 17.9778 11.7187 19.027 11.9984Z" fill="#FFFBEB"/>
<path d="M21.3793 8.36113C22.1482 7.59308 22.8134 6.72733 23.358 5.78686C21.176 5.78373 19.0321 6.35829 17.1442 7.45215C16.5998 8.39159 15.9354 9.2561 15.1676 10.0239C17.056 8.93313 19.1986 8.35995 21.3793 8.36113Z" fill="#FFFBEB"/>
<path d="M17.1442 16.5466C19.0322 17.6402 21.1761 18.2146 23.358 18.2115C22.8133 17.2712 22.1481 16.4061 21.3793 15.6381C19.1985 15.6393 17.056 15.0656 15.1676 13.9749C15.9354 14.7426 16.5998 15.6071 17.1442 16.5466Z" fill="#FFFBEB"/>
<path d="M24.5985 15.2143C23.0578 13.6691 21.1355 12.5599 19.027 11.9984C17.9778 12.2781 16.8966 12.419 15.8108 12.4185C17.9174 12.9827 19.8381 14.0922 21.3793 15.635C22.4661 15.6355 23.5483 15.494 24.5985 15.2143Z" fill="#FFFBEB"/>
<path d="M12.5978 18.4276C13.1593 20.5363 14.269 22.4589 15.8141 24C16.0938 22.95 16.2352 21.868 16.2348 20.7814C14.6919 19.2403 13.5825 17.3197 13.0186 15.2131C13.0187 16.2983 12.8772 17.3789 12.5978 18.4276Z" fill="#FFFBEB"/>
<path d="M16.2352 20.783C17.0032 21.5524 17.8685 22.2181 18.8091 22.7632C18.8122 20.5814 18.2378 18.4377 17.1442 16.5497C16.2049 16.0049 15.3409 15.3398 14.574 14.5711C15.664 16.4598 16.237 18.6023 16.2352 20.783Z" fill="#FFFBEB"/>
<path d="M8.05187 16.5464C6.95795 18.435 6.38351 20.5795 6.38691 22.762C7.32722 22.2175 8.19236 21.5524 8.9604 20.7838C8.95926 18.603 9.53296 16.4604 10.6237 14.572C9.85608 15.3393 8.99148 16.0031 8.05187 16.5464Z" fill="#FFFBEB"/>
<path d="M8.96033 20.7795C8.95972 21.8667 9.10132 22.9493 9.38152 23.9997C10.9266 22.4592 12.0362 20.5372 12.5978 18.4289C12.3177 17.3793 12.1761 16.2976 12.1766 15.2112C11.6125 17.3177 10.5031 19.2383 8.96033 20.7795Z" fill="#FFFBEB"/>
<path d="M6.16871 11.9978C4.0603 12.5594 2.13818 13.6692 0.597656 15.2143C1.64782 15.494 2.73 15.6355 3.81678 15.635C5.35789 14.0922 7.27845 12.9827 9.38494 12.4185C8.29912 12.4189 7.21789 12.2775 6.16871 11.9978Z" fill="#FFFBEB"/>
<path d="M3.81665 15.6381C3.04774 16.406 2.38253 17.2711 1.83797 18.2115C4.01986 18.2145 6.1638 17.6399 8.05187 16.5464C8.59559 15.6069 9.25957 14.7425 10.0272 13.9749C8.13909 15.0653 5.997 15.639 3.81665 15.6381Z" fill="#FFFBEB"/>
<path d="M8.05178 7.45215C6.16383 6.35829 4.01993 5.78373 1.83797 5.78686C2.38242 6.72742 3.04763 7.59269 3.81665 8.36063C5.997 8.35977 8.13909 8.93343 10.0272 10.0239C9.25957 9.25624 8.5955 8.3917 8.05178 7.45215Z" fill="#FFFBEB"/>
<path d="M3.81665 8.36063C2.72987 8.36021 1.64782 8.50216 0.597656 8.78189C2.13833 10.3268 4.0604 11.4359 6.16871 11.9978C7.21789 11.7181 8.29912 11.5772 9.38494 11.5776C7.27845 11.0134 5.35776 9.9035 3.81665 8.36063Z" fill="#FFFBEB"/>
<path d="M12.5975 5.57079C12.0359 3.46253 10.9266 1.54049 9.38152 0C9.10141 1.0499 8.95988 2.13136 8.96039 3.21799C10.5032 4.75922 11.6125 6.6804 12.1766 8.78687C12.1763 7.70107 12.3176 6.61989 12.5975 5.57079Z" fill="#FFFBEB"/>
<path d="M39.4131 21.06C38.1772 21.06 37.0371 20.6945 35.9927 19.9634C34.9657 19.2324 34.1389 18.1706 33.5123 16.7781C32.9031 15.3855 32.5985 13.7319 32.5985 11.8172C32.5985 10.007 32.9031 8.36205 33.5123 6.8825C34.1215 5.38555 35.0267 4.20191 36.2277 3.33159C37.4287 2.44386 38.8648 2 40.5358 2C42.0501 2 43.4949 2.29591 44.87 2.88773L42.9379 10.4856H42.8334C42.0327 9.21496 41.2059 8.03132 40.353 6.93472C39.5175 5.83811 38.5166 4.61966 37.3504 3.27937C37.0197 4.74151 36.8543 6.22106 36.8543 7.71801C36.8543 9.40643 37.0893 10.9556 37.5593 12.3655C38.0293 13.7754 38.7952 14.9156 39.8569 15.7859C40.9187 16.6388 42.2851 17.0653 43.9562 17.0653C44.3739 17.0653 44.8004 17.0392 45.2355 16.9869L45.3139 17.0914C45.0702 17.7354 44.6698 18.362 44.1128 18.9713C43.5558 19.5805 42.8683 20.0853 42.0502 20.4856C41.2495 20.8686 40.3704 21.06 39.4131 21.06Z" fill="#FFFBEB"/>
<path d="M59.2837 2.57441C59.0923 3.00957 58.9617 3.59268 58.8921 4.32375C58.8225 5.05482 58.7877 6.40382 58.7877 8.37075V14.7415C58.7877 16.7084 58.8225 18.0574 58.8921 18.7885C58.9617 19.5196 59.0923 20.1027 59.2837 20.5378V20.6945H53.7224V20.5378C53.9139 20.1027 54.0444 19.5196 54.114 18.7885C54.1837 18.0574 54.2185 16.7084 54.2185 14.7415V11.5822C53.1219 11.5126 52.0688 11.4604 51.0592 11.4256V14.7415C51.0592 16.7084 51.094 18.0574 51.1636 18.7885C51.2333 19.5196 51.3638 20.1027 51.5553 20.5378V20.6945H45.9939V20.5378C46.1854 20.1027 46.3159 19.5196 46.3856 18.7885C46.4552 18.0574 46.49 16.7084 46.49 14.7415V8.37075C46.49 6.40382 46.4552 5.05482 46.3856 4.32375C46.3159 3.59268 46.1854 3.00957 45.9939 2.57441V2.41775H51.5553V2.57441C51.3638 3.00957 51.2333 3.59268 51.1636 4.32375C51.094 5.05482 51.0592 6.40382 51.0592 8.37075V10.9034C52.0688 10.8686 53.1219 10.8164 54.2185 10.7467V8.37075C54.2185 6.40382 54.1837 5.05482 54.114 4.32375C54.0444 3.59268 53.9139 3.00957 53.7224 2.57441V2.41775H59.2837V2.57441Z" fill="#FFFBEB"/>
<path d="M71.349 13.7493C72.0627 16.7955 72.7328 19.0583 73.3595 20.5378V20.6945H67.3804V20.5378C67.4152 20.2245 67.4326 19.9373 67.4326 19.6762C67.4326 18.3011 67.1976 16.3168 66.7276 13.7232C65.6136 13.7406 64.6128 13.8103 63.725 13.9321C63.6902 16.7519 64.0732 18.9539 64.8738 20.5378V20.6945H60.2524V20.6162C61.0183 18.6318 62.0366 15.0461 63.3073 9.859L64.6389 4.4543L64.0122 2.46997V2.36553L69.2864 2.41775C69.2168 2.67885 69.1819 2.98346 69.1819 3.33159C69.1819 3.78416 69.2429 4.37597 69.3647 5.10705C69.504 5.83812 69.7389 6.8912 70.0697 8.26631L71.349 13.7493ZM63.7511 13.0966C64.604 13.2184 65.5701 13.2881 66.6493 13.3055C66.3708 11.9826 66.1793 11.1036 66.0749 10.6684L64.7955 5.28981C64.2211 8.05743 63.873 10.6597 63.7511 13.0966Z" fill="#FFFBEB"/>
<path d="M79.3871 14.7415C79.3871 16.7084 79.422 18.0574 79.4916 18.7885C79.5612 19.5196 79.6917 20.1027 79.8832 20.5378V20.6945H74.3219V20.5378C74.5133 20.1027 74.6439 19.5196 74.7135 18.7885C74.7831 18.0574 74.8179 16.7084 74.8179 14.7415V8.37075C74.8179 6.40382 74.7831 5.05482 74.7135 4.32375C74.6439 3.59268 74.5133 3.00957 74.3219 2.57441V2.41775H79.8832V2.57441C79.6917 3.00957 79.5612 3.59268 79.4916 4.32375C79.422 5.05482 79.3871 6.40382 79.3871 8.37075V14.7415ZM82.9119 7.37858C84.0782 10.7902 84.9224 13.2358 85.4446 14.7154C85.9842 16.1949 86.4367 17.3699 86.8023 18.2402C87.1852 19.1105 87.7335 20.2593 88.4472 21.6867L88.2122 21.9216C86.6456 21.6606 85.1835 20.8337 83.8258 19.4412C82.4855 18.0487 81.1626 15.6814 79.8571 12.3394V12.1828C80.9537 9.69364 81.737 7.64838 82.207 6.04699C82.6944 4.4456 82.938 3.28807 82.938 2.57441V2.41775H88.0294V2.57441C86.6717 3.74064 84.9659 5.34203 82.9119 7.37858Z" fill="#FFFBEB"/>
<path d="M98.8494 10.9817C100.834 16.2907 102.209 19.8938 102.975 21.7911L102.844 22C102.078 21.9478 101.286 21.678 100.468 21.1906C99.6675 20.7206 98.7276 19.7894 97.6484 18.3969C96.5692 16.9869 95.4117 14.9852 94.1758 12.3916V15.7859C94.1758 17.2306 94.2106 18.2837 94.2802 18.9452C94.3673 19.5892 94.4978 20.1201 94.6719 20.5378V20.6945H89.1105V20.5378C89.2846 20.1201 89.4064 19.5892 89.4761 18.9452C89.5631 18.2837 89.6066 17.2306 89.6066 15.7859V7.32636C89.6066 5.88163 89.5631 4.83724 89.4761 4.19321C89.4064 3.53176 89.2846 2.99216 89.1105 2.57441V2.41775H95.4291C97.4308 2.41775 98.9278 2.8094 99.9199 3.59269C100.912 4.37598 101.408 5.5248 101.408 7.03916C101.408 7.78763 101.182 8.51 100.729 9.20626C100.294 9.88511 99.6675 10.4769 98.8494 10.9817ZM94.3325 3.0966C94.228 3.40992 94.1758 5.22019 94.1758 8.52741V12.235C94.8198 11.8346 95.3507 11.208 95.7685 10.3551C96.1862 9.50217 96.3951 8.47519 96.3951 7.27414C96.3951 6.12532 96.2211 5.18537 95.8729 4.4543C95.5248 3.72323 95.0113 3.27067 94.3325 3.0966Z" fill="#FFFBEB"/>
<path d="M113.395 13.7493C114.108 16.7955 114.779 19.0583 115.405 20.5378V20.6945H109.426V20.5378C109.461 20.2245 109.478 19.9373 109.478 19.6762C109.478 18.3011 109.243 16.3168 108.773 13.7232C107.659 13.7406 106.658 13.8103 105.771 13.9321C105.736 16.7519 106.119 18.9539 106.92 20.5378V20.6945H102.298V20.6162C103.064 18.6318 104.082 15.0461 105.353 9.859L106.685 4.4543L106.058 2.46997V2.36553L111.332 2.41775C111.262 2.67885 111.228 2.98346 111.228 3.33159C111.228 3.78416 111.289 4.37597 111.41 5.10705C111.55 5.83812 111.785 6.8912 112.115 8.26631L113.395 13.7493ZM105.797 13.0966C106.65 13.2184 107.616 13.2881 108.695 13.3055C108.416 11.9826 108.225 11.1036 108.121 10.6684L106.841 5.28981C106.267 8.05743 105.919 10.6597 105.797 13.0966Z" fill="#FFFBEB"/>
</svg>
