<svg width="536" height="39" viewBox="0 0 536 39" fill="none" xmlns="http://www.w3.org/2000/svg">
<rect width="536" height="39" rx="4" fill="#363636"/>
<path d="M19.52 16.432V22.864C19.52 23.216 19.584 24 18.768 24C18.112 24 18 23.456 18 22.928V22.672L16.752 23.488C16.256 23.808 15.84 24 15.424 24H14.288C13.856 24 13.376 23.872 12.864 23.44C12.176 22.848 12.192 22.192 12.16 21.36L12 16.528C11.984 15.968 12.064 15.376 12.768 15.376C13.424 15.376 13.504 15.936 13.52 16.432L13.68 21.152C13.696 21.504 13.712 21.92 13.84 22.144C13.968 22.368 14.368 22.464 14.736 22.464H15.248C15.424 22.464 15.584 22.416 15.728 22.32L17.984 20.896V16.432C17.984 15.904 18.096 15.376 18.752 15.376C19.408 15.376 19.52 15.904 19.52 16.432ZM28.4756 16.912H26.1396C25.8196 16.912 25.2756 16.848 25.2756 17.344C25.2756 17.6 25.4676 17.696 25.6916 17.792L29.5316 19.536C30.5236 19.984 31.0356 20.608 31.0356 21.712C31.0356 23.264 29.9796 24 28.5076 24H26.1396C25.3396 24 24.7956 23.968 24.2196 23.52C23.9316 23.296 23.5156 23.008 23.5156 22.624C23.5156 22.192 23.8836 21.856 24.3156 21.856C24.5556 21.856 24.7316 21.936 24.9076 22.128C25.1796 22.432 25.6596 22.464 26.1396 22.464H28.2196C28.7636 22.464 29.4996 22.512 29.4996 21.616C29.4996 21.248 29.0516 21.008 28.6996 20.848L25.0836 19.2C24.2356 18.816 23.7396 18.32 23.7396 17.328C23.7396 16.112 24.6996 15.376 25.8516 15.376H28.4756C29.3236 15.376 29.6756 15.424 30.2516 15.904C30.5396 16.144 30.8596 16.336 30.8596 16.768C30.8596 17.2 30.4916 17.536 30.0756 17.536C29.7876 17.536 29.6116 17.424 29.4196 17.216C29.1636 16.944 28.8916 16.912 28.4756 16.912ZM41.4953 24H37.8473C37.2073 24 36.9513 24 36.4713 23.584L35.8153 23.008C35.2073 22.464 35.0312 22.112 35.0312 21.28V18.32C35.0312 17.504 35.1432 17.024 35.7833 16.48L36.3273 16.016C37.0473 15.392 37.3993 15.376 38.0233 15.376H39.4313C40.1833 15.376 40.5353 15.456 41.1273 15.936L41.7513 16.432C42.4553 16.992 42.5513 17.584 42.5513 18.432V19.664C42.5513 20.544 42.4073 20.8 41.4953 20.8H36.5673V21.312C36.5673 21.456 36.6793 21.648 36.7913 21.76L37.1753 22.176C37.3833 22.4 37.6873 22.464 38.1993 22.464H41.4953C42.0073 22.464 42.5513 22.576 42.5513 23.232C42.5513 23.904 41.9433 24 41.4953 24ZM36.5673 18.176V19.264H41.0153V18.336C41.0153 18.048 41.0312 17.808 40.8233 17.616L40.2313 17.104C40.0393 16.928 39.7353 16.912 39.4953 16.912H38.1993C37.9113 16.912 37.6713 16.912 37.4153 17.088L36.8873 17.472C36.6953 17.616 36.5673 17.728 36.5673 18.176ZM46.5469 22.944V16.512C46.5469 15.952 46.6109 15.376 47.3149 15.376C47.9229 15.376 48.0829 15.888 48.0829 16.4V17.024L49.2829 16.032C49.7149 15.68 50.1629 15.376 50.6429 15.376H51.8749C52.4669 15.376 52.9629 15.568 53.3789 15.984C53.8909 16.496 54.0669 17.024 54.0669 17.728C54.0669 18.256 53.9709 18.8 53.3149 18.8C52.7549 18.8 52.5309 18.352 52.5309 17.856C52.5309 17.6 52.5309 17.408 52.3709 17.184C52.1789 16.912 51.8109 16.912 51.4429 16.912H50.9949C50.7069 16.912 50.4989 17.056 50.2269 17.28L48.0829 19.056V22.944C48.0829 23.472 47.9709 24 47.3149 24C46.6589 24 46.5469 23.472 46.5469 22.944ZM58.0625 22.672L60.9105 17.776L58.0625 12.88C57.9505 12.704 57.8705 12.528 57.8705 12.304C57.8705 11.888 58.2545 11.552 58.6545 11.552C59.1825 11.552 59.3585 11.952 59.5825 12.336L61.8225 16.16L64.0625 12.336C64.2865 11.952 64.4625 11.552 64.9905 11.552C65.3905 11.552 65.7745 11.888 65.7745 12.304C65.7745 12.528 65.6945 12.704 65.5825 12.88L62.7345 17.776L65.5825 22.672C65.6945 22.848 65.7745 23.024 65.7745 23.248C65.7745 23.664 65.3905 24 64.9905 24C64.4625 24 64.2865 23.6 64.0625 23.216L61.8225 19.392L59.5825 23.216C59.3585 23.6 59.1825 24 58.6545 24C58.2545 24 57.8705 23.664 57.8705 23.248C57.8705 23.024 57.9505 22.848 58.0625 22.672ZM88.0058 19.952H81.7018C81.2858 19.952 80.9018 19.728 80.9018 19.152C80.9018 18.576 81.2858 18.352 81.7018 18.352H88.0058C88.4218 18.352 88.8058 18.576 88.8058 19.152C88.8058 19.728 88.4218 19.952 88.0058 19.952ZM88.0058 16.56H81.7018C81.2858 16.56 80.9018 16.336 80.9018 15.76C80.9018 15.184 81.2858 14.96 81.7018 14.96H88.0058C88.4218 14.96 88.8058 15.184 88.8058 15.76C88.8058 16.336 88.4218 16.56 88.0058 16.56ZM106.781 14.016L108.317 12.128C108.573 11.808 108.749 11.552 109.181 11.552C109.597 11.552 109.917 11.952 109.917 12.352C109.917 12.624 109.741 12.848 109.597 13.04L107.869 15.312C107.453 15.856 107.453 15.888 107.453 16.56V18.992C107.453 19.664 107.453 19.696 107.869 20.24L109.549 22.464C109.709 22.688 109.917 22.928 109.917 23.2C109.917 23.648 109.581 24 109.149 24C108.765 24 108.589 23.76 108.365 23.488L106.781 21.536C106.077 20.672 105.853 20.112 105.853 18.992V16.56C105.853 15.456 106.077 14.88 106.781 14.016ZM115.641 20.432V18.944C115.641 18 115.817 17.536 116.553 16.928L117.689 15.984C118.409 15.392 118.777 15.376 119.673 15.376H122.105C122.617 15.376 123.161 15.488 123.161 16.144C123.161 16.816 122.553 16.912 122.105 16.912H119.401C119.097 16.912 118.793 17.072 118.521 17.296L117.593 18.08C117.353 18.272 117.177 18.432 117.177 18.736V20.64C117.177 20.944 117.353 21.104 117.593 21.296L118.521 22.08C118.793 22.304 119.097 22.464 119.401 22.464H122.105C122.553 22.464 123.161 22.56 123.161 23.232C123.161 23.888 122.617 24 122.105 24H119.673C118.777 24 118.409 23.984 117.689 23.392L116.553 22.448C115.817 21.84 115.641 21.376 115.641 20.432ZM134.676 19.024V20.672C134.676 21.776 134.596 22.192 133.7 22.896L132.772 23.632C132.452 23.888 131.956 24.32 131.54 24.32H130.5C129.812 24.32 129.492 23.872 128.996 23.408L128.692 23.12V26.208C128.692 26.736 128.58 27.264 127.924 27.264C127.268 27.264 127.156 26.736 127.156 26.208V16.512C127.156 15.968 127.22 15.376 127.924 15.376C128.548 15.376 128.692 15.872 128.692 16.384V16.576L128.996 16.304C129.396 15.952 130.004 15.376 130.436 15.376H131.492C131.86 15.376 132.356 15.76 132.772 16.08L133.7 16.8C134.596 17.504 134.676 17.936 134.676 19.024ZM133.14 20.88V18.816C133.14 18.528 133.06 18.352 132.82 18.144L131.668 17.184C131.524 17.056 131.348 16.912 131.14 16.912H130.74C130.516 16.912 130.244 17.2 130.084 17.36L129.124 18.272C128.804 18.576 128.692 18.752 128.692 19.088V20.592C128.692 20.816 128.756 21.104 128.916 21.248L130.084 22.352C130.308 22.576 130.548 22.784 130.74 22.784H131.14C131.348 22.784 131.524 22.64 131.668 22.512L132.82 21.552C133.06 21.344 133.14 21.168 133.14 20.88ZM141.328 14.016L142.864 12.128C143.12 11.808 143.296 11.552 143.728 11.552C144.144 11.552 144.464 11.952 144.464 12.352C144.464 12.624 144.288 12.848 144.144 13.04L142.416 15.312C142 15.856 142 15.888 142 16.56V18.992C142 19.664 142 19.696 142.416 20.24L144.096 22.464C144.256 22.688 144.464 22.928 144.464 23.2C144.464 23.648 144.128 24 143.696 24C143.312 24 143.136 23.76 142.912 23.488L141.328 21.536C140.624 20.672 140.4 20.112 140.4 18.992V16.56C140.4 15.456 140.624 14.88 141.328 14.016ZM157.708 16.432V22.864C157.708 23.216 157.772 24 156.956 24C156.3 24 156.188 23.456 156.188 22.928V22.672L154.94 23.488C154.444 23.808 154.028 24 153.612 24H152.476C152.044 24 151.564 23.872 151.052 23.44C150.364 22.848 150.38 22.192 150.348 21.36L150.188 16.528C150.172 15.968 150.252 15.376 150.956 15.376C151.612 15.376 151.692 15.936 151.708 16.432L151.868 21.152C151.884 21.504 151.9 21.92 152.028 22.144C152.156 22.368 152.556 22.464 152.924 22.464H153.436C153.612 22.464 153.772 22.416 153.916 22.32L156.172 20.896V16.432C156.172 15.904 156.284 15.376 156.94 15.376C157.595 15.376 157.708 15.904 157.708 16.432ZM166.663 16.912H164.327C164.007 16.912 163.463 16.848 163.463 17.344C163.463 17.6 163.655 17.696 163.879 17.792L167.719 19.536C168.711 19.984 169.223 20.608 169.223 21.712C169.223 23.264 168.167 24 166.695 24H164.327C163.527 24 162.983 23.968 162.407 23.52C162.119 23.296 161.703 23.008 161.703 22.624C161.703 22.192 162.071 21.856 162.503 21.856C162.743 21.856 162.919 21.936 163.095 22.128C163.367 22.432 163.847 22.464 164.327 22.464H166.407C166.951 22.464 167.687 22.512 167.687 21.616C167.687 21.248 167.239 21.008 166.887 20.848L163.271 19.2C162.423 18.816 161.927 18.32 161.927 17.328C161.927 16.112 162.887 15.376 164.039 15.376H166.663C167.511 15.376 167.863 15.424 168.439 15.904C168.727 16.144 169.047 16.336 169.047 16.768C169.047 17.2 168.679 17.536 168.263 17.536C167.975 17.536 167.799 17.424 167.607 17.216C167.351 16.944 167.079 16.912 166.663 16.912ZM179.683 24H176.035C175.395 24 175.139 24 174.659 23.584L174.003 23.008C173.395 22.464 173.219 22.112 173.219 21.28V18.32C173.219 17.504 173.331 17.024 173.971 16.48L174.515 16.016C175.235 15.392 175.587 15.376 176.211 15.376H177.619C178.371 15.376 178.723 15.456 179.315 15.936L179.939 16.432C180.643 16.992 180.739 17.584 180.739 18.432V19.664C180.739 20.544 180.595 20.8 179.683 20.8H174.755V21.312C174.755 21.456 174.867 21.648 174.979 21.76L175.363 22.176C175.571 22.4 175.875 22.464 176.387 22.464H179.683C180.195 22.464 180.739 22.576 180.739 23.232C180.739 23.904 180.131 24 179.683 24ZM174.755 18.176V19.264H179.203V18.336C179.203 18.048 179.219 17.808 179.011 17.616L178.419 17.104C178.227 16.928 177.923 16.912 177.683 16.912H176.387C176.099 16.912 175.859 16.912 175.603 17.088L175.075 17.472C174.883 17.616 174.755 17.728 174.755 18.176ZM184.734 22.944V16.512C184.734 15.952 184.798 15.376 185.502 15.376C186.11 15.376 186.27 15.888 186.27 16.4V17.024L187.47 16.032C187.902 15.68 188.35 15.376 188.83 15.376H190.062C190.654 15.376 191.15 15.568 191.566 15.984C192.078 16.496 192.254 17.024 192.254 17.728C192.254 18.256 192.158 18.8 191.502 18.8C190.942 18.8 190.718 18.352 190.718 17.856C190.718 17.6 190.718 17.408 190.558 17.184C190.366 16.912 189.998 16.912 189.63 16.912H189.182C188.894 16.912 188.686 17.056 188.414 17.28L186.27 19.056V22.944C186.27 23.472 186.158 24 185.502 24C184.846 24 184.734 23.472 184.734 22.944ZM196.25 22.672L199.098 17.776L196.25 12.88C196.138 12.704 196.058 12.528 196.058 12.304C196.058 11.888 196.442 11.552 196.842 11.552C197.37 11.552 197.546 11.952 197.77 12.336L200.01 16.16L202.25 12.336C202.474 11.952 202.65 11.552 203.178 11.552C203.578 11.552 203.962 11.888 203.962 12.304C203.962 12.528 203.882 12.704 203.77 12.88L200.922 17.776L203.77 22.672C203.882 22.848 203.962 23.024 203.962 23.248C203.962 23.664 203.578 24 203.178 24C202.65 24 202.474 23.6 202.25 23.216L200.01 19.392L197.77 23.216C197.546 23.6 197.37 24 196.842 24C196.442 24 196.058 23.664 196.058 23.248C196.058 23.024 196.138 22.848 196.25 22.672ZM211.094 12.128L212.63 14.016C213.334 14.88 213.558 15.456 213.558 16.56V18.992C213.558 20.112 213.334 20.672 212.63 21.536L211.046 23.488C210.822 23.76 210.646 24 210.262 24C209.83 24 209.494 23.648 209.494 23.2C209.494 22.928 209.702 22.688 209.862 22.464L211.542 20.24C211.958 19.696 211.958 19.664 211.958 18.992V16.56C211.958 15.888 211.958 15.856 211.542 15.312L209.814 13.04C209.67 12.848 209.494 12.624 209.494 12.352C209.494 11.952 209.814 11.552 210.23 11.552C210.662 11.552 210.838 11.808 211.094 12.128ZM238.333 12.928L232.189 23.44C231.997 23.776 231.805 24 231.405 24C231.005 24 230.605 23.664 230.605 23.248C230.605 22.944 230.797 22.672 230.957 22.416L236.941 12.16C237.133 11.84 237.325 11.552 237.725 11.552C238.141 11.552 238.509 11.888 238.509 12.304C238.509 12.56 238.429 12.752 238.333 12.928ZM252.436 24V22.816L256.212 18.096L252.596 13.776V12.576H260.164V13.856H256.052C255.817 13.856 255.529 13.856 255.188 13.856C254.857 13.856 254.607 13.8507 254.436 13.84L257.716 17.728V18.16L254.084 22.72C254.489 22.72 254.879 22.72 255.252 22.72C255.636 22.7093 256.041 22.704 256.468 22.704H260.356V24H252.436ZM266.824 22.4H269.704C270.216 22.4 270.696 22.608 270.696 23.2C270.696 23.776 270.248 24 269.736 24H263.928C263.048 24 262.792 23.84 262.792 22.928V12.688C262.792 11.824 262.952 11.552 263.864 11.552H269.704C270.216 11.552 270.696 11.76 270.696 12.352C270.696 12.928 270.248 13.152 269.736 13.152H266.824V22.4ZM264.392 22.4H265.224V13.152H264.392V22.4ZM274.5 20.432V18.944C274.5 18 274.676 17.536 275.412 16.928L276.548 15.984C277.268 15.392 277.636 15.376 278.532 15.376H280.964C281.476 15.376 282.02 15.488 282.02 16.144C282.02 16.816 281.412 16.912 280.964 16.912H278.26C277.956 16.912 277.652 17.072 277.38 17.296L276.452 18.08C276.212 18.272 276.036 18.432 276.036 18.736V20.64C276.036 20.944 276.212 21.104 276.452 21.296L277.38 22.08C277.652 22.304 277.956 22.464 278.26 22.464H280.964C281.412 22.464 282.02 22.56 282.02 23.232C282.02 23.888 281.476 24 280.964 24H278.532C277.636 24 277.268 23.984 276.548 23.392L275.412 22.448C274.676 21.84 274.5 21.376 274.5 20.432ZM293.536 19.024V20.672C293.536 21.776 293.456 22.192 292.56 22.896L291.632 23.632C291.312 23.888 290.816 24.32 290.4 24.32H289.36C288.672 24.32 288.352 23.872 287.856 23.408L287.552 23.12V26.208C287.552 26.736 287.44 27.264 286.784 27.264C286.128 27.264 286.016 26.736 286.016 26.208V16.512C286.016 15.968 286.08 15.376 286.784 15.376C287.408 15.376 287.552 15.872 287.552 16.384V16.576L287.856 16.304C288.256 15.952 288.864 15.376 289.296 15.376H290.352C290.72 15.376 291.216 15.76 291.632 16.08L292.56 16.8C293.456 17.504 293.536 17.936 293.536 19.024ZM292 20.88V18.816C292 18.528 291.92 18.352 291.68 18.144L290.528 17.184C290.384 17.056 290.208 16.912 290 16.912H289.6C289.376 16.912 289.104 17.2 288.944 17.36L287.984 18.272C287.664 18.576 287.552 18.752 287.552 19.088V20.592C287.552 20.816 287.616 21.104 287.776 21.248L288.944 22.352C289.168 22.576 289.408 22.784 289.6 22.784H290C290.208 22.784 290.384 22.64 290.528 22.512L291.68 21.552C291.92 21.344 292 21.168 292 20.88ZM300.187 14.016L301.723 12.128C301.979 11.808 302.155 11.552 302.587 11.552C303.003 11.552 303.323 11.952 303.323 12.352C303.323 12.624 303.147 12.848 303.003 13.04L301.275 15.312C300.859 15.856 300.859 15.888 300.859 16.56V18.992C300.859 19.664 300.859 19.696 301.275 20.24L302.955 22.464C303.115 22.688 303.323 22.928 303.323 23.2C303.323 23.648 302.987 24 302.555 24C302.171 24 301.995 23.76 301.771 23.488L300.187 21.536C299.483 20.672 299.259 20.112 299.259 18.992V16.56C299.259 15.456 299.483 14.88 300.187 14.016ZM316.567 16.432V22.864C316.567 23.216 316.631 24 315.815 24C315.159 24 315.047 23.456 315.047 22.928V22.672L313.799 23.488C313.303 23.808 312.887 24 312.471 24H311.335C310.903 24 310.423 23.872 309.911 23.44C309.223 22.848 309.239 22.192 309.207 21.36L309.047 16.528C309.031 15.968 309.111 15.376 309.815 15.376C310.471 15.376 310.551 15.936 310.567 16.432L310.727 21.152C310.743 21.504 310.759 21.92 310.887 22.144C311.015 22.368 311.415 22.464 311.783 22.464H312.295C312.471 22.464 312.631 22.416 312.775 22.32L315.031 20.896V16.432C315.031 15.904 315.143 15.376 315.799 15.376C316.455 15.376 316.567 15.904 316.567 16.432ZM323.891 12.128L325.427 14.016C326.131 14.88 326.355 15.456 326.355 16.56V18.992C326.355 20.112 326.131 20.672 325.427 21.536L323.843 23.488C323.619 23.76 323.443 24 323.059 24C322.627 24 322.291 23.648 322.291 23.2C322.291 22.928 322.499 22.688 322.659 22.464L324.339 20.24C324.755 19.696 324.755 19.664 324.755 18.992V16.56C324.755 15.888 324.755 15.856 324.339 15.312L322.611 13.04C322.467 12.848 322.291 12.624 322.291 12.352C322.291 11.952 322.611 11.552 323.027 11.552C323.459 11.552 323.635 11.808 323.891 12.128ZM345.85 22.944V16.912H345.418C344.97 16.912 344.362 16.816 344.362 16.144C344.362 15.488 344.906 15.376 345.418 15.376H345.85V15.168C345.85 14.288 345.898 13.648 346.586 12.976C347.322 12.272 348.01 12.208 348.954 12.208H349.994C350.522 12.208 351.114 12.256 351.114 12.976C351.114 13.632 350.586 13.744 350.058 13.744H348.858C347.818 13.744 347.386 13.952 347.386 15.072V15.376H348.746C349.258 15.376 349.802 15.488 349.802 16.144C349.802 16.816 349.194 16.912 348.746 16.912H347.386V22.944C347.386 23.472 347.274 24 346.618 24C345.962 24 345.85 23.472 345.85 22.944ZM355.109 21.136V18.24C355.109 17.216 355.317 16.864 356.085 16.24C356.837 15.616 357.189 15.376 358.261 15.376H359.477C360.549 15.376 360.901 15.616 361.653 16.24C362.421 16.864 362.629 17.216 362.629 18.24V21.136C362.629 22.144 362.373 22.528 361.573 23.2C360.773 23.872 360.453 24 359.477 24H358.261C357.285 24 356.965 23.872 356.165 23.2C355.365 22.528 355.109 22.144 355.109 21.136ZM356.645 18.24V21.136C356.645 21.456 356.757 21.664 357.205 22.048C357.541 22.336 357.781 22.464 358.261 22.464H359.477C359.957 22.464 360.197 22.336 360.533 22.048C360.981 21.664 361.093 21.456 361.093 21.136V18.24C361.093 17.92 360.981 17.712 360.533 17.328C360.197 17.04 359.957 16.912 359.477 16.912H358.261C357.781 16.912 357.541 17.04 357.205 17.328C356.757 17.712 356.645 17.92 356.645 18.24ZM366.625 22.944V16.512C366.625 15.952 366.689 15.376 367.393 15.376C368.001 15.376 368.161 15.888 368.161 16.4V17.024L369.361 16.032C369.793 15.68 370.241 15.376 370.721 15.376H371.953C372.545 15.376 373.041 15.568 373.457 15.984C373.969 16.496 374.145 17.024 374.145 17.728C374.145 18.256 374.049 18.8 373.393 18.8C372.833 18.8 372.609 18.352 372.609 17.856C372.609 17.6 372.609 17.408 372.449 17.184C372.257 16.912 371.889 16.912 371.521 16.912H371.073C370.785 16.912 370.577 17.056 370.305 17.28L368.161 19.056V22.944C368.161 23.472 368.049 24 367.393 24C366.737 24 366.625 23.472 366.625 22.944ZM397.176 16.432V22.864C397.176 23.216 397.24 24 396.424 24C395.768 24 395.656 23.456 395.656 22.928V22.672L394.408 23.488C393.912 23.808 393.496 24 393.08 24H391.944C391.512 24 391.032 23.872 390.52 23.44C389.832 22.848 389.848 22.192 389.816 21.36L389.656 16.528C389.64 15.968 389.72 15.376 390.424 15.376C391.08 15.376 391.16 15.936 391.176 16.432L391.336 21.152C391.352 21.504 391.368 21.92 391.496 22.144C391.624 22.368 392.024 22.464 392.392 22.464H392.904C393.08 22.464 393.24 22.416 393.384 22.32L395.64 20.896V16.432C395.64 15.904 395.752 15.376 396.408 15.376C397.064 15.376 397.176 15.904 397.176 16.432ZM417.248 16.448V22.464H418.4C418.911 22.464 419.456 22.576 419.456 23.232C419.456 23.904 418.848 24 418.4 24H414.496C414.048 24 413.44 23.904 413.44 23.232C413.44 22.576 413.984 22.464 414.496 22.464H415.712V16.912H414.496C414.048 16.912 413.44 16.816 413.44 16.144C413.44 15.488 413.984 15.376 414.496 15.376H416.112C416.992 15.376 417.248 15.536 417.248 16.448ZM414.928 13.008V12.272C414.928 11.728 415.232 11.552 415.648 11.552H416.528C416.944 11.552 417.248 11.728 417.248 12.272V13.008C417.248 13.552 416.944 13.728 416.528 13.728H415.648C415.232 13.728 414.928 13.552 414.928 13.008ZM428.011 17.056L425.739 18.48V22.944C425.739 23.472 425.627 24 424.971 24C424.315 24 424.203 23.472 424.203 22.944V16.512C424.203 15.952 424.267 15.376 424.971 15.376C425.659 15.376 425.739 15.952 425.739 16.496V16.672V16.704L426.987 15.888C427.387 15.632 427.819 15.376 428.315 15.376H429.451C430.043 15.376 430.411 15.536 430.875 15.936C431.563 16.528 431.531 17.184 431.563 18.016L431.723 22.848C431.739 23.392 431.659 24 430.971 24C430.347 24 430.219 23.472 430.203 22.96L430.043 18.224C430.011 17.28 429.931 16.912 429.003 16.912H428.491C428.331 16.912 428.171 16.96 428.011 17.056ZM447.042 23.2L450.178 12.368C450.306 11.936 450.482 11.552 450.994 11.552C451.522 11.552 451.714 11.952 451.826 12.368L454.914 23.2C455.026 23.584 454.594 24 454.146 24C453.65 24 453.394 23.584 453.282 23.2L452.69 21.28H449.282L448.674 23.2C448.562 23.584 448.306 24 447.81 24C447.362 24 446.93 23.584 447.042 23.2ZM452.242 19.68L451.01 15.344H450.978L449.73 19.68H452.242ZM459.55 22.4H462.43V13.152H459.518C459.006 13.152 458.558 12.928 458.558 12.352C458.558 11.76 459.038 11.552 459.55 11.552H465.39C466.302 11.552 466.462 11.824 466.462 12.688V22.928C466.462 23.84 466.206 24 465.326 24H459.518C459.006 24 458.558 23.776 458.558 23.2C458.558 22.608 459.038 22.4 459.55 22.4ZM464.03 22.4H464.862V13.152H464.03V22.4ZM473.594 12.128L475.13 14.016C475.834 14.88 476.058 15.456 476.058 16.56V18.992C476.058 20.112 475.834 20.672 475.13 21.536L473.546 23.488C473.322 23.76 473.146 24 472.762 24C472.33 24 471.994 23.648 471.994 23.2C471.994 22.928 472.202 22.688 472.362 22.464L474.042 20.24C474.458 19.696 474.458 19.664 474.458 18.992V16.56C474.458 15.888 474.458 15.856 474.042 15.312L472.314 13.04C472.17 12.848 471.994 12.624 471.994 12.352C471.994 11.952 472.314 11.552 472.73 11.552C473.162 11.552 473.338 11.808 473.594 12.128ZM493.745 19.584L495.841 17.792L493.537 15.824C493.329 15.648 493.105 15.424 493.105 15.136C493.105 14.688 493.441 14.288 493.905 14.288C494.161 14.288 494.369 14.432 494.545 14.592L496.257 16.064V13.728C496.257 13.216 496.481 12.928 497.057 12.928C497.633 12.928 497.857 13.216 497.857 13.728V16.064L499.569 14.592C499.745 14.432 499.953 14.288 500.209 14.288C500.673 14.288 501.009 14.688 501.009 15.136C501.009 15.424 500.785 15.648 500.577 15.824L498.273 17.792L500.369 19.584C500.641 19.808 501.009 20.08 501.009 20.464C501.009 20.912 500.673 21.296 500.209 21.296C499.873 21.296 499.585 21.008 499.345 20.8L497.857 19.52V21.824C497.857 22.336 497.633 22.624 497.057 22.624C496.481 22.624 496.257 22.336 496.257 21.824V19.52L494.769 20.8C494.529 21.008 494.241 21.296 493.905 21.296C493.441 21.296 493.105 20.912 493.105 20.464C493.105 20.08 493.473 19.808 493.745 19.584ZM519.288 13.152H517.736V13.728C517.736 14.24 517.512 14.528 516.936 14.528C516.36 14.528 516.136 14.24 516.136 13.728V11.552H524.04V13.728C524.04 14.24 523.816 14.528 523.24 14.528C522.664 14.528 522.44 14.24 522.44 13.728V13.152H520.888V23.2C520.888 23.712 520.664 24 520.088 24C519.512 24 519.288 23.712 519.288 23.2V13.152Z" fill="white"/>
</svg>
