<svg width="463" height="40" viewBox="0 0 463 40" fill="none" xmlns="http://www.w3.org/2000/svg">
<rect width="463" height="40" rx="4" fill="#363636"/>
<path d="M14.736 24.192C14.048 24.192 13.4747 24.064 13.016 23.808C12.5573 23.552 12.2133 23.1467 11.984 22.592C11.76 22.032 11.648 21.2987 11.648 20.392V15.824H12.968V20.624C12.968 21.4773 13.1467 22.0827 13.504 22.44C13.8667 22.792 14.3173 22.968 14.856 22.968C15.2293 22.968 15.568 22.8987 15.872 22.76C16.1813 22.6213 16.4267 22.384 16.608 22.048C16.7893 21.712 16.88 21.248 16.88 20.656V15.824H18.2V24H16.88V23.192C16.6027 23.5547 16.288 23.8133 15.936 23.968C15.5893 24.1173 15.1893 24.192 14.736 24.192ZM24.7394 24.192C24.1367 24.192 23.5714 24.056 23.0434 23.784C22.5154 23.512 22.0754 23.1707 21.7234 22.76L22.6194 21.968C22.8647 22.2453 23.182 22.496 23.5714 22.72C23.9607 22.9387 24.382 23.048 24.8354 23.048C25.2834 23.048 25.6594 22.9573 25.9634 22.776C26.2727 22.5893 26.4274 22.3173 26.4274 21.96C26.4274 21.6667 26.3287 21.4213 26.1314 21.224C25.9394 21.0213 25.6834 20.848 25.3634 20.704C25.0487 20.5547 24.71 20.4107 24.3474 20.272C23.8834 20.096 23.4567 19.904 23.0674 19.696C22.678 19.4827 22.366 19.2213 22.1314 18.912C21.902 18.6027 21.7874 18.216 21.7874 17.752C21.7874 17.32 21.91 16.9467 22.1554 16.632C22.4007 16.312 22.7367 16.0667 23.1634 15.896C23.5954 15.72 24.0834 15.632 24.6274 15.632C25.23 15.632 25.7687 15.7467 26.2434 15.976C26.718 16.2 27.1234 16.504 27.4594 16.888L26.5954 17.616C26.382 17.4133 26.1074 17.224 25.7714 17.048C25.4407 16.8667 25.0407 16.776 24.5714 16.776C24.1074 16.776 23.734 16.8613 23.4514 17.032C23.1687 17.2027 23.0274 17.44 23.0274 17.744C23.0274 17.9893 23.118 18.1973 23.2994 18.368C23.4807 18.5387 23.7154 18.6907 24.0034 18.824C24.2967 18.952 24.6114 19.08 24.9474 19.208C25.3794 19.368 25.8034 19.552 26.2194 19.76C26.6407 19.968 26.9874 20.24 27.2594 20.576C27.5314 20.912 27.6674 21.3547 27.6674 21.904C27.6674 22.608 27.4034 23.1653 26.8754 23.576C26.3527 23.9867 25.6407 24.192 24.7394 24.192ZM34.8148 24.192C34.0308 24.192 33.3588 24 32.7988 23.616C32.2441 23.232 31.8201 22.7147 31.5268 22.064C31.2334 21.4133 31.0868 20.6933 31.0868 19.904C31.0868 19.0027 31.2414 18.2347 31.5508 17.6C31.8601 16.96 32.2921 16.472 32.8468 16.136C33.4068 15.8 34.0628 15.632 34.8148 15.632C35.4281 15.632 35.9908 15.7707 36.5028 16.048C37.0201 16.3253 37.4334 16.7547 37.7428 17.336C38.0521 17.912 38.2068 18.6533 38.2068 19.56C38.2068 19.6613 38.2041 19.7867 38.1988 19.936C38.1988 20.08 38.1881 20.2453 38.1667 20.432H32.1108V19.28H36.9028C36.8921 18.6293 36.7748 18.1253 36.5508 17.768C36.3321 17.4053 36.0628 17.152 35.7428 17.008C35.4228 16.864 35.1134 16.792 34.8148 16.792C33.9828 16.792 33.3721 17.056 32.9828 17.584C32.5934 18.1067 32.3988 18.808 32.3988 19.688C32.3988 20.712 32.6148 21.52 33.0468 22.112C33.4788 22.704 34.0814 23 34.8548 23C35.1801 23 35.5028 22.9493 35.8228 22.848C36.1428 22.7413 36.4574 22.5653 36.7668 22.32L37.5028 23.176C37.1614 23.4693 36.7588 23.712 36.2948 23.904C35.8361 24.096 35.3428 24.192 34.8148 24.192ZM40.3941 24V22.84H42.0981V16.984H40.3941V15.824H43.3541V17.656L43.2581 17.424C43.4288 17.056 43.6875 16.7387 44.0341 16.472C44.3861 16.2053 44.7781 16 45.2101 15.856C45.6475 15.7067 46.0821 15.632 46.5141 15.632C46.9301 15.632 47.2848 15.6693 47.5781 15.744C47.8715 15.8187 48.1061 15.9093 48.2821 16.016V18.824H46.9781V16.4L47.3781 17.024C47.2448 16.9867 47.1008 16.96 46.9461 16.944C46.7968 16.928 46.6395 16.92 46.4741 16.92C45.9355 16.92 45.4341 17.0107 44.9701 17.192C44.5061 17.368 44.1328 17.6293 43.8501 17.976C43.5728 18.3227 43.4341 18.7467 43.4341 19.248V22.84H45.8421V24H40.3941ZM56.8535 24L53.9815 18.72L50.6615 12.8H52.1175L54.6855 17.544L58.3015 24H56.8535ZM50.4215 24L53.9975 17.624L56.5735 12.8H57.9975L54.6375 18.72L51.8615 24H50.4215ZM70.3243 17.432V16.16H77.8443V17.432H70.3243ZM70.3243 20.888V19.616H77.8443V20.888H70.3243ZM95.123 26.08C94.6217 25.6533 94.139 25.136 93.675 24.528C93.2163 23.9253 92.8403 23.208 92.547 22.376C92.259 21.544 92.115 20.5707 92.115 19.456C92.115 18.3467 92.267 17.3573 92.571 16.488C92.8803 15.6133 93.2777 14.856 93.763 14.216C94.2537 13.5707 94.7657 13.0347 95.299 12.608H96.555C96.3363 12.784 96.051 13.0747 95.699 13.48C95.3523 13.88 95.003 14.376 94.651 14.968C94.299 15.56 94.003 16.2347 93.763 16.992C93.523 17.7493 93.403 18.5707 93.403 19.456C93.403 20.3573 93.5177 21.176 93.747 21.912C93.9817 22.6427 94.267 23.288 94.603 23.848C94.9443 24.408 95.2777 24.8747 95.603 25.248C95.9337 25.6267 96.1923 25.904 96.379 26.08H95.123ZM103.846 24.192C102.79 24.192 101.953 23.8187 101.334 23.072C100.721 22.3253 100.414 21.2747 100.414 19.92C100.414 19.024 100.556 18.256 100.838 17.616C101.121 16.976 101.526 16.4853 102.054 16.144C102.582 15.8027 103.214 15.632 103.95 15.632C104.638 15.632 105.23 15.7867 105.726 16.096C106.228 16.4053 106.596 16.864 106.83 17.472L105.63 17.92C105.497 17.6053 105.294 17.344 105.022 17.136C104.75 16.928 104.382 16.824 103.918 16.824C103.161 16.824 102.612 17.104 102.27 17.664C101.929 18.2187 101.758 18.9707 101.758 19.92C101.758 20.8853 101.932 21.64 102.278 22.184C102.625 22.7227 103.161 22.992 103.886 22.992C104.345 22.992 104.732 22.8827 105.046 22.664C105.366 22.4453 105.596 22.144 105.734 21.76L106.926 22.184C106.718 22.8133 106.345 23.3067 105.806 23.664C105.268 24.016 104.614 24.192 103.846 24.192ZM110.266 27.24V15.824H111.57V16.528C111.82 16.2933 112.114 16.0853 112.45 15.904C112.786 15.7227 113.231 15.632 113.786 15.632C114.522 15.632 115.154 15.808 115.682 16.16C116.215 16.5067 116.626 17 116.914 17.64C117.202 18.28 117.346 19.0347 117.346 19.904C117.346 20.816 117.194 21.592 116.89 22.232C116.591 22.8667 116.175 23.352 115.642 23.688C115.114 24.024 114.511 24.192 113.834 24.192C113.236 24.192 112.764 24.096 112.418 23.904C112.076 23.7067 111.794 23.4747 111.57 23.208V26.608L110.266 27.24ZM113.674 22.992C114.415 22.992 114.988 22.728 115.394 22.2C115.799 21.6667 116.002 20.9013 116.002 19.904C116.002 18.9707 115.794 18.224 115.378 17.664C114.962 17.104 114.375 16.824 113.618 16.824C113.17 16.824 112.767 16.9253 112.41 17.128C112.058 17.3307 111.778 17.6133 111.57 17.976V21.84C111.82 22.1653 112.114 22.44 112.45 22.664C112.786 22.8827 113.194 22.992 113.674 22.992ZM124.701 26.08C124.2 25.6533 123.717 25.136 123.253 24.528C122.794 23.9253 122.418 23.208 122.125 22.376C121.837 21.544 121.693 20.5707 121.693 19.456C121.693 18.3467 121.845 17.3573 122.149 16.488C122.458 15.6133 122.856 14.856 123.341 14.216C123.832 13.5707 124.344 13.0347 124.877 12.608H126.133C125.914 12.784 125.629 13.0747 125.277 13.48C124.93 13.88 124.581 14.376 124.229 14.968C123.877 15.56 123.581 16.2347 123.341 16.992C123.101 17.7493 122.981 18.5707 122.981 19.456C122.981 20.3573 123.096 21.176 123.325 21.912C123.56 22.6427 123.845 23.288 124.181 23.848C124.522 24.408 124.856 24.8747 125.181 25.248C125.512 25.6267 125.77 25.904 125.957 26.08H124.701ZM133.049 24.192C132.361 24.192 131.787 24.064 131.329 23.808C130.87 23.552 130.526 23.1467 130.297 22.592C130.073 22.032 129.961 21.2987 129.961 20.392V15.824H131.281V20.624C131.281 21.4773 131.459 22.0827 131.817 22.44C132.179 22.792 132.63 22.968 133.169 22.968C133.542 22.968 133.881 22.8987 134.185 22.76C134.494 22.6213 134.739 22.384 134.921 22.048C135.102 21.712 135.193 21.248 135.193 20.656V15.824H136.513V24H135.193V23.192C134.915 23.5547 134.601 23.8133 134.249 23.968C133.902 24.1173 133.502 24.192 133.049 24.192ZM143.052 24.192C142.449 24.192 141.884 24.056 141.356 23.784C140.828 23.512 140.388 23.1707 140.036 22.76L140.932 21.968C141.177 22.2453 141.495 22.496 141.884 22.72C142.273 22.9387 142.695 23.048 143.148 23.048C143.596 23.048 143.972 22.9573 144.276 22.776C144.585 22.5893 144.74 22.3173 144.74 21.96C144.74 21.6667 144.641 21.4213 144.444 21.224C144.252 21.0213 143.996 20.848 143.676 20.704C143.361 20.5547 143.023 20.4107 142.66 20.272C142.196 20.096 141.769 19.904 141.38 19.696C140.991 19.4827 140.679 19.2213 140.444 18.912C140.215 18.6027 140.1 18.216 140.1 17.752C140.1 17.32 140.223 16.9467 140.468 16.632C140.713 16.312 141.049 16.0667 141.476 15.896C141.908 15.72 142.396 15.632 142.94 15.632C143.543 15.632 144.081 15.7467 144.556 15.976C145.031 16.2 145.436 16.504 145.772 16.888L144.908 17.616C144.695 17.4133 144.42 17.224 144.084 17.048C143.753 16.8667 143.353 16.776 142.884 16.776C142.42 16.776 142.047 16.8613 141.764 17.032C141.481 17.2027 141.34 17.44 141.34 17.744C141.34 17.9893 141.431 18.1973 141.612 18.368C141.793 18.5387 142.028 18.6907 142.316 18.824C142.609 18.952 142.924 19.08 143.26 19.208C143.692 19.368 144.116 19.552 144.532 19.76C144.953 19.968 145.3 20.24 145.572 20.576C145.844 20.912 145.98 21.3547 145.98 21.904C145.98 22.608 145.716 23.1653 145.188 23.576C144.665 23.9867 143.953 24.192 143.052 24.192ZM153.127 24.192C152.343 24.192 151.671 24 151.111 23.616C150.557 23.232 150.133 22.7147 149.839 22.064C149.546 21.4133 149.399 20.6933 149.399 19.904C149.399 19.0027 149.554 18.2347 149.863 17.6C150.173 16.96 150.605 16.472 151.159 16.136C151.719 15.8 152.375 15.632 153.127 15.632C153.741 15.632 154.303 15.7707 154.815 16.048C155.333 16.3253 155.746 16.7547 156.055 17.336C156.365 17.912 156.519 18.6533 156.519 19.56C156.519 19.6613 156.517 19.7867 156.511 19.936C156.511 20.08 156.501 20.2453 156.479 20.432H150.423V19.28H155.215C155.205 18.6293 155.087 18.1253 154.863 17.768C154.645 17.4053 154.375 17.152 154.055 17.008C153.735 16.864 153.426 16.792 153.127 16.792C152.295 16.792 151.685 17.056 151.295 17.584C150.906 18.1067 150.711 18.808 150.711 19.688C150.711 20.712 150.927 21.52 151.359 22.112C151.791 22.704 152.394 23 153.167 23C153.493 23 153.815 22.9493 154.135 22.848C154.455 22.7413 154.77 22.5653 155.079 22.32L155.815 23.176C155.474 23.4693 155.071 23.712 154.607 23.904C154.149 24.096 153.655 24.192 153.127 24.192ZM158.707 24V22.84H160.411V16.984H158.707V15.824H161.667V17.656L161.571 17.424C161.741 17.056 162 16.7387 162.347 16.472C162.699 16.2053 163.091 16 163.523 15.856C163.96 15.7067 164.395 15.632 164.827 15.632C165.243 15.632 165.597 15.6693 165.891 15.744C166.184 15.8187 166.419 15.9093 166.595 16.016V18.824H165.291V16.4L165.691 17.024C165.557 16.9867 165.413 16.96 165.259 16.944C165.109 16.928 164.952 16.92 164.787 16.92C164.248 16.92 163.747 17.0107 163.283 17.192C162.819 17.368 162.445 17.6293 162.163 17.976C161.885 18.3227 161.747 18.7467 161.747 19.248V22.84H164.155V24H158.707ZM175.166 24L172.294 18.72L168.974 12.8H170.43L172.998 17.544L176.614 24H175.166ZM168.734 24L172.31 17.624L174.886 12.8H176.31L172.95 18.72L170.174 24H168.734ZM179.961 26.08C180.153 25.8987 180.412 25.6213 180.737 25.248C181.063 24.8747 181.393 24.408 181.729 23.848C182.071 23.288 182.359 22.6427 182.593 21.912C182.828 21.176 182.945 20.3573 182.945 19.456C182.945 18.5707 182.823 17.7493 182.577 16.992C182.337 16.2347 182.041 15.56 181.689 14.968C181.343 14.376 180.993 13.88 180.641 13.48C180.295 13.0747 180.009 12.784 179.785 12.608H181.041C181.575 13.0347 182.084 13.5707 182.569 14.216C183.06 14.856 183.46 15.6133 183.769 16.488C184.079 17.3573 184.233 18.3467 184.233 19.456C184.233 20.5707 184.087 21.544 183.793 22.376C183.5 23.208 183.121 23.9253 182.657 24.528C182.199 25.136 181.719 25.6533 181.217 26.08H179.961ZM198.464 26.08L204.752 12.608H206.04L199.752 26.08H198.464ZM217.655 24V22.816L221.431 18.096L217.815 13.776V12.576H225.383V13.856H221.271C221.036 13.856 220.748 13.856 220.407 13.856C220.076 13.856 219.826 13.8507 219.655 13.84L222.935 17.728V18.16L219.303 22.72C219.708 22.72 220.098 22.72 220.471 22.72C220.855 22.7093 221.26 22.704 221.687 22.704H225.575V24H217.655ZM229.963 26.08V12.608H233.491V13.8H231.267V24.888H233.491V26.08H229.963ZM241.175 24.192C240.119 24.192 239.281 23.8187 238.663 23.072C238.049 22.3253 237.743 21.2747 237.743 19.92C237.743 19.024 237.884 18.256 238.167 17.616C238.449 16.976 238.855 16.4853 239.383 16.144C239.911 15.8027 240.543 15.632 241.279 15.632C241.967 15.632 242.559 15.7867 243.055 16.096C243.556 16.4053 243.924 16.864 244.159 17.472L242.959 17.92C242.825 17.6053 242.623 17.344 242.351 17.136C242.079 16.928 241.711 16.824 241.247 16.824C240.489 16.824 239.94 17.104 239.599 17.664C239.257 18.2187 239.087 18.9707 239.087 19.92C239.087 20.8853 239.26 21.64 239.607 22.184C239.953 22.7227 240.489 22.992 241.215 22.992C241.673 22.992 242.06 22.8827 242.375 22.664C242.695 22.4453 242.924 22.144 243.063 21.76L244.255 22.184C244.047 22.8133 243.673 23.3067 243.135 23.664C242.596 24.016 241.943 24.192 241.175 24.192ZM247.594 27.24V15.824H248.898V16.528C249.149 16.2933 249.442 16.0853 249.778 15.904C250.114 15.7227 250.559 15.632 251.114 15.632C251.85 15.632 252.482 15.808 253.01 16.16C253.543 16.5067 253.954 17 254.242 17.64C254.53 18.28 254.674 19.0347 254.674 19.904C254.674 20.816 254.522 21.592 254.218 22.232C253.919 22.8667 253.503 23.352 252.97 23.688C252.442 24.024 251.839 24.192 251.162 24.192C250.565 24.192 250.093 24.096 249.746 23.904C249.405 23.7067 249.122 23.4747 248.898 23.208V26.608L247.594 27.24ZM251.002 22.992C251.743 22.992 252.317 22.728 252.722 22.2C253.127 21.6667 253.33 20.9013 253.33 19.904C253.33 18.9707 253.122 18.224 252.706 17.664C252.29 17.104 251.703 16.824 250.946 16.824C250.498 16.824 250.095 16.9253 249.738 17.128C249.386 17.3307 249.106 17.6133 248.898 17.976V21.84C249.149 22.1653 249.442 22.44 249.778 22.664C250.114 22.8827 250.522 22.992 251.002 22.992ZM262.029 26.08C261.528 25.6533 261.045 25.136 260.581 24.528C260.123 23.9253 259.747 23.208 259.453 22.376C259.165 21.544 259.021 20.5707 259.021 19.456C259.021 18.3467 259.173 17.3573 259.477 16.488C259.787 15.6133 260.184 14.856 260.669 14.216C261.16 13.5707 261.672 13.0347 262.205 12.608H263.461C263.243 12.784 262.957 13.0747 262.605 13.48C262.259 13.88 261.909 14.376 261.557 14.968C261.205 15.56 260.909 16.2347 260.669 16.992C260.429 17.7493 260.309 18.5707 260.309 19.456C260.309 20.3573 260.424 21.176 260.653 21.912C260.888 22.6427 261.173 23.288 261.509 23.848C261.851 24.408 262.184 24.8747 262.509 25.248C262.84 25.6267 263.099 25.904 263.285 26.08H262.029ZM270.377 24.192C269.689 24.192 269.115 24.064 268.657 23.808C268.198 23.552 267.854 23.1467 267.625 22.592C267.401 22.032 267.289 21.2987 267.289 20.392V15.824H268.609V20.624C268.609 21.4773 268.787 22.0827 269.145 22.44C269.507 22.792 269.958 22.968 270.497 22.968C270.87 22.968 271.209 22.8987 271.513 22.76C271.822 22.6213 272.067 22.384 272.249 22.048C272.43 21.712 272.521 21.248 272.521 20.656V15.824H273.841V24H272.521V23.192C272.243 23.5547 271.929 23.8133 271.577 23.968C271.23 24.1173 270.83 24.192 270.377 24.192ZM277.852 26.08C278.044 25.8987 278.303 25.6213 278.628 25.248C278.953 24.8747 279.284 24.408 279.62 23.848C279.961 23.288 280.249 22.6427 280.484 21.912C280.719 21.176 280.836 20.3573 280.836 19.456C280.836 18.5707 280.713 17.7493 280.468 16.992C280.228 16.2347 279.932 15.56 279.58 14.968C279.233 14.376 278.884 13.88 278.532 13.48C278.185 13.0747 277.9 12.784 277.676 12.608H278.932C279.465 13.0347 279.975 13.5707 280.46 14.216C280.951 14.856 281.351 15.6133 281.66 16.488C281.969 17.3573 282.124 18.3467 282.124 19.456C282.124 20.5707 281.977 21.544 281.684 22.376C281.391 23.208 281.012 23.9253 280.548 24.528C280.089 25.136 279.609 25.6533 279.108 26.08H277.852ZM299.075 24V16.984H297.363V15.824H299.075V14.616C299.075 14.2267 299.139 13.904 299.267 13.648C299.395 13.3867 299.571 13.1813 299.795 13.032C300.019 12.8773 300.269 12.768 300.547 12.704C300.824 12.64 301.112 12.608 301.411 12.608C301.795 12.608 302.128 12.6453 302.411 12.72C302.693 12.7947 302.949 12.8853 303.179 12.992V14.128C302.949 14.0213 302.707 13.9387 302.451 13.88C302.2 13.8213 301.915 13.792 301.595 13.792C301.248 13.792 300.987 13.8373 300.811 13.928C300.64 14.0187 300.525 14.144 300.467 14.304C300.408 14.464 300.379 14.6427 300.379 14.84V15.824H302.699V16.984H300.379V24H299.075ZM297.363 24V22.84H302.555V24H297.363ZM310.006 24.192C309.243 24.192 308.577 24.024 308.006 23.688C307.435 23.352 306.99 22.8667 306.67 22.232C306.355 21.592 306.198 20.8213 306.198 19.92C306.198 19.0293 306.355 18.264 306.67 17.624C306.99 16.984 307.435 16.4933 308.006 16.152C308.577 15.8053 309.243 15.632 310.006 15.632C310.774 15.632 311.443 15.8 312.014 16.136C312.59 16.472 313.035 16.96 313.35 17.6C313.665 18.24 313.822 19.008 313.822 19.904C313.822 20.7947 313.665 21.56 313.35 22.2C313.035 22.84 312.59 23.3333 312.014 23.68C311.443 24.0213 310.774 24.192 310.006 24.192ZM310.006 22.992C310.795 22.992 311.403 22.7173 311.83 22.168C312.262 21.6187 312.478 20.864 312.478 19.904C312.478 18.9493 312.27 18.1973 311.854 17.648C311.438 17.0987 310.822 16.824 310.006 16.824C309.201 16.824 308.587 17.0933 308.166 17.632C307.745 18.1653 307.534 18.928 307.534 19.92C307.534 20.8693 307.745 21.6187 308.166 22.168C308.587 22.7173 309.201 22.992 310.006 22.992ZM315.754 24V22.84H317.458V16.984H315.754V15.824H318.714V17.656L318.618 17.424C318.788 17.056 319.047 16.7387 319.394 16.472C319.746 16.2053 320.138 16 320.57 15.856C321.007 15.7067 321.442 15.632 321.874 15.632C322.29 15.632 322.644 15.6693 322.938 15.744C323.231 15.8187 323.466 15.9093 323.642 16.016V18.824H322.338V16.4L322.738 17.024C322.604 16.9867 322.46 16.96 322.306 16.944C322.156 16.928 321.999 16.92 321.834 16.92C321.295 16.92 320.794 17.0107 320.33 17.192C319.866 17.368 319.492 17.6293 319.21 17.976C318.932 18.3227 318.794 18.7467 318.794 19.248V22.84H321.202V24H315.754ZM339.392 24.192C338.704 24.192 338.131 24.064 337.672 23.808C337.214 23.552 336.87 23.1467 336.64 22.592C336.416 22.032 336.304 21.2987 336.304 20.392V15.824H337.624V20.624C337.624 21.4773 337.803 22.0827 338.16 22.44C338.523 22.792 338.974 22.968 339.512 22.968C339.886 22.968 340.224 22.8987 340.528 22.76C340.838 22.6213 341.083 22.384 341.264 22.048C341.446 21.712 341.536 21.248 341.536 20.656V15.824H342.856V24H341.536V23.192C341.259 23.5547 340.944 23.8133 340.592 23.968C340.246 24.1173 339.846 24.192 339.392 24.192ZM358.863 23.76V15.824H360.167V23.76H358.863ZM356.607 24V22.84H362.423V24H356.607ZM356.607 16.984V15.824H359.583V16.984H356.607ZM359.511 14.28C359.282 14.28 359.087 14.2 358.927 14.04C358.767 13.88 358.687 13.6827 358.687 13.448C358.687 13.208 358.767 13.008 358.927 12.848C359.087 12.6827 359.282 12.6 359.511 12.6C359.756 12.6 359.956 12.6827 360.111 12.848C360.266 13.008 360.343 13.208 360.343 13.448C360.343 13.6827 360.266 13.88 360.111 14.04C359.956 14.2 359.756 14.28 359.511 14.28ZM365.89 24V15.824H367.194V17.352L366.986 17.072C367.114 16.7733 367.296 16.5173 367.53 16.304C367.765 16.0907 368.042 15.9253 368.362 15.808C368.682 15.6907 369.037 15.632 369.426 15.632C370.077 15.632 370.626 15.7573 371.074 16.008C371.528 16.2587 371.869 16.6587 372.098 17.208C372.333 17.752 372.45 18.4667 372.45 19.352V24H371.154V19.104C371.154 18.2667 370.968 17.6773 370.594 17.336C370.226 16.9947 369.77 16.824 369.226 16.824C368.832 16.824 368.48 16.8933 368.17 17.032C367.866 17.1707 367.626 17.4027 367.45 17.728C367.28 18.0533 367.194 18.5013 367.194 19.072V24H365.89ZM384.633 24L388.321 12.8H389.417L393.129 24H391.769L389.177 15.84C389.161 15.7813 389.132 15.6827 389.089 15.544C389.046 15.4053 389.004 15.264 388.961 15.12C388.918 14.976 388.889 14.8613 388.873 14.776C388.852 14.8613 388.82 14.976 388.777 15.12C388.74 15.264 388.702 15.4053 388.665 15.544C388.628 15.6773 388.598 15.776 388.577 15.84L386.025 24H384.633ZM386.497 21.208L386.881 20.032H390.873L391.257 21.208H386.497ZM397.517 26.08V24.888H399.741V13.8H397.517V12.608H401.045V26.08H397.517ZM406.024 26.08C406.216 25.8987 406.475 25.6213 406.8 25.248C407.125 24.8747 407.456 24.408 407.792 23.848C408.133 23.288 408.421 22.6427 408.656 21.912C408.891 21.176 409.008 20.3573 409.008 19.456C409.008 18.5707 408.885 17.7493 408.64 16.992C408.4 16.2347 408.104 15.56 407.752 14.968C407.405 14.376 407.056 13.88 406.704 13.48C406.357 13.0747 406.072 12.784 405.848 12.608H407.104C407.637 13.0347 408.147 13.5707 408.632 14.216C409.123 14.856 409.523 15.6133 409.832 16.488C410.141 17.3573 410.296 18.3467 410.296 19.456C410.296 20.5707 410.149 21.544 409.856 22.376C409.563 23.208 409.184 23.9253 408.72 24.528C408.261 25.136 407.781 25.6533 407.28 26.08H406.024ZM426.911 22.08L425.855 21.424L426.831 19.816L427.719 18.88L426.455 19.144H424.639V17.896H426.455L427.719 18.168L426.839 17.232L425.871 15.616L426.927 14.968L427.943 16.632L428.319 17.848L428.703 16.632L429.719 14.968L430.775 15.616L429.799 17.232L428.919 18.168L430.191 17.896H432.007V19.144H430.191L428.919 18.88L429.799 19.816L430.775 21.424L429.719 22.08L428.703 20.416L428.319 19.2L427.927 20.416L426.911 22.08ZM447.381 24V14.056H444.165V12.8H451.909V14.056H448.693V24H447.381Z" fill="white"/>
</svg>
