<svg width="286" height="117" viewBox="0 0 286 117" fill="none" xmlns="http://www.w3.org/2000/svg">
<g clip-path="url(#clip0_2025_1157)">
<rect width="286" height="117" rx="4" fill="#363636"/>
<g clip-path="url(#clip1_2025_1157)">
<rect width="286" height="39" fill="white" fill-opacity="0.01"/>
<mask id="path-3-inside-1_2025_1157" fill="white">
<path d="M0 0H148V39H0V0Z"/>
</mask>
<path d="M0 0H148V39H0V0Z" fill="white" fill-opacity="0.01"/>
<path d="M14 20.432V18.944C14 18 14.176 17.536 14.912 16.928L16.048 15.984C16.768 15.392 17.136 15.376 18.032 15.376H20.464C20.976 15.376 21.52 15.488 21.52 16.144C21.52 16.816 20.912 16.912 20.464 16.912H17.76C17.456 16.912 17.152 17.072 16.88 17.296L15.952 18.08C15.712 18.272 15.536 18.432 15.536 18.736V20.64C15.536 20.944 15.712 21.104 15.952 21.296L16.88 22.08C17.152 22.304 17.456 22.464 17.76 22.464H20.464C20.912 22.464 21.52 22.56 21.52 23.232C21.52 23.888 20.976 24 20.464 24H18.032C17.136 24 16.768 23.984 16.048 23.392L14.912 22.448C14.176 21.84 14 21.376 14 20.432ZM33.0356 19.024V20.672C33.0356 21.776 32.9556 22.192 32.0596 22.896L31.1316 23.632C30.8116 23.888 30.3156 24.32 29.8996 24.32H28.8596C28.1716 24.32 27.8516 23.872 27.3556 23.408L27.0516 23.12V26.208C27.0516 26.736 26.9396 27.264 26.2836 27.264C25.6276 27.264 25.5156 26.736 25.5156 26.208V16.512C25.5156 15.968 25.5796 15.376 26.2836 15.376C26.9076 15.376 27.0516 15.872 27.0516 16.384V16.576L27.3556 16.304C27.7556 15.952 28.3636 15.376 28.7956 15.376H29.8516C30.2196 15.376 30.7156 15.76 31.1316 16.08L32.0596 16.8C32.9556 17.504 33.0356 17.936 33.0356 19.024ZM31.4996 20.88V18.816C31.4996 18.528 31.4196 18.352 31.1796 18.144L30.0276 17.184C29.8836 17.056 29.7076 16.912 29.4996 16.912H29.0996C28.8756 16.912 28.6036 17.2 28.4436 17.36L27.4836 18.272C27.1636 18.576 27.0516 18.752 27.0516 19.088V20.592C27.0516 20.816 27.1156 21.104 27.2756 21.248L28.4436 22.352C28.6676 22.576 28.9076 22.784 29.0996 22.784H29.4996C29.7076 22.784 29.8836 22.64 30.0276 22.512L31.1796 21.552C31.4196 21.344 31.4996 21.168 31.4996 20.88ZM39.6873 14.016L41.2233 12.128C41.4793 11.808 41.6553 11.552 42.0873 11.552C42.5033 11.552 42.8233 11.952 42.8233 12.352C42.8233 12.624 42.6473 12.848 42.5033 13.04L40.7753 15.312C40.3593 15.856 40.3593 15.888 40.3593 16.56V18.992C40.3593 19.664 40.3593 19.696 40.7753 20.24L42.4553 22.464C42.6153 22.688 42.8233 22.928 42.8233 23.2C42.8233 23.648 42.4873 24 42.0553 24C41.6713 24 41.4953 23.76 41.2713 23.488L39.6873 21.536C38.9833 20.672 38.7593 20.112 38.7593 18.992V16.56C38.7593 15.456 38.9833 14.88 39.6873 14.016ZM56.0669 16.432V22.864C56.0669 23.216 56.1309 24 55.3149 24C54.6589 24 54.5469 23.456 54.5469 22.928V22.672L53.2989 23.488C52.8029 23.808 52.3869 24 51.9709 24H50.8349C50.4029 24 49.9229 23.872 49.4109 23.44C48.7229 22.848 48.7389 22.192 48.7069 21.36L48.5469 16.528C48.5309 15.968 48.6109 15.376 49.3149 15.376C49.9709 15.376 50.0509 15.936 50.0669 16.432L50.2269 21.152C50.2429 21.504 50.2589 21.92 50.3869 22.144C50.5149 22.368 50.9149 22.464 51.2829 22.464H51.7949C51.9709 22.464 52.1309 22.416 52.2749 22.32L54.5309 20.896V16.432C54.5309 15.904 54.6429 15.376 55.2989 15.376C55.9549 15.376 56.0669 15.904 56.0669 16.432ZM65.0225 16.912H62.6865C62.3665 16.912 61.8225 16.848 61.8225 17.344C61.8225 17.6 62.0145 17.696 62.2385 17.792L66.0785 19.536C67.0705 19.984 67.5825 20.608 67.5825 21.712C67.5825 23.264 66.5265 24 65.0545 24H62.6865C61.8865 24 61.3425 23.968 60.7665 23.52C60.4785 23.296 60.0625 23.008 60.0625 22.624C60.0625 22.192 60.4305 21.856 60.8625 21.856C61.1025 21.856 61.2785 21.936 61.4545 22.128C61.7265 22.432 62.2065 22.464 62.6865 22.464H64.7665C65.3105 22.464 66.0465 22.512 66.0465 21.616C66.0465 21.248 65.5985 21.008 65.2465 20.848L61.6305 19.2C60.7825 18.816 60.2865 18.32 60.2865 17.328C60.2865 16.112 61.2465 15.376 62.3985 15.376H65.0225C65.8705 15.376 66.2225 15.424 66.7985 15.904C67.0865 16.144 67.4065 16.336 67.4065 16.768C67.4065 17.2 67.0385 17.536 66.6225 17.536C66.3345 17.536 66.1585 17.424 65.9665 17.216C65.7105 16.944 65.4385 16.912 65.0225 16.912ZM78.0421 24H74.3941C73.7541 24 73.4981 24 73.0181 23.584L72.3621 23.008C71.7541 22.464 71.5781 22.112 71.5781 21.28V18.32C71.5781 17.504 71.6901 17.024 72.3301 16.48L72.8741 16.016C73.5941 15.392 73.9461 15.376 74.5701 15.376H75.9781C76.7301 15.376 77.0821 15.456 77.6741 15.936L78.2981 16.432C79.0021 16.992 79.0981 17.584 79.0981 18.432V19.664C79.0981 20.544 78.9541 20.8 78.0421 20.8H73.1141V21.312C73.1141 21.456 73.2261 21.648 73.3381 21.76L73.7221 22.176C73.9301 22.4 74.2341 22.464 74.7461 22.464H78.0421C78.5541 22.464 79.0981 22.576 79.0981 23.232C79.0981 23.904 78.4901 24 78.0421 24ZM73.1141 18.176V19.264H77.5621V18.336C77.5621 18.048 77.5781 17.808 77.3701 17.616L76.7781 17.104C76.5861 16.928 76.2821 16.912 76.0421 16.912H74.7461C74.4581 16.912 74.2181 16.912 73.9621 17.088L73.4341 17.472C73.2421 17.616 73.1141 17.728 73.1141 18.176ZM83.0938 22.944V16.512C83.0938 15.952 83.1578 15.376 83.8618 15.376C84.4698 15.376 84.6298 15.888 84.6298 16.4V17.024L85.8298 16.032C86.2618 15.68 86.7098 15.376 87.1898 15.376H88.4218C89.0138 15.376 89.5098 15.568 89.9258 15.984C90.4378 16.496 90.6138 17.024 90.6138 17.728C90.6138 18.256 90.5178 18.8 89.8618 18.8C89.3018 18.8 89.0778 18.352 89.0778 17.856C89.0778 17.6 89.0778 17.408 88.9178 17.184C88.7258 16.912 88.3578 16.912 87.9898 16.912H87.5418C87.2538 16.912 87.0458 17.056 86.7738 17.28L84.6298 19.056V22.944C84.6298 23.472 84.5178 24 83.8618 24C83.2057 24 83.0938 23.472 83.0938 22.944ZM94.6094 22.672L97.4574 17.776L94.6094 12.88C94.4974 12.704 94.4174 12.528 94.4174 12.304C94.4174 11.888 94.8014 11.552 95.2014 11.552C95.7294 11.552 95.9054 11.952 96.1294 12.336L98.3694 16.16L100.609 12.336C100.833 11.952 101.009 11.552 101.537 11.552C101.937 11.552 102.321 11.888 102.321 12.304C102.321 12.528 102.241 12.704 102.129 12.88L99.2814 17.776L102.129 22.672C102.241 22.848 102.321 23.024 102.321 23.248C102.321 23.664 101.937 24 101.537 24C101.009 24 100.833 23.6 100.609 23.216L98.3694 19.392L96.1294 23.216C95.9054 23.6 95.7294 24 95.2014 24C94.8014 24 94.4174 23.664 94.4174 23.248C94.4174 23.024 94.4974 22.848 94.6094 22.672ZM109.453 12.128L110.989 14.016C111.693 14.88 111.917 15.456 111.917 16.56V18.992C111.917 20.112 111.693 20.672 110.989 21.536L109.405 23.488C109.181 23.76 109.005 24 108.621 24C108.189 24 107.853 23.648 107.853 23.2C107.853 22.928 108.061 22.688 108.221 22.464L109.901 20.24C110.317 19.696 110.317 19.664 110.317 18.992V16.56C110.317 15.888 110.317 15.856 109.901 15.312L108.173 13.04C108.029 12.848 107.853 12.624 107.853 12.352C107.853 11.952 108.173 11.552 108.589 11.552C109.021 11.552 109.197 11.808 109.453 12.128Z" fill="white"/>
<path d="M0 0V-1H-1V0H0ZM0 1H148V-1H0V1ZM1 39V0H-1V39H1Z" fill="#5B5B5B" mask="url(#path-3-inside-1_2025_1157)"/>
<mask id="path-6-inside-2_2025_1157" fill="white">
<path d="M148 0H286V39H148V0Z"/>
</mask>
<path d="M148 0H286V39H148V0Z" fill="white" fill-opacity="0.01"/>
<path d="M163.017 22.1364C162.401 22.1364 161.895 21.9915 161.5 21.7017C161.108 21.4119 160.835 21.0128 160.682 20.5043C160.528 19.9957 160.506 19.4148 160.614 18.7614C160.722 18.0966 160.94 17.5099 161.27 17.0014C161.599 16.4901 162.01 16.0909 162.501 15.804C162.993 15.5142 163.534 15.3693 164.125 15.3693C164.585 15.3693 164.986 15.4545 165.327 15.625C165.668 15.7955 165.93 16.0341 166.115 16.3409C166.3 16.6477 166.386 17.0057 166.375 17.4148H165.369C165.341 17.1165 165.213 16.8523 164.986 16.6222C164.761 16.3892 164.429 16.2727 163.989 16.2727C163.597 16.2727 163.236 16.375 162.906 16.5795C162.577 16.7812 162.3 17.0668 162.075 17.4361C161.851 17.8026 161.699 18.233 161.619 18.7273C161.534 19.233 161.541 19.6733 161.641 20.0483C161.74 20.4233 161.92 20.7145 162.182 20.9219C162.443 21.1293 162.773 21.233 163.17 21.233C163.432 21.233 163.676 21.1875 163.903 21.0966C164.131 21.0057 164.332 20.875 164.509 20.7045C164.685 20.5341 164.824 20.3295 164.926 20.0909H165.932C165.807 20.4773 165.607 20.8253 165.331 21.1349C165.055 21.4418 164.722 21.6861 164.33 21.8679C163.938 22.0469 163.5 22.1364 163.017 22.1364ZM166.669 24.4545L168.178 15.4545H169.149L168.979 16.4943H169.098C169.189 16.3807 169.314 16.2358 169.473 16.0597C169.635 15.8807 169.852 15.7216 170.125 15.5824C170.401 15.4403 170.751 15.3693 171.178 15.3693C171.729 15.3693 172.19 15.5071 172.562 15.7827C172.935 16.0582 173.197 16.4489 173.351 16.9545C173.504 17.4602 173.524 18.0568 173.411 18.7443C173.297 19.4375 173.08 20.0384 172.759 20.5469C172.438 21.0526 172.045 21.4446 171.582 21.723C171.119 21.9986 170.615 22.1364 170.07 22.1364C169.649 22.1364 169.324 22.0668 169.094 21.9276C168.864 21.7855 168.696 21.625 168.591 21.446C168.486 21.2642 168.405 21.1136 168.348 20.9943H168.263L167.683 24.4545H166.669ZM168.621 18.7273C168.541 19.2216 168.541 19.6577 168.621 20.0355C168.703 20.4105 168.866 20.7045 169.111 20.9176C169.358 21.1278 169.683 21.233 170.087 21.233C170.507 21.233 170.875 21.1222 171.19 20.9006C171.509 20.6761 171.77 20.375 171.974 19.9972C172.182 19.6165 172.325 19.1932 172.405 18.7273C172.479 18.267 172.476 17.8523 172.396 17.483C172.317 17.1108 172.155 16.8168 171.911 16.6009C171.666 16.3821 171.331 16.2727 170.905 16.2727C170.496 16.2727 170.134 16.3764 169.818 16.5838C169.506 16.7884 169.247 17.0753 169.043 17.4446C168.841 17.8111 168.7 18.2386 168.621 18.7273ZM179.431 18.0625L178.783 22H177.777L179.226 13.2727H180.232L179.703 16.4773H179.789C179.993 16.1364 180.266 15.8665 180.607 15.6676C180.951 15.4688 181.382 15.3693 181.902 15.3693C182.346 15.3693 182.719 15.4588 183.023 15.6378C183.33 15.8139 183.546 16.0852 183.671 16.4517C183.799 16.8153 183.817 17.2784 183.726 17.8409L183.027 22H182.022L182.703 17.9091C182.789 17.3892 182.719 16.9872 182.495 16.7031C182.273 16.4162 181.928 16.2727 181.459 16.2727C181.13 16.2727 180.823 16.3423 180.539 16.4815C180.257 16.6207 180.019 16.8239 179.823 17.0909C179.63 17.358 179.499 17.6818 179.431 18.0625ZM187.594 22.1364C186.967 22.1364 186.448 21.9972 186.039 21.7188C185.63 21.4375 185.344 21.0455 185.183 20.5426C185.021 20.0369 184.995 19.4489 185.106 18.7784C185.217 18.108 185.437 17.517 185.766 17.0057C186.096 16.4915 186.506 16.0909 186.998 15.804C187.489 15.5142 188.029 15.3693 188.617 15.3693C188.958 15.3693 189.286 15.4261 189.602 15.5398C189.917 15.6534 190.19 15.8381 190.42 16.0938C190.65 16.3466 190.81 16.6818 190.901 17.0994C190.992 17.517 190.987 18.0312 190.884 18.642L190.816 19.0682H185.771L185.907 18.1989H189.93C189.995 17.8295 189.978 17.5 189.879 17.2102C189.782 16.9205 189.613 16.6918 189.371 16.5241C189.133 16.3565 188.83 16.2727 188.464 16.2727C188.086 16.2727 187.734 16.375 187.407 16.5795C187.08 16.7812 186.808 17.0369 186.589 17.3466C186.37 17.6534 186.234 17.9659 186.18 18.2841L186.06 19.0341C185.975 19.5767 185.988 20.0085 186.099 20.3295C186.212 20.6506 186.41 20.8821 186.691 21.0241C186.972 21.1634 187.325 21.233 187.748 21.233C188.018 21.233 188.266 21.196 188.494 21.1222C188.721 21.0455 188.924 20.9318 189.103 20.7812C189.282 20.6278 189.433 20.4375 189.555 20.2102L190.475 20.483C190.319 20.8125 190.099 21.1023 189.815 21.3523C189.533 21.5994 189.204 21.7926 188.826 21.9318C188.451 22.0682 188.04 22.1364 187.594 22.1364ZM194.33 13.2727L192.881 22H191.875L193.324 13.2727H194.33ZM197.186 22.1364C196.637 22.1364 196.177 21.9986 195.805 21.723C195.433 21.4446 195.17 21.0526 195.017 20.5469C194.866 20.0384 194.848 19.4375 194.961 18.7443C195.078 18.0568 195.295 17.4602 195.613 16.9545C195.934 16.4489 196.328 16.0582 196.794 15.7827C197.26 15.5071 197.768 15.3693 198.319 15.3693C198.745 15.3693 199.071 15.4403 199.295 15.5824C199.522 15.7216 199.687 15.8807 199.789 16.0597C199.892 16.2358 199.97 16.3807 200.024 16.4943H200.109L200.646 13.2727H201.652L200.203 22H199.231L199.402 20.9943H199.282C199.189 21.1136 199.058 21.2642 198.89 21.446C198.723 21.625 198.501 21.7855 198.225 21.9276C197.953 22.0668 197.606 22.1364 197.186 22.1364ZM197.433 21.233C197.836 21.233 198.197 21.1278 198.515 20.9176C198.836 20.7045 199.103 20.4105 199.316 20.0355C199.529 19.6577 199.677 19.2216 199.76 18.7273C199.842 18.2386 199.839 17.8111 199.751 17.4446C199.663 17.0753 199.494 16.7884 199.244 16.5838C198.994 16.3764 198.663 16.2727 198.251 16.2727C197.828 16.2727 197.46 16.3821 197.147 16.6009C196.835 16.8168 196.581 17.1108 196.385 17.483C196.189 17.8523 196.052 18.267 195.975 18.7273C195.899 19.1932 195.897 19.6165 195.971 19.9972C196.045 20.375 196.201 20.6761 196.44 20.9006C196.681 21.1222 197.012 21.233 197.433 21.233ZM205.687 22L207.136 13.2727H208.142L207.613 16.4943H207.699C207.789 16.3807 207.916 16.2358 208.078 16.0597C208.24 15.8807 208.457 15.7216 208.73 15.5824C209.002 15.4403 209.352 15.3693 209.778 15.3693C210.329 15.3693 210.791 15.5071 211.163 15.7827C211.538 16.0582 211.801 16.4489 211.951 16.9545C212.105 17.4602 212.125 18.0568 212.011 18.7443C211.897 19.4375 211.68 20.0384 211.359 20.5469C211.041 21.0526 210.649 21.4446 210.183 21.723C209.72 21.9986 209.216 22.1364 208.67 22.1364C208.25 22.1364 207.924 22.0668 207.694 21.9276C207.467 21.7855 207.299 21.625 207.191 21.446C207.086 21.2642 207.005 21.1136 206.949 20.9943H206.829L206.659 22H205.687ZM207.221 18.7273C207.142 19.2216 207.143 19.6577 207.225 20.0355C207.308 20.4105 207.471 20.7045 207.716 20.9176C207.96 21.1278 208.284 21.233 208.687 21.233C209.108 21.233 209.477 21.1222 209.795 20.9006C210.113 20.6761 210.375 20.375 210.579 19.9972C210.784 19.6165 210.926 19.1932 211.005 18.7273C211.079 18.267 211.076 17.8523 210.997 17.483C210.92 17.1108 210.758 16.8168 210.511 16.6009C210.267 16.3821 209.931 16.2727 209.505 16.2727C209.096 16.2727 208.734 16.3764 208.419 16.5838C208.106 16.7884 207.848 17.0753 207.643 17.4446C207.441 17.8111 207.301 18.2386 207.221 18.7273ZM213.017 24.4545C212.846 24.4545 212.696 24.4403 212.565 24.4119C212.437 24.3864 212.349 24.3608 212.301 24.3352L212.71 23.4489C212.943 23.5114 213.15 23.5298 213.332 23.5043C213.517 23.4815 213.691 23.392 213.856 23.2358C214.024 23.0824 214.199 22.8409 214.38 22.5114L214.662 22L213.349 15.4545H214.397L215.335 20.6875H215.403L218.079 15.4545H219.213L215.199 22.946C215.011 23.2955 214.805 23.581 214.581 23.8026C214.356 24.0241 214.113 24.1875 213.852 24.2926C213.591 24.4006 213.312 24.4545 213.017 24.4545ZM227.392 19.3239L228.04 15.4545H229.046L227.955 22H226.949L227.137 20.892H227.069C226.864 21.2244 226.578 21.5071 226.212 21.7401C225.846 21.9702 225.415 22.0852 224.921 22.0852C224.512 22.0852 224.162 21.9957 223.873 21.8168C223.586 21.6349 223.381 21.3622 223.259 20.9986C223.14 20.6321 223.125 20.1705 223.216 19.6136L223.915 15.4545H224.921L224.239 19.5455C224.162 20.0227 224.235 20.4034 224.456 20.6875C224.678 20.9716 224.998 21.1136 225.415 21.1136C225.665 21.1136 225.929 21.0497 226.208 20.9219C226.489 20.794 226.739 20.598 226.958 20.3338C227.179 20.0696 227.324 19.733 227.392 19.3239ZM235.286 16.9205L234.331 17.1761C234.297 17.0227 234.237 16.875 234.152 16.733C234.07 16.5881 233.942 16.4702 233.768 16.3793C233.598 16.2855 233.365 16.2386 233.07 16.2386C232.669 16.2386 232.321 16.331 232.026 16.5156C231.73 16.6974 231.561 16.929 231.518 17.2102C231.476 17.4574 231.533 17.6548 231.689 17.8026C231.845 17.9503 232.107 18.071 232.473 18.1648L233.411 18.4034C233.973 18.5483 234.374 18.7656 234.612 19.0554C234.854 19.3423 234.936 19.7159 234.859 20.1761C234.797 20.5511 234.634 20.8864 234.369 21.1818C234.105 21.4773 233.767 21.7102 233.355 21.8807C232.943 22.0511 232.484 22.1364 231.979 22.1364C231.305 22.1364 230.774 21.9915 230.385 21.7017C229.996 21.4091 229.788 20.9858 229.763 20.4318L230.768 20.1932C230.794 20.5426 230.919 20.8068 231.143 20.9858C231.371 21.1619 231.689 21.25 232.098 21.25C232.567 21.25 232.957 21.1506 233.27 20.9517C233.582 20.75 233.76 20.5085 233.803 20.2273C233.845 19.9972 233.8 19.8054 233.666 19.652C233.536 19.4986 233.308 19.3835 232.984 19.3068L231.945 19.0511C231.365 18.9062 230.959 18.6847 230.726 18.3864C230.496 18.0881 230.419 17.7131 230.496 17.2614C230.558 16.892 230.717 16.5653 230.973 16.2812C231.232 15.9972 231.555 15.7741 231.945 15.6122C232.337 15.4503 232.763 15.3693 233.223 15.3693C233.871 15.3693 234.355 15.5114 234.676 15.7955C234.997 16.0767 235.2 16.4517 235.286 16.9205ZM238.794 22.1364C238.166 22.1364 237.647 21.9972 237.238 21.7188C236.829 21.4375 236.544 21.0455 236.382 20.5426C236.22 20.0369 236.194 19.4489 236.305 18.7784C236.416 18.108 236.636 17.517 236.966 17.0057C237.295 16.4915 237.706 16.0909 238.197 15.804C238.689 15.5142 239.228 15.3693 239.816 15.3693C240.157 15.3693 240.485 15.4261 240.801 15.5398C241.116 15.6534 241.389 15.8381 241.619 16.0938C241.849 16.3466 242.01 16.6818 242.1 17.0994C242.191 17.517 242.186 18.0312 242.083 18.642L242.015 19.0682H236.97L237.106 18.1989H241.129C241.194 17.8295 241.177 17.5 241.078 17.2102C240.981 16.9205 240.812 16.6918 240.571 16.5241C240.332 16.3565 240.029 16.2727 239.663 16.2727C239.285 16.2727 238.933 16.375 238.606 16.5795C238.279 16.7812 238.007 17.0369 237.788 17.3466C237.569 17.6534 237.433 17.9659 237.379 18.2841L237.26 19.0341C237.174 19.5767 237.187 20.0085 237.298 20.3295C237.412 20.6506 237.609 20.8821 237.89 21.0241C238.172 21.1634 238.524 21.233 238.947 21.233C239.217 21.233 239.466 21.196 239.693 21.1222C239.92 21.0455 240.123 20.9318 240.302 20.7812C240.481 20.6278 240.632 20.4375 240.754 20.2102L241.674 20.483C241.518 20.8125 241.298 21.1023 241.014 21.3523C240.733 21.5994 240.403 21.7926 240.025 21.9318C239.65 22.0682 239.24 22.1364 238.794 22.1364ZM243.074 22L244.165 15.4545H245.137L244.966 16.4432H245.034C245.205 16.1193 245.465 15.8565 245.814 15.6548C246.164 15.4531 246.534 15.3523 246.926 15.3523C247.003 15.3523 247.096 15.3537 247.203 15.3565C247.311 15.3565 247.395 15.3608 247.455 15.3693L247.284 16.392C247.25 16.3835 247.174 16.3707 247.054 16.3537C246.935 16.3338 246.807 16.3239 246.671 16.3239C246.353 16.3239 246.059 16.3906 245.789 16.5241C245.519 16.6548 245.293 16.8366 245.111 17.0696C244.929 17.2997 244.813 17.5625 244.762 17.858L244.08 22H243.074ZM253.034 13.2727L254.688 16.9034H254.756L257.602 13.2727H258.847L255.386 17.6364L257.398 22H256.153L254.5 18.4375H254.432L251.585 22H250.341L253.886 17.6364L251.79 13.2727H253.034Z" fill="white"/>
<path d="M148 0V-1H147V0H148ZM148 1H286V-1H148V1ZM149 39V0H147V39H149Z" fill="#5B5B5B" mask="url(#path-6-inside-2_2025_1157)"/>
</g>
<g clip-path="url(#clip2_2025_1157)">
<rect width="286" height="39" transform="translate(0 39)" fill="white" fill-opacity="0.01"/>
<mask id="path-9-inside-3_2025_1157" fill="white">
<path d="M0 39H148V78H0V39Z"/>
</mask>
<path d="M0 39H148V78H0V39Z" fill="white" fill-opacity="0.01"/>
<path d="M13.808 62.2L16.944 51.368C17.072 50.936 17.248 50.552 17.76 50.552C18.288 50.552 18.48 50.952 18.592 51.368L21.68 62.2C21.792 62.584 21.36 63 20.912 63C20.416 63 20.16 62.584 20.048 62.2L19.456 60.28H16.048L15.44 62.2C15.328 62.584 15.072 63 14.576 63C14.128 63 13.696 62.584 13.808 62.2ZM19.008 58.68L17.776 54.344H17.744L16.496 58.68H19.008Z" fill="white"/>
<path d="M0 39V38H-1V39H0ZM0 40H148V38H0V40ZM1 78V39H-1V78H1Z" fill="#5B5B5B" mask="url(#path-9-inside-3_2025_1157)"/>
<mask id="path-12-inside-4_2025_1157" fill="white">
<path d="M148 39H286V78H148V39Z"/>
</mask>
<path d="M148 39H286V78H148V39Z" fill="white" fill-opacity="0.01"/>
<path d="M165.864 55.9205L164.909 56.1761C164.875 56.0227 164.815 55.875 164.73 55.733C164.648 55.5881 164.52 55.4702 164.347 55.3793C164.176 55.2855 163.943 55.2386 163.648 55.2386C163.247 55.2386 162.899 55.331 162.604 55.5156C162.308 55.6974 162.139 55.929 162.097 56.2102C162.054 56.4574 162.111 56.6548 162.267 56.8026C162.423 56.9503 162.685 57.071 163.051 57.1648L163.989 57.4034C164.551 57.5483 164.952 57.7656 165.19 58.0554C165.432 58.3423 165.514 58.7159 165.438 59.1761C165.375 59.5511 165.212 59.8864 164.947 60.1818C164.683 60.4773 164.345 60.7102 163.933 60.8807C163.521 61.0511 163.062 61.1364 162.557 61.1364C161.884 61.1364 161.352 60.9915 160.963 60.7017C160.574 60.4091 160.366 59.9858 160.341 59.4318L161.347 59.1932C161.372 59.5426 161.497 59.8068 161.722 59.9858C161.949 60.1619 162.267 60.25 162.676 60.25C163.145 60.25 163.536 60.1506 163.848 59.9517C164.161 59.75 164.338 59.5085 164.381 59.2273C164.423 58.9972 164.378 58.8054 164.244 58.652C164.114 58.4986 163.886 58.3835 163.562 58.3068L162.523 58.0511C161.943 57.9062 161.537 57.6847 161.304 57.3864C161.074 57.0881 160.997 56.7131 161.074 56.2614C161.136 55.892 161.295 55.5653 161.551 55.2812C161.81 54.9972 162.134 54.7741 162.523 54.6122C162.915 54.4503 163.341 54.3693 163.801 54.3693C164.449 54.3693 164.933 54.5114 165.254 54.7955C165.575 55.0767 165.778 55.4517 165.864 55.9205ZM169.372 61.1364C168.744 61.1364 168.225 60.9972 167.816 60.7188C167.407 60.4375 167.122 60.0455 166.96 59.5426C166.798 59.0369 166.772 58.4489 166.883 57.7784C166.994 57.108 167.214 56.517 167.544 56.0057C167.873 55.4915 168.284 55.0909 168.775 54.804C169.267 54.5142 169.806 54.3693 170.395 54.3693C170.735 54.3693 171.064 54.4261 171.379 54.5398C171.694 54.6534 171.967 54.8381 172.197 55.0938C172.427 55.3466 172.588 55.6818 172.679 56.0994C172.77 56.517 172.764 57.0312 172.662 57.642L172.593 58.0682H167.548L167.684 57.1989H171.707C171.772 56.8295 171.755 56.5 171.656 56.2102C171.559 55.9205 171.39 55.6918 171.149 55.5241C170.91 55.3565 170.608 55.2727 170.241 55.2727C169.863 55.2727 169.511 55.375 169.184 55.5795C168.858 55.7812 168.585 56.0369 168.366 56.3466C168.147 56.6534 168.011 56.9659 167.957 57.2841L167.838 58.0341C167.752 58.5767 167.765 59.0085 167.876 59.3295C167.99 59.6506 168.187 59.8821 168.468 60.0241C168.75 60.1634 169.102 60.233 169.525 60.233C169.795 60.233 170.044 60.196 170.271 60.1222C170.498 60.0455 170.701 59.9318 170.88 59.7812C171.059 59.6278 171.21 59.4375 171.332 59.2102L172.252 59.483C172.096 59.8125 171.876 60.1023 171.592 60.3523C171.311 60.5994 170.981 60.7926 170.603 60.9318C170.228 61.0682 169.818 61.1364 169.372 61.1364ZM177.59 54.4545L177.453 55.3068H174.061L174.198 54.4545H177.59ZM175.442 52.8864H176.448L175.408 59.125C175.363 59.4091 175.37 59.6222 175.429 59.7642C175.492 59.9034 175.586 59.9972 175.711 60.0455C175.838 60.0909 175.976 60.1136 176.124 60.1136C176.235 60.1136 176.326 60.108 176.397 60.0966C176.468 60.0824 176.525 60.071 176.567 60.0625L176.635 60.9659C176.559 60.9915 176.455 61.017 176.324 61.0426C176.196 61.071 176.039 61.0852 175.851 61.0852C175.567 61.0852 175.3 61.0241 175.05 60.902C174.8 60.7798 174.608 60.5938 174.475 60.3438C174.341 60.0938 174.306 59.7784 174.368 59.3977L175.442 52.8864ZM184.088 61.1364C183.486 61.1364 182.982 60.9929 182.576 60.706C182.169 60.419 181.882 60.017 181.715 59.5C181.55 58.983 181.523 58.3807 181.634 57.6932C181.742 57.0227 181.956 56.4389 182.277 55.9418C182.601 55.4418 183.003 55.0554 183.483 54.7827C183.966 54.5071 184.498 54.3693 185.077 54.3693C185.679 54.3693 186.182 54.5142 186.586 54.804C186.992 55.0909 187.279 55.4943 187.446 56.0142C187.614 56.5312 187.642 57.1364 187.532 57.8295C187.424 58.4943 187.206 59.0753 186.88 59.5724C186.556 60.0668 186.154 60.4517 185.674 60.7273C185.196 61 184.668 61.1364 184.088 61.1364ZM184.105 60.233C184.566 60.233 184.965 60.1151 185.303 59.8793C185.644 59.6435 185.919 59.3324 186.13 58.946C186.343 58.5597 186.486 58.142 186.56 57.6932C186.628 57.267 186.625 56.8707 186.551 56.5043C186.478 56.1349 186.32 55.8381 186.078 55.6136C185.837 55.3864 185.498 55.2727 185.06 55.2727C184.6 55.2727 184.198 55.392 183.854 55.6307C183.513 55.8693 183.238 56.1832 183.027 56.5724C182.817 56.9616 182.676 57.3807 182.605 57.8295C182.537 58.2557 182.539 58.652 182.61 59.0185C182.684 59.3821 182.841 59.6761 183.083 59.9006C183.327 60.1222 183.668 60.233 184.105 60.233ZM192.553 54.4545L192.416 55.3068H188.888L189.024 54.4545H192.553ZM188.99 61L190.234 53.5511C190.291 53.1761 190.428 52.8636 190.643 52.6136C190.862 52.3636 191.122 52.1761 191.423 52.0511C191.727 51.9261 192.036 51.8636 192.348 51.8636C192.595 51.8636 192.793 51.8835 192.94 51.9233C193.091 51.9631 193.2 52 193.268 52.0341L192.842 52.9034C192.791 52.8864 192.723 52.8651 192.638 52.8395C192.555 52.8139 192.442 52.8011 192.297 52.8011C191.964 52.8011 191.712 52.8849 191.538 53.0526C191.365 53.2202 191.249 53.4659 191.189 53.7898L189.996 61H188.99ZM198.155 61.1534C197.74 61.1534 197.377 61.0753 197.064 60.919C196.752 60.7599 196.52 60.5312 196.37 60.233C196.219 59.9318 196.178 59.5682 196.246 59.142C196.311 58.767 196.438 58.4631 196.625 58.2301C196.813 57.9943 197.04 57.8097 197.307 57.6761C197.577 57.5398 197.867 57.4389 198.176 57.3736C198.489 57.3054 198.8 57.2528 199.11 57.2159C199.513 57.1648 199.841 57.125 200.094 57.0966C200.347 57.0682 200.537 57.0213 200.665 56.956C200.793 56.8906 200.871 56.7784 200.9 56.6193V56.5852C200.968 56.1676 200.912 55.8423 200.733 55.6094C200.554 55.3736 200.235 55.2557 199.775 55.2557C199.297 55.2557 198.898 55.3608 198.577 55.571C198.256 55.7812 198.019 56.0057 197.865 56.2443L196.979 55.9034C197.212 55.5057 197.49 55.196 197.814 54.9744C198.138 54.75 198.478 54.5937 198.833 54.5057C199.188 54.4148 199.53 54.3693 199.86 54.3693C200.07 54.3693 200.307 54.3949 200.571 54.446C200.836 54.4943 201.083 54.5952 201.313 54.7486C201.546 54.902 201.721 55.1335 201.837 55.4432C201.956 55.7528 201.973 56.1676 201.888 56.6875L201.172 61H200.167L200.32 60.1136H200.269C200.178 60.2557 200.039 60.4077 199.851 60.5696C199.667 60.7315 199.432 60.8693 199.148 60.983C198.867 61.0966 198.536 61.1534 198.155 61.1534ZM198.445 60.25C198.843 60.25 199.191 60.1719 199.489 60.0156C199.79 59.8594 200.032 59.6577 200.213 59.4105C200.398 59.1634 200.513 58.9034 200.559 58.6307L200.712 57.7102C200.661 57.7614 200.56 57.8082 200.409 57.8509C200.259 57.8906 200.088 57.9261 199.898 57.9574C199.711 57.9858 199.527 58.0114 199.348 58.0341C199.172 58.054 199.03 58.071 198.922 58.0852C198.655 58.1193 198.401 58.1747 198.159 58.2514C197.921 58.3253 197.719 58.4375 197.554 58.5881C197.392 58.7358 197.292 58.9375 197.252 59.1932C197.192 59.5426 197.276 59.8068 197.503 59.9858C197.73 60.1619 198.044 60.25 198.445 60.25ZM205.462 52.2727L204.013 61H203.008L204.457 52.2727H205.462ZM208.31 52.2727L206.861 61H205.855L207.304 52.2727H208.31ZM216.646 58.3239L217.294 54.4545H218.3L217.209 61H216.203L216.391 59.892H216.322C216.118 60.2244 215.832 60.5071 215.466 60.7401C215.099 60.9702 214.669 61.0852 214.175 61.0852C213.766 61.0852 213.416 60.9957 213.126 60.8168C212.839 60.6349 212.635 60.3622 212.513 59.9986C212.393 59.6321 212.379 59.1705 212.47 58.6136L213.169 54.4545H214.175L213.493 58.5455C213.416 59.0227 213.489 59.4034 213.71 59.6875C213.932 59.9716 214.251 60.1136 214.669 60.1136C214.919 60.1136 215.183 60.0497 215.462 59.9219C215.743 59.794 215.993 59.598 216.212 59.3338C216.433 59.0696 216.578 58.733 216.646 58.3239ZM224.539 55.9205L223.585 56.1761C223.551 56.0227 223.491 55.875 223.406 55.733C223.324 55.5881 223.196 55.4702 223.022 55.3793C222.852 55.2855 222.619 55.2386 222.324 55.2386C221.923 55.2386 221.575 55.331 221.279 55.5156C220.984 55.6974 220.815 55.929 220.772 56.2102C220.73 56.4574 220.787 56.6548 220.943 56.8026C221.099 56.9503 221.36 57.071 221.727 57.1648L222.664 57.4034C223.227 57.5483 223.627 57.7656 223.866 58.0554C224.108 58.3423 224.19 58.7159 224.113 59.1761C224.051 59.5511 223.887 59.8864 223.623 60.1818C223.359 60.4773 223.021 60.7102 222.609 60.8807C222.197 61.0511 221.738 61.1364 221.233 61.1364C220.559 61.1364 220.028 60.9915 219.639 60.7017C219.25 60.4091 219.042 59.9858 219.017 59.4318L220.022 59.1932C220.048 59.5426 220.173 59.8068 220.397 59.9858C220.625 60.1619 220.943 60.25 221.352 60.25C221.821 60.25 222.211 60.1506 222.524 59.9517C222.836 59.75 223.014 59.5085 223.056 59.2273C223.099 58.9972 223.054 58.8054 222.92 58.652C222.789 58.4986 222.562 58.3835 222.238 58.3068L221.199 58.0511C220.619 57.9062 220.213 57.6847 219.98 57.3864C219.75 57.0881 219.673 56.7131 219.75 56.2614C219.812 55.892 219.971 55.5653 220.227 55.2812C220.485 54.9972 220.809 54.7741 221.199 54.6122C221.591 54.4503 222.017 54.3693 222.477 54.3693C223.125 54.3693 223.609 54.5114 223.93 54.7955C224.251 55.0767 224.454 55.4517 224.539 55.9205ZM228.048 61.1364C227.42 61.1364 226.901 60.9972 226.492 60.7188C226.083 60.4375 225.798 60.0455 225.636 59.5426C225.474 59.0369 225.448 58.4489 225.559 57.7784C225.67 57.108 225.89 56.517 226.219 56.0057C226.549 55.4915 226.96 55.0909 227.451 54.804C227.942 54.5142 228.482 54.3693 229.07 54.3693C229.411 54.3693 229.739 54.4261 230.055 54.5398C230.37 54.6534 230.643 54.8381 230.873 55.0938C231.103 55.3466 231.263 55.6818 231.354 56.0994C231.445 56.517 231.44 57.0312 231.337 57.642L231.269 58.0682H226.224L226.36 57.1989H230.383C230.448 56.8295 230.431 56.5 230.332 56.2102C230.235 55.9205 230.066 55.6918 229.825 55.5241C229.586 55.3565 229.283 55.2727 228.917 55.2727C228.539 55.2727 228.187 55.375 227.86 55.5795C227.533 55.7812 227.261 56.0369 227.042 56.3466C226.823 56.6534 226.687 56.9659 226.633 57.2841L226.513 58.0341C226.428 58.5767 226.441 59.0085 226.552 59.3295C226.665 59.6506 226.863 59.8821 227.144 60.0241C227.425 60.1634 227.778 60.233 228.201 60.233C228.471 60.233 228.719 60.196 228.947 60.1222C229.174 60.0455 229.377 59.9318 229.556 59.7812C229.735 59.6278 229.886 59.4375 230.008 59.2102L230.928 59.483C230.772 59.8125 230.552 60.1023 230.268 60.3523C229.987 60.5994 229.657 60.7926 229.279 60.9318C228.904 61.0682 228.494 61.1364 228.048 61.1364ZM232.328 61L233.419 54.4545H234.391L234.22 55.4432H234.288C234.459 55.1193 234.719 54.8565 235.068 54.6548C235.418 54.4531 235.788 54.3523 236.18 54.3523C236.257 54.3523 236.349 54.3537 236.457 54.3565C236.565 54.3565 236.649 54.3608 236.709 54.3693L236.538 55.392C236.504 55.3835 236.428 55.3707 236.308 55.3537C236.189 55.3338 236.061 55.3239 235.925 55.3239C235.607 55.3239 235.313 55.3906 235.043 55.5241C234.773 55.6548 234.547 55.8366 234.365 56.0696C234.183 56.2997 234.067 56.5625 234.016 56.858L233.334 61H232.328ZM242.305 55.9205L241.35 56.1761C241.316 56.0227 241.257 55.875 241.172 55.733C241.089 55.5881 240.961 55.4702 240.788 55.3793C240.618 55.2855 240.385 55.2386 240.089 55.2386C239.689 55.2386 239.341 55.331 239.045 55.5156C238.75 55.6974 238.581 55.929 238.538 56.2102C238.495 56.4574 238.552 56.6548 238.708 56.8026C238.865 56.9503 239.126 57.071 239.493 57.1648L240.43 57.4034C240.993 57.5483 241.393 57.7656 241.632 58.0554C241.873 58.3423 241.956 58.7159 241.879 59.1761C241.816 59.5511 241.653 59.8864 241.389 60.1818C241.125 60.4773 240.787 60.7102 240.375 60.8807C239.963 61.0511 239.504 61.1364 238.998 61.1364C238.325 61.1364 237.794 60.9915 237.404 60.7017C237.015 60.4091 236.808 59.9858 236.782 59.4318L237.788 59.1932C237.814 59.5426 237.939 59.8068 238.163 59.9858C238.39 60.1619 238.708 60.25 239.118 60.25C239.586 60.25 239.977 60.1506 240.289 59.9517C240.602 59.75 240.779 59.5085 240.822 59.2273C240.865 58.9972 240.819 58.8054 240.686 58.652C240.555 58.4986 240.328 58.3835 240.004 58.3068L238.964 58.0511C238.385 57.9062 237.978 57.6847 237.745 57.3864C237.515 57.0881 237.439 56.7131 237.515 56.2614C237.578 55.892 237.737 55.5653 237.993 55.2812C238.251 54.9972 238.575 54.7741 238.964 54.6122C239.356 54.4503 239.782 54.3693 240.243 54.3693C240.89 54.3693 241.375 54.5114 241.696 54.7955C242.017 55.0767 242.22 55.4517 242.305 55.9205Z" fill="white"/>
<path d="M148 39V38H147V39H148ZM148 40H286V38H148V40ZM149 78V39H147V78H149Z" fill="#5B5B5B" mask="url(#path-12-inside-4_2025_1157)"/>
</g>
<g clip-path="url(#clip3_2025_1157)">
<rect width="286" height="39" transform="translate(0 78)" fill="white" fill-opacity="0.01"/>
<mask id="path-15-inside-5_2025_1157" fill="white">
<path d="M0 78H148V117H0V78Z"/>
</mask>
<path d="M0 78H148V117H0V78Z" fill="white" fill-opacity="0.01"/>
<path d="M16.96 91.152H15.408V91.728C15.408 92.24 15.184 92.528 14.608 92.528C14.032 92.528 13.808 92.24 13.808 91.728V89.552H21.712V91.728C21.712 92.24 21.488 92.528 20.912 92.528C20.336 92.528 20.112 92.24 20.112 91.728V91.152H18.56V101.2C18.56 101.712 18.336 102 17.76 102C17.184 102 16.96 101.712 16.96 101.2V91.152Z" fill="white"/>
<path d="M0 78V77H-1V78H0ZM0 79H148V77H0V79ZM1 117V78H-1V117H1Z" fill="#5B5B5B" mask="url(#path-15-inside-5_2025_1157)"/>
<mask id="path-18-inside-6_2025_1157" fill="white">
<path d="M148 78H286V117H148V78Z"/>
</mask>
<path d="M148 78H286V117H148V78Z" fill="white" fill-opacity="0.01"/>
<path d="M164.312 93.4545L164.176 94.3068H160.784L160.92 93.4545H164.312ZM162.165 91.8864H163.17L162.131 98.125C162.085 98.4091 162.092 98.6222 162.152 98.7642C162.214 98.9034 162.308 98.9972 162.433 99.0455C162.561 99.0909 162.699 99.1136 162.847 99.1136C162.957 99.1136 163.048 99.108 163.119 99.0966C163.19 99.0824 163.247 99.071 163.29 99.0625L163.358 99.9659C163.281 99.9915 163.178 100.017 163.047 100.043C162.919 100.071 162.761 100.085 162.574 100.085C162.29 100.085 162.023 100.024 161.773 99.902C161.523 99.7798 161.331 99.5938 161.197 99.3438C161.064 99.0938 161.028 98.7784 161.091 98.3977L162.165 91.8864ZM167.366 100.136C166.763 100.136 166.259 99.9929 165.853 99.706C165.447 99.419 165.16 99.017 164.992 98.5C164.827 97.983 164.8 97.3807 164.911 96.6932C165.019 96.0227 165.234 95.4389 165.555 94.9418C165.879 94.4418 166.281 94.0554 166.761 93.7827C167.244 93.5071 167.775 93.3693 168.354 93.3693C168.957 93.3693 169.46 93.5142 169.863 93.804C170.269 94.0909 170.556 94.4943 170.724 95.0142C170.891 95.5312 170.92 96.1364 170.809 96.8295C170.701 97.4943 170.484 98.0753 170.157 98.5724C169.833 99.0668 169.431 99.4517 168.951 99.7273C168.474 100 167.945 100.136 167.366 100.136ZM167.383 99.233C167.843 99.233 168.242 99.1151 168.58 98.8793C168.921 98.6435 169.197 98.3324 169.407 97.946C169.62 97.5597 169.763 97.142 169.837 96.6932C169.906 96.267 169.903 95.8707 169.829 95.5043C169.755 95.1349 169.597 94.8381 169.356 94.6136C169.114 94.3864 168.775 94.2727 168.337 94.2727C167.877 94.2727 167.475 94.392 167.131 94.6307C166.79 94.8693 166.515 95.1832 166.305 95.5724C166.094 95.9616 165.954 96.3807 165.883 96.8295C165.815 97.2557 165.816 97.652 165.887 98.0185C165.961 98.3821 166.119 98.6761 166.36 98.9006C166.604 99.1222 166.945 99.233 167.383 99.233ZM175.762 93.4545L175.625 94.3068H172.233L172.37 93.4545H175.762ZM173.614 91.8864H174.62L173.58 98.125C173.534 98.4091 173.542 98.6222 173.601 98.7642C173.664 98.9034 173.757 98.9972 173.882 99.0455C174.01 99.0909 174.148 99.1136 174.296 99.1136C174.407 99.1136 174.498 99.108 174.569 99.0966C174.64 99.0824 174.696 99.071 174.739 99.0625L174.807 99.9659C174.73 99.9915 174.627 100.017 174.496 100.043C174.368 100.071 174.211 100.085 174.023 100.085C173.739 100.085 173.472 100.024 173.222 99.902C172.972 99.7798 172.78 99.5938 172.647 99.3438C172.513 99.0938 172.478 98.7784 172.54 98.3977L173.614 91.8864ZM178.093 100.153C177.678 100.153 177.314 100.075 177.002 99.919C176.689 99.7599 176.458 99.5312 176.307 99.233C176.157 98.9318 176.115 98.5682 176.184 98.142C176.249 97.767 176.375 97.4631 176.563 97.2301C176.75 96.9943 176.978 96.8097 177.245 96.6761C177.515 96.5398 177.804 96.4389 178.114 96.3736C178.426 96.3054 178.738 96.2528 179.047 96.2159C179.451 96.1648 179.779 96.125 180.032 96.0966C180.284 96.0682 180.475 96.0213 180.603 95.956C180.73 95.8906 180.809 95.7784 180.837 95.6193V95.5852C180.905 95.1676 180.85 94.8423 180.671 94.6094C180.492 94.3736 180.172 94.2557 179.712 94.2557C179.235 94.2557 178.836 94.3608 178.515 94.571C178.194 94.7812 177.956 95.0057 177.803 95.2443L176.917 94.9034C177.15 94.5057 177.428 94.196 177.752 93.9744C178.076 93.75 178.415 93.5937 178.77 93.5057C179.125 93.4148 179.468 93.3693 179.797 93.3693C180.007 93.3693 180.245 93.3949 180.509 93.446C180.773 93.4943 181.02 93.5952 181.25 93.7486C181.483 93.902 181.658 94.1335 181.775 94.4432C181.894 94.7528 181.911 95.1676 181.826 95.6875L181.11 100H180.104L180.257 99.1136H180.206C180.115 99.2557 179.976 99.4077 179.789 99.5696C179.604 99.7315 179.37 99.8693 179.086 99.983C178.804 100.097 178.473 100.153 178.093 100.153ZM178.382 99.25C178.78 99.25 179.128 99.1719 179.426 99.0156C179.728 98.8594 179.969 98.6577 180.151 98.4105C180.336 98.1634 180.451 97.9034 180.496 97.6307L180.65 96.7102C180.598 96.7614 180.498 96.8082 180.347 96.8509C180.196 96.8906 180.026 96.9261 179.836 96.9574C179.648 96.9858 179.465 97.0114 179.286 97.0341C179.11 97.054 178.968 97.071 178.86 97.0852C178.593 97.1193 178.338 97.1747 178.097 97.2514C177.858 97.3253 177.657 97.4375 177.492 97.5881C177.33 97.7358 177.229 97.9375 177.189 98.1932C177.13 98.5426 177.213 98.8068 177.441 98.9858C177.668 99.1619 177.982 99.25 178.382 99.25ZM185.4 91.2727L183.951 100H182.945L184.394 91.2727H185.4ZM189.168 100L190.259 93.4545H191.23L191.06 94.4432H191.128C191.299 94.1193 191.559 93.8565 191.908 93.6548C192.257 93.4531 192.628 93.3523 193.02 93.3523C193.097 93.3523 193.189 93.3537 193.297 93.3565C193.405 93.3565 193.489 93.3608 193.549 93.3693L193.378 94.392C193.344 94.3835 193.267 94.3707 193.148 94.3537C193.029 94.3338 192.901 94.3239 192.765 94.3239C192.446 94.3239 192.152 94.3906 191.882 94.5241C191.613 94.6548 191.387 94.8366 191.205 95.0696C191.023 95.2997 190.907 95.5625 190.855 95.858L190.174 100H189.168ZM196.184 100.136C195.556 100.136 195.038 99.9972 194.629 99.7188C194.22 99.4375 193.934 99.0455 193.772 98.5426C193.61 98.0369 193.585 97.4489 193.696 96.7784C193.806 96.108 194.027 95.517 194.356 95.0057C194.686 94.4915 195.096 94.0909 195.588 93.804C196.079 93.5142 196.619 93.3693 197.207 93.3693C197.548 93.3693 197.876 93.4261 198.191 93.5398C198.507 93.6534 198.779 93.8381 199.01 94.0938C199.24 94.3466 199.4 94.6818 199.491 95.0994C199.582 95.517 199.576 96.0312 199.474 96.642L199.406 97.0682H194.36L194.497 96.1989H198.52C198.585 95.8295 198.568 95.5 198.468 95.2102C198.372 94.9205 198.203 94.6918 197.961 94.5241C197.723 94.3565 197.42 94.2727 197.054 94.2727C196.676 94.2727 196.324 94.375 195.997 94.5795C195.67 94.7812 195.397 95.0369 195.179 95.3466C194.96 95.6534 194.824 95.9659 194.77 96.2841L194.65 97.0341C194.565 97.5767 194.578 98.0085 194.689 98.3295C194.802 98.6506 195 98.8821 195.281 99.0241C195.562 99.1634 195.914 99.233 196.338 99.233C196.608 99.233 196.856 99.196 197.083 99.1222C197.311 99.0455 197.514 98.9318 197.693 98.7812C197.872 98.6278 198.022 98.4375 198.145 98.2102L199.065 98.483C198.909 98.8125 198.689 99.1023 198.404 99.3523C198.123 99.5994 197.794 99.7926 197.416 99.9318C197.041 100.068 196.63 100.136 196.184 100.136ZM201.948 100L201.044 93.4545H202.101L202.681 98.4659H202.749L204.982 93.4545H206.056L206.601 98.4489H206.669L208.919 93.4545H209.976L206.891 100H205.902L205.306 94.9716H205.203L202.936 100H201.948ZM212.124 100.153C211.709 100.153 211.346 100.075 211.033 99.919C210.721 99.7599 210.489 99.5312 210.338 99.233C210.188 98.9318 210.147 98.5682 210.215 98.142C210.28 97.767 210.407 97.4631 210.594 97.2301C210.782 96.9943 211.009 96.8097 211.276 96.6761C211.546 96.5398 211.836 96.4389 212.145 96.3736C212.458 96.3054 212.769 96.2528 213.078 96.2159C213.482 96.1648 213.81 96.125 214.063 96.0966C214.316 96.0682 214.506 96.0213 214.634 95.956C214.762 95.8906 214.84 95.7784 214.868 95.6193V95.5852C214.936 95.1676 214.881 94.8423 214.702 94.6094C214.523 94.3736 214.203 94.2557 213.743 94.2557C213.266 94.2557 212.867 94.3608 212.546 94.571C212.225 94.7812 211.988 95.0057 211.834 95.2443L210.948 94.9034C211.181 94.5057 211.459 94.196 211.783 93.9744C212.107 93.75 212.446 93.5937 212.801 93.5057C213.157 93.4148 213.499 93.3693 213.828 93.3693C214.039 93.3693 214.276 93.3949 214.54 93.446C214.804 93.4943 215.051 93.5952 215.282 93.7486C215.515 93.902 215.689 94.1335 215.806 94.4432C215.925 94.7528 215.942 95.1676 215.857 95.6875L215.141 100H214.135L214.289 99.1136H214.238C214.147 99.2557 214.007 99.4077 213.82 99.5696C213.635 99.7315 213.401 99.8693 213.117 99.983C212.836 100.097 212.505 100.153 212.124 100.153ZM212.414 99.25C212.811 99.25 213.159 99.1719 213.458 99.0156C213.759 98.8594 214 98.6577 214.182 98.4105C214.367 98.1634 214.482 97.9034 214.527 97.6307L214.681 96.7102C214.63 96.7614 214.529 96.8082 214.378 96.8509C214.228 96.8906 214.057 96.9261 213.867 96.9574C213.679 96.9858 213.496 97.0114 213.317 97.0341C213.141 97.054 212.999 97.071 212.891 97.0852C212.624 97.1193 212.37 97.1747 212.128 97.2514C211.89 97.3253 211.688 97.4375 211.523 97.5881C211.361 97.7358 211.26 97.9375 211.221 98.1932C211.161 98.5426 211.245 98.8068 211.472 98.9858C211.699 99.1619 212.013 99.25 212.414 99.25ZM216.977 100L218.067 93.4545H219.039L218.869 94.4432H218.937C219.107 94.1193 219.367 93.8565 219.717 93.6548C220.066 93.4531 220.437 93.3523 220.829 93.3523C220.906 93.3523 220.998 93.3537 221.106 93.3565C221.214 93.3565 221.298 93.3608 221.357 93.3693L221.187 94.392C221.153 94.3835 221.076 94.3707 220.957 94.3537C220.837 94.3338 220.71 94.3239 220.573 94.3239C220.255 94.3239 219.961 94.3906 219.691 94.5241C219.421 94.6548 219.195 94.8366 219.013 95.0696C218.832 95.2997 218.715 95.5625 218.664 95.858L217.982 100H216.977ZM223.729 100.136C223.18 100.136 222.72 99.9986 222.348 99.723C221.976 99.4446 221.713 99.0526 221.56 98.5469C221.409 98.0384 221.391 97.4375 221.504 96.7443C221.621 96.0568 221.838 95.4602 222.156 94.9545C222.477 94.4489 222.871 94.0582 223.337 93.7827C223.803 93.5071 224.311 93.3693 224.862 93.3693C225.288 93.3693 225.614 93.4403 225.838 93.5824C226.065 93.7216 226.23 93.8807 226.332 94.0597C226.435 94.2358 226.513 94.3807 226.567 94.4943H226.652L227.189 91.2727H228.195L226.746 100H225.774L225.945 98.9943H225.825C225.732 99.1136 225.601 99.2642 225.433 99.446C225.266 99.625 225.044 99.7855 224.768 99.9276C224.496 100.067 224.149 100.136 223.729 100.136ZM223.976 99.233C224.379 99.233 224.74 99.1278 225.058 98.9176C225.379 98.7045 225.646 98.4105 225.859 98.0355C226.072 97.6577 226.22 97.2216 226.303 96.7273C226.385 96.2386 226.382 95.8111 226.294 95.4446C226.206 95.0753 226.037 94.7884 225.787 94.5838C225.537 94.3764 225.206 94.2727 224.794 94.2727C224.371 94.2727 224.003 94.3821 223.69 94.6009C223.378 94.8168 223.124 95.1108 222.928 95.483C222.732 95.8523 222.595 96.267 222.518 96.7273C222.442 97.1932 222.44 97.6165 222.514 97.9972C222.588 98.375 222.744 98.6761 222.983 98.9006C223.224 99.1222 223.555 99.233 223.976 99.233Z" fill="white"/>
<path d="M148 78V77H147V78H148ZM148 79H286V77H148V79ZM149 117V78H147V117H149Z" fill="#5B5B5B" mask="url(#path-18-inside-6_2025_1157)"/>
</g>
</g>
<rect x="0.5" y="0.5" width="285" height="116" rx="3.5" stroke="#5B5B5B"/>
<defs>
<clipPath id="clip0_2025_1157">
<rect width="286" height="117" rx="4" fill="white"/>
</clipPath>
<clipPath id="clip1_2025_1157">
<rect width="286" height="39" fill="white"/>
</clipPath>
<clipPath id="clip2_2025_1157">
<rect width="286" height="39" fill="white" transform="translate(0 39)"/>
</clipPath>
<clipPath id="clip3_2025_1157">
<rect width="286" height="39" fill="white" transform="translate(0 78)"/>
</clipPath>
</defs>
</svg>
