<svg width="286" height="119" viewBox="0 0 286 119" fill="none" xmlns="http://www.w3.org/2000/svg">
<g clip-path="url(#clip0_2025_1157)">
<rect width="286" height="119" rx="4" fill="#363636"/>
<g clip-path="url(#clip1_2025_1157)">
<rect width="286" height="39" fill="white" fill-opacity="0.01"/>
<mask id="path-3-inside-1_2025_1157" fill="white">
<path d="M0 0H148V39H0V0Z"/>
</mask>
<path d="M0 0H148V39H0V0Z" fill="white" fill-opacity="0.01"/>
<path d="M17.112 24.192C16.056 24.192 15.2187 23.8187 14.6 23.072C13.9867 22.3253 13.68 21.2747 13.68 19.92C13.68 19.024 13.8213 18.256 14.104 17.616C14.3867 16.976 14.792 16.4853 15.32 16.144C15.848 15.8027 16.48 15.632 17.216 15.632C17.904 15.632 18.496 15.7867 18.992 16.096C19.4933 16.4053 19.8613 16.864 20.096 17.472L18.896 17.92C18.7627 17.6053 18.56 17.344 18.288 17.136C18.016 16.928 17.648 16.824 17.184 16.824C16.4267 16.824 15.8773 17.104 15.536 17.664C15.1947 18.2187 15.024 18.9707 15.024 19.92C15.024 20.8853 15.1973 21.64 15.544 22.184C15.8907 22.7227 16.4267 22.992 17.152 22.992C17.6107 22.992 17.9973 22.8827 18.312 22.664C18.632 22.4453 18.8613 22.144 19 21.76L20.192 22.184C19.984 22.8133 19.6107 23.3067 19.072 23.664C18.5333 24.016 17.88 24.192 17.112 24.192ZM23.5314 27.24V15.824H24.8354V16.528C25.086 16.2933 25.3794 16.0853 25.7154 15.904C26.0514 15.7227 26.4967 15.632 27.0514 15.632C27.7874 15.632 28.4194 15.808 28.9474 16.16C29.4807 16.5067 29.8914 17 30.1794 17.64C30.4674 18.28 30.6114 19.0347 30.6114 19.904C30.6114 20.816 30.4594 21.592 30.1554 22.232C29.8567 22.8667 29.4407 23.352 28.9074 23.688C28.3794 24.024 27.7767 24.192 27.0994 24.192C26.502 24.192 26.03 24.096 25.6834 23.904C25.342 23.7067 25.0594 23.4747 24.8354 23.208V26.608L23.5314 27.24ZM26.9394 22.992C27.6807 22.992 28.254 22.728 28.6594 22.2C29.0647 21.6667 29.2674 20.9013 29.2674 19.904C29.2674 18.9707 29.0594 18.224 28.6434 17.664C28.2274 17.104 27.6407 16.824 26.8834 16.824C26.4354 16.824 26.0327 16.9253 25.6754 17.128C25.3234 17.3307 25.0434 17.6133 24.8354 17.976V21.84C25.086 22.1653 25.3794 22.44 25.7154 22.664C26.0514 22.8827 26.4594 22.992 26.9394 22.992ZM37.9668 26.08C37.4654 25.6533 36.9828 25.136 36.5188 24.528C36.0601 23.9253 35.6841 23.208 35.3908 22.376C35.1028 21.544 34.9588 20.5707 34.9588 19.456C34.9588 18.3467 35.1108 17.3573 35.4148 16.488C35.7241 15.6133 36.1214 14.856 36.6068 14.216C37.0974 13.5707 37.6094 13.0347 38.1428 12.608H39.3988C39.1801 12.784 38.8948 13.0747 38.5428 13.48C38.1961 13.88 37.8468 14.376 37.4948 14.968C37.1428 15.56 36.8468 16.2347 36.6068 16.992C36.3668 17.7493 36.2468 18.5707 36.2468 19.456C36.2468 20.3573 36.3614 21.176 36.5908 21.912C36.8254 22.6427 37.1108 23.288 37.4468 23.848C37.7881 24.408 38.1214 24.8747 38.4468 25.248C38.7774 25.6267 39.0361 25.904 39.2228 26.08H37.9668ZM46.3141 24.192C45.6261 24.192 45.0528 24.064 44.5941 23.808C44.1355 23.552 43.7915 23.1467 43.5621 22.592C43.3381 22.032 43.2261 21.2987 43.2261 20.392V15.824H44.5461V20.624C44.5461 21.4773 44.7248 22.0827 45.0821 22.44C45.4448 22.792 45.8955 22.968 46.4341 22.968C46.8075 22.968 47.1461 22.8987 47.4501 22.76C47.7595 22.6213 48.0048 22.384 48.1861 22.048C48.3675 21.712 48.4581 21.248 48.4581 20.656V15.824H49.7781V24H48.4581V23.192C48.1808 23.5547 47.8661 23.8133 47.5141 23.968C47.1675 24.1173 46.7675 24.192 46.3141 24.192ZM56.3175 24.192C55.7148 24.192 55.1495 24.056 54.6215 23.784C54.0935 23.512 53.6535 23.1707 53.3015 22.76L54.1975 21.968C54.4428 22.2453 54.7602 22.496 55.1495 22.72C55.5388 22.9387 55.9602 23.048 56.4135 23.048C56.8615 23.048 57.2375 22.9573 57.5415 22.776C57.8508 22.5893 58.0055 22.3173 58.0055 21.96C58.0055 21.6667 57.9068 21.4213 57.7095 21.224C57.5175 21.0213 57.2615 20.848 56.9415 20.704C56.6268 20.5547 56.2882 20.4107 55.9255 20.272C55.4615 20.096 55.0348 19.904 54.6455 19.696C54.2562 19.4827 53.9442 19.2213 53.7095 18.912C53.4802 18.6027 53.3655 18.216 53.3655 17.752C53.3655 17.32 53.4882 16.9467 53.7335 16.632C53.9788 16.312 54.3148 16.0667 54.7415 15.896C55.1735 15.72 55.6615 15.632 56.2055 15.632C56.8082 15.632 57.3468 15.7467 57.8215 15.976C58.2962 16.2 58.7015 16.504 59.0375 16.888L58.1735 17.616C57.9602 17.4133 57.6855 17.224 57.3495 17.048C57.0188 16.8667 56.6188 16.776 56.1495 16.776C55.6855 16.776 55.3122 16.8613 55.0295 17.032C54.7468 17.2027 54.6055 17.44 54.6055 17.744C54.6055 17.9893 54.6962 18.1973 54.8775 18.368C55.0588 18.5387 55.2935 18.6907 55.5815 18.824C55.8748 18.952 56.1895 19.08 56.5255 19.208C56.9575 19.368 57.3815 19.552 57.7975 19.76C58.2188 19.968 58.5655 20.24 58.8375 20.576C59.1095 20.912 59.2455 21.3547 59.2455 21.904C59.2455 22.608 58.9815 23.1653 58.4535 23.576C57.9308 23.9867 57.2188 24.192 56.3175 24.192ZM66.3929 24.192C65.6089 24.192 64.9369 24 64.3769 23.616C63.8222 23.232 63.3982 22.7147 63.1049 22.064C62.8115 21.4133 62.6649 20.6933 62.6649 19.904C62.6649 19.0027 62.8195 18.2347 63.1289 17.6C63.4382 16.96 63.8702 16.472 64.4249 16.136C64.9849 15.8 65.6409 15.632 66.3929 15.632C67.0062 15.632 67.5689 15.7707 68.0809 16.048C68.5982 16.3253 69.0115 16.7547 69.3209 17.336C69.6302 17.912 69.7849 18.6533 69.7849 19.56C69.7849 19.6613 69.7822 19.7867 69.7769 19.936C69.7769 20.08 69.7662 20.2453 69.7449 20.432H63.6889V19.28H68.4809C68.4702 18.6293 68.3529 18.1253 68.1289 17.768C67.9102 17.4053 67.6409 17.152 67.3209 17.008C67.0009 16.864 66.6915 16.792 66.3929 16.792C65.5609 16.792 64.9502 17.056 64.5609 17.584C64.1715 18.1067 63.9769 18.808 63.9769 19.688C63.9769 20.712 64.1929 21.52 64.6249 22.112C65.0569 22.704 65.6595 23 66.4329 23C66.7582 23 67.0809 22.9493 67.4009 22.848C67.7209 22.7413 68.0355 22.5653 68.3449 22.32L69.0809 23.176C68.7395 23.4693 68.3369 23.712 67.8729 23.904C67.4142 24.096 66.9209 24.192 66.3929 24.192ZM71.9723 24V22.84H73.6763V16.984H71.9723V15.824H74.9323V17.656L74.8363 17.424C75.0069 17.056 75.2656 16.7387 75.6123 16.472C75.9643 16.2053 76.3563 16 76.7883 15.856C77.2256 15.7067 77.6603 15.632 78.0923 15.632C78.5083 15.632 78.8629 15.6693 79.1562 15.744C79.4496 15.8187 79.6843 15.9093 79.8603 16.016V18.824H78.5563V16.4L78.9563 17.024C78.8229 16.9867 78.6789 16.96 78.5243 16.944C78.3749 16.928 78.2176 16.92 78.0523 16.92C77.5136 16.92 77.0123 17.0107 76.5483 17.192C76.0843 17.368 75.7109 17.6293 75.4283 17.976C75.1509 18.3227 75.0123 18.7467 75.0123 19.248V22.84H77.4203V24H71.9723ZM88.4316 24L85.5596 18.72L82.2396 12.8H83.6956L86.2636 17.544L89.8796 24H88.4316ZM81.9996 24L85.5756 17.624L88.1516 12.8H89.5756L86.2156 18.72L83.4396 24H81.9996ZM93.227 26.08C93.419 25.8987 93.6777 25.6213 94.003 25.248C94.3283 24.8747 94.659 24.408 94.995 23.848C95.3363 23.288 95.6243 22.6427 95.859 21.912C96.0937 21.176 96.211 20.3573 96.211 19.456C96.211 18.5707 96.0883 17.7493 95.843 16.992C95.603 16.2347 95.307 15.56 94.955 14.968C94.6083 14.376 94.259 13.88 93.907 13.48C93.5603 13.0747 93.275 12.784 93.051 12.608H94.307C94.8403 13.0347 95.3497 13.5707 95.835 14.216C96.3257 14.856 96.7257 15.6133 97.035 16.488C97.3443 17.3573 97.499 18.3467 97.499 19.456C97.499 20.5707 97.3523 21.544 97.059 22.376C96.7657 23.208 96.387 23.9253 95.923 24.528C95.4643 25.136 94.9843 25.6533 94.483 26.08H93.227Z" fill="white"/>
<path d="M0 0V-1H-1V0H0ZM0 1H148V-1H0V1ZM1 39V0H-1V39H1Z" fill="#5B5B5B" mask="url(#path-3-inside-1_2025_1157)"/>
<mask id="path-6-inside-2_2025_1157" fill="white">
<path d="M148 0H286V39H148V0Z"/>
</mask>
<path d="M148 0H286V39H148V0Z" fill="white" fill-opacity="0.01"/>
<path d="M163.017 22.1364C162.401 22.1364 161.895 21.9915 161.5 21.7017C161.108 21.4119 160.835 21.0128 160.682 20.5043C160.528 19.9957 160.506 19.4148 160.614 18.7614C160.722 18.0966 160.94 17.5099 161.27 17.0014C161.599 16.4901 162.01 16.0909 162.501 15.804C162.993 15.5142 163.534 15.3693 164.125 15.3693C164.585 15.3693 164.986 15.4545 165.327 15.625C165.668 15.7955 165.93 16.0341 166.115 16.3409C166.3 16.6477 166.386 17.0057 166.375 17.4148H165.369C165.341 17.1165 165.213 16.8523 164.986 16.6222C164.761 16.3892 164.429 16.2727 163.989 16.2727C163.597 16.2727 163.236 16.375 162.906 16.5795C162.577 16.7812 162.3 17.0668 162.075 17.4361C161.851 17.8026 161.699 18.233 161.619 18.7273C161.534 19.233 161.541 19.6733 161.641 20.0483C161.74 20.4233 161.92 20.7145 162.182 20.9219C162.443 21.1293 162.773 21.233 163.17 21.233C163.432 21.233 163.676 21.1875 163.903 21.0966C164.131 21.0057 164.332 20.875 164.509 20.7045C164.685 20.5341 164.824 20.3295 164.926 20.0909H165.932C165.807 20.4773 165.607 20.8253 165.331 21.1349C165.055 21.4418 164.722 21.6861 164.33 21.8679C163.938 22.0469 163.5 22.1364 163.017 22.1364ZM166.669 24.4545L168.178 15.4545H169.149L168.979 16.4943H169.098C169.189 16.3807 169.314 16.2358 169.473 16.0597C169.635 15.8807 169.852 15.7216 170.125 15.5824C170.401 15.4403 170.751 15.3693 171.178 15.3693C171.729 15.3693 172.19 15.5071 172.562 15.7827C172.935 16.0582 173.197 16.4489 173.351 16.9545C173.504 17.4602 173.524 18.0568 173.411 18.7443C173.297 19.4375 173.08 20.0384 172.759 20.5469C172.438 21.0526 172.045 21.4446 171.582 21.723C171.119 21.9986 170.615 22.1364 170.07 22.1364C169.649 22.1364 169.324 22.0668 169.094 21.9276C168.864 21.7855 168.696 21.625 168.591 21.446C168.486 21.2642 168.405 21.1136 168.348 20.9943H168.263L167.683 24.4545H166.669ZM168.621 18.7273C168.541 19.2216 168.541 19.6577 168.621 20.0355C168.703 20.4105 168.866 20.7045 169.111 20.9176C169.358 21.1278 169.683 21.233 170.087 21.233C170.507 21.233 170.875 21.1222 171.19 20.9006C171.509 20.6761 171.77 20.375 171.974 19.9972C172.182 19.6165 172.325 19.1932 172.405 18.7273C172.479 18.267 172.476 17.8523 172.396 17.483C172.317 17.1108 172.155 16.8168 171.911 16.6009C171.666 16.3821 171.331 16.2727 170.905 16.2727C170.496 16.2727 170.134 16.3764 169.818 16.5838C169.506 16.7884 169.247 17.0753 169.043 17.4446C168.841 17.8111 168.7 18.2386 168.621 18.7273ZM179.431 18.0625L178.783 22H177.777L179.226 13.2727H180.232L179.703 16.4773H179.789C179.993 16.1364 180.266 15.8665 180.607 15.6676C180.951 15.4688 181.382 15.3693 181.902 15.3693C182.346 15.3693 182.719 15.4588 183.023 15.6378C183.33 15.8139 183.546 16.0852 183.671 16.4517C183.799 16.8153 183.817 17.2784 183.726 17.8409L183.027 22H182.022L182.703 17.9091C182.789 17.3892 182.719 16.9872 182.495 16.7031C182.273 16.4162 181.928 16.2727 181.459 16.2727C181.13 16.2727 180.823 16.3423 180.539 16.4815C180.257 16.6207 180.019 16.8239 179.823 17.0909C179.63 17.358 179.499 17.6818 179.431 18.0625ZM187.594 22.1364C186.967 22.1364 186.448 21.9972 186.039 21.7188C185.63 21.4375 185.344 21.0455 185.183 20.5426C185.021 20.0369 184.995 19.4489 185.106 18.7784C185.217 18.108 185.437 17.517 185.766 17.0057C186.096 16.4915 186.506 16.0909 186.998 15.804C187.489 15.5142 188.029 15.3693 188.617 15.3693C188.958 15.3693 189.286 15.4261 189.602 15.5398C189.917 15.6534 190.19 15.8381 190.42 16.0938C190.65 16.3466 190.81 16.6818 190.901 17.0994C190.992 17.517 190.987 18.0312 190.884 18.642L190.816 19.0682H185.771L185.907 18.1989H189.93C189.995 17.8295 189.978 17.5 189.879 17.2102C189.782 16.9205 189.613 16.6918 189.371 16.5241C189.133 16.3565 188.83 16.2727 188.464 16.2727C188.086 16.2727 187.734 16.375 187.407 16.5795C187.08 16.7812 186.808 17.0369 186.589 17.3466C186.37 17.6534 186.234 17.9659 186.18 18.2841L186.06 19.0341C185.975 19.5767 185.988 20.0085 186.099 20.3295C186.212 20.6506 186.41 20.8821 186.691 21.0241C186.972 21.1634 187.325 21.233 187.748 21.233C188.018 21.233 188.266 21.196 188.494 21.1222C188.721 21.0455 188.924 20.9318 189.103 20.7812C189.282 20.6278 189.433 20.4375 189.555 20.2102L190.475 20.483C190.319 20.8125 190.099 21.1023 189.815 21.3523C189.533 21.5994 189.204 21.7926 188.826 21.9318C188.451 22.0682 188.04 22.1364 187.594 22.1364ZM194.33 13.2727L192.881 22H191.875L193.324 13.2727H194.33ZM197.186 22.1364C196.637 22.1364 196.177 21.9986 195.805 21.723C195.433 21.4446 195.17 21.0526 195.017 20.5469C194.866 20.0384 194.848 19.4375 194.961 18.7443C195.078 18.0568 195.295 17.4602 195.613 16.9545C195.934 16.4489 196.328 16.0582 196.794 15.7827C197.26 15.5071 197.768 15.3693 198.319 15.3693C198.745 15.3693 199.071 15.4403 199.295 15.5824C199.522 15.7216 199.687 15.8807 199.789 16.0597C199.892 16.2358 199.97 16.3807 200.024 16.4943H200.109L200.646 13.2727H201.652L200.203 22H199.231L199.402 20.9943H199.282C199.189 21.1136 199.058 21.2642 198.89 21.446C198.723 21.625 198.501 21.7855 198.225 21.9276C197.953 22.0668 197.606 22.1364 197.186 22.1364ZM197.433 21.233C197.836 21.233 198.197 21.1278 198.515 20.9176C198.836 20.7045 199.103 20.4105 199.316 20.0355C199.529 19.6577 199.677 19.2216 199.76 18.7273C199.842 18.2386 199.839 17.8111 199.751 17.4446C199.663 17.0753 199.494 16.7884 199.244 16.5838C198.994 16.3764 198.663 16.2727 198.251 16.2727C197.828 16.2727 197.46 16.3821 197.147 16.6009C196.835 16.8168 196.581 17.1108 196.385 17.483C196.189 17.8523 196.052 18.267 195.975 18.7273C195.899 19.1932 195.897 19.6165 195.971 19.9972C196.045 20.375 196.201 20.6761 196.44 20.9006C196.681 21.1222 197.012 21.233 197.433 21.233ZM205.687 22L207.136 13.2727H208.142L207.613 16.4943H207.699C207.789 16.3807 207.916 16.2358 208.078 16.0597C208.24 15.8807 208.457 15.7216 208.73 15.5824C209.002 15.4403 209.352 15.3693 209.778 15.3693C210.329 15.3693 210.791 15.5071 211.163 15.7827C211.538 16.0582 211.801 16.4489 211.951 16.9545C212.105 17.4602 212.125 18.0568 212.011 18.7443C211.897 19.4375 211.68 20.0384 211.359 20.5469C211.041 21.0526 210.649 21.4446 210.183 21.723C209.72 21.9986 209.216 22.1364 208.67 22.1364C208.25 22.1364 207.924 22.0668 207.694 21.9276C207.467 21.7855 207.299 21.625 207.191 21.446C207.086 21.2642 207.005 21.1136 206.949 20.9943H206.829L206.659 22H205.687ZM207.221 18.7273C207.142 19.2216 207.143 19.6577 207.225 20.0355C207.308 20.4105 207.471 20.7045 207.716 20.9176C207.96 21.1278 208.284 21.233 208.687 21.233C209.108 21.233 209.477 21.1222 209.795 20.9006C210.113 20.6761 210.375 20.375 210.579 19.9972C210.784 19.6165 210.926 19.1932 211.005 18.7273C211.079 18.267 211.076 17.8523 210.997 17.483C210.92 17.1108 210.758 16.8168 210.511 16.6009C210.267 16.3821 209.931 16.2727 209.505 16.2727C209.096 16.2727 208.734 16.3764 208.419 16.5838C208.106 16.7884 207.848 17.0753 207.643 17.4446C207.441 17.8111 207.301 18.2386 207.221 18.7273ZM213.017 24.4545C212.846 24.4545 212.696 24.4403 212.565 24.4119C212.437 24.3864 212.349 24.3608 212.301 24.3352L212.71 23.4489C212.943 23.5114 213.15 23.5298 213.332 23.5043C213.517 23.4815 213.691 23.392 213.856 23.2358C214.024 23.0824 214.199 22.8409 214.38 22.5114L214.662 22L213.349 15.4545H214.397L215.335 20.6875H215.403L218.079 15.4545H219.213L215.199 22.946C215.011 23.2955 214.805 23.581 214.581 23.8026C214.356 24.0241 214.113 24.1875 213.852 24.2926C213.591 24.4006 213.312 24.4545 213.017 24.4545ZM227.392 19.3239L228.04 15.4545H229.046L227.955 22H226.949L227.137 20.892H227.069C226.864 21.2244 226.578 21.5071 226.212 21.7401C225.846 21.9702 225.415 22.0852 224.921 22.0852C224.512 22.0852 224.162 21.9957 223.873 21.8168C223.586 21.6349 223.381 21.3622 223.259 20.9986C223.14 20.6321 223.125 20.1705 223.216 19.6136L223.915 15.4545H224.921L224.239 19.5455C224.162 20.0227 224.235 20.4034 224.456 20.6875C224.678 20.9716 224.998 21.1136 225.415 21.1136C225.665 21.1136 225.929 21.0497 226.208 20.9219C226.489 20.794 226.739 20.598 226.958 20.3338C227.179 20.0696 227.324 19.733 227.392 19.3239ZM235.286 16.9205L234.331 17.1761C234.297 17.0227 234.237 16.875 234.152 16.733C234.07 16.5881 233.942 16.4702 233.768 16.3793C233.598 16.2855 233.365 16.2386 233.07 16.2386C232.669 16.2386 232.321 16.331 232.026 16.5156C231.73 16.6974 231.561 16.929 231.518 17.2102C231.476 17.4574 231.533 17.6548 231.689 17.8026C231.845 17.9503 232.107 18.071 232.473 18.1648L233.411 18.4034C233.973 18.5483 234.374 18.7656 234.612 19.0554C234.854 19.3423 234.936 19.7159 234.859 20.1761C234.797 20.5511 234.634 20.8864 234.369 21.1818C234.105 21.4773 233.767 21.7102 233.355 21.8807C232.943 22.0511 232.484 22.1364 231.979 22.1364C231.305 22.1364 230.774 21.9915 230.385 21.7017C229.996 21.4091 229.788 20.9858 229.763 20.4318L230.768 20.1932C230.794 20.5426 230.919 20.8068 231.143 20.9858C231.371 21.1619 231.689 21.25 232.098 21.25C232.567 21.25 232.957 21.1506 233.27 20.9517C233.582 20.75 233.76 20.5085 233.803 20.2273C233.845 19.9972 233.8 19.8054 233.666 19.652C233.536 19.4986 233.308 19.3835 232.984 19.3068L231.945 19.0511C231.365 18.9062 230.959 18.6847 230.726 18.3864C230.496 18.0881 230.419 17.7131 230.496 17.2614C230.558 16.892 230.717 16.5653 230.973 16.2812C231.232 15.9972 231.555 15.7741 231.945 15.6122C232.337 15.4503 232.763 15.3693 233.223 15.3693C233.871 15.3693 234.355 15.5114 234.676 15.7955C234.997 16.0767 235.2 16.4517 235.286 16.9205ZM238.794 22.1364C238.166 22.1364 237.647 21.9972 237.238 21.7188C236.829 21.4375 236.544 21.0455 236.382 20.5426C236.22 20.0369 236.194 19.4489 236.305 18.7784C236.416 18.108 236.636 17.517 236.966 17.0057C237.295 16.4915 237.706 16.0909 238.197 15.804C238.689 15.5142 239.228 15.3693 239.816 15.3693C240.157 15.3693 240.485 15.4261 240.801 15.5398C241.116 15.6534 241.389 15.8381 241.619 16.0938C241.849 16.3466 242.01 16.6818 242.1 17.0994C242.191 17.517 242.186 18.0312 242.083 18.642L242.015 19.0682H236.97L237.106 18.1989H241.129C241.194 17.8295 241.177 17.5 241.078 17.2102C240.981 16.9205 240.812 16.6918 240.571 16.5241C240.332 16.3565 240.029 16.2727 239.663 16.2727C239.285 16.2727 238.933 16.375 238.606 16.5795C238.279 16.7812 238.007 17.0369 237.788 17.3466C237.569 17.6534 237.433 17.9659 237.379 18.2841L237.26 19.0341C237.174 19.5767 237.187 20.0085 237.298 20.3295C237.412 20.6506 237.609 20.8821 237.89 21.0241C238.172 21.1634 238.524 21.233 238.947 21.233C239.217 21.233 239.466 21.196 239.693 21.1222C239.92 21.0455 240.123 20.9318 240.302 20.7812C240.481 20.6278 240.632 20.4375 240.754 20.2102L241.674 20.483C241.518 20.8125 241.298 21.1023 241.014 21.3523C240.733 21.5994 240.403 21.7926 240.025 21.9318C239.65 22.0682 239.24 22.1364 238.794 22.1364ZM243.074 22L244.165 15.4545H245.137L244.966 16.4432H245.034C245.205 16.1193 245.465 15.8565 245.814 15.6548C246.164 15.4531 246.534 15.3523 246.926 15.3523C247.003 15.3523 247.096 15.3537 247.203 15.3565C247.311 15.3565 247.395 15.3608 247.455 15.3693L247.284 16.392C247.25 16.3835 247.174 16.3707 247.054 16.3537C246.935 16.3338 246.807 16.3239 246.671 16.3239C246.353 16.3239 246.059 16.3906 245.789 16.5241C245.519 16.6548 245.293 16.8366 245.111 17.0696C244.929 17.2997 244.813 17.5625 244.762 17.858L244.08 22H243.074ZM253.034 13.2727L254.688 16.9034H254.756L257.602 13.2727H258.847L255.386 17.6364L257.398 22H256.153L254.5 18.4375H254.432L251.585 22H250.341L253.886 17.6364L251.79 13.2727H253.034Z" fill="white"/>
<path d="M148 0V-1H147V0H148ZM148 1H286V-1H148V1ZM149 39V0H147V39H149Z" fill="#5B5B5B" mask="url(#path-6-inside-2_2025_1157)"/>
</g>
<g clip-path="url(#clip2_2025_1157)">
<rect width="286" height="40" transform="translate(0 39)" fill="white" fill-opacity="0.01"/>
<mask id="path-9-inside-3_2025_1157" fill="white">
<path d="M0 39H148V79H0V39Z"/>
</mask>
<path d="M0 39H148V79H0V39Z" fill="white" fill-opacity="0.01"/>
<path d="M12.68 63L16.368 51.8H17.464L21.176 63H19.816L17.224 54.84C17.208 54.7813 17.1787 54.6827 17.136 54.544C17.0933 54.4053 17.0507 54.264 17.008 54.12C16.9653 53.976 16.936 53.8613 16.92 53.776C16.8987 53.8613 16.8667 53.976 16.824 54.12C16.7867 54.264 16.7493 54.4053 16.712 54.544C16.6747 54.6773 16.6453 54.776 16.624 54.84L14.072 63H12.68ZM14.544 60.208L14.928 59.032H18.92L19.304 60.208H14.544Z" fill="white"/>
<path d="M0 39V38H-1V39H0ZM0 40H148V38H0V40ZM1 79V39H-1V79H1Z" fill="#5B5B5B" mask="url(#path-9-inside-3_2025_1157)"/>
<mask id="path-12-inside-4_2025_1157" fill="white">
<path d="M148 39H286V79H148V39Z"/>
</mask>
<path d="M148 39H286V79H148V39Z" fill="white" fill-opacity="0.01"/>
<path d="M165.864 55.9205L164.909 56.1761C164.875 56.0227 164.815 55.875 164.73 55.733C164.648 55.5881 164.52 55.4702 164.347 55.3793C164.176 55.2855 163.943 55.2386 163.648 55.2386C163.247 55.2386 162.899 55.331 162.604 55.5156C162.308 55.6974 162.139 55.929 162.097 56.2102C162.054 56.4574 162.111 56.6548 162.267 56.8026C162.423 56.9503 162.685 57.071 163.051 57.1648L163.989 57.4034C164.551 57.5483 164.952 57.7656 165.19 58.0554C165.432 58.3423 165.514 58.7159 165.438 59.1761C165.375 59.5511 165.212 59.8864 164.947 60.1818C164.683 60.4773 164.345 60.7102 163.933 60.8807C163.521 61.0511 163.062 61.1364 162.557 61.1364C161.884 61.1364 161.352 60.9915 160.963 60.7017C160.574 60.4091 160.366 59.9858 160.341 59.4318L161.347 59.1932C161.372 59.5426 161.497 59.8068 161.722 59.9858C161.949 60.1619 162.267 60.25 162.676 60.25C163.145 60.25 163.536 60.1506 163.848 59.9517C164.161 59.75 164.338 59.5085 164.381 59.2273C164.423 58.9972 164.378 58.8054 164.244 58.652C164.114 58.4986 163.886 58.3835 163.562 58.3068L162.523 58.0511C161.943 57.9062 161.537 57.6847 161.304 57.3864C161.074 57.0881 160.997 56.7131 161.074 56.2614C161.136 55.892 161.295 55.5653 161.551 55.2812C161.81 54.9972 162.134 54.7741 162.523 54.6122C162.915 54.4503 163.341 54.3693 163.801 54.3693C164.449 54.3693 164.933 54.5114 165.254 54.7955C165.575 55.0767 165.778 55.4517 165.864 55.9205ZM169.372 61.1364C168.744 61.1364 168.225 60.9972 167.816 60.7188C167.407 60.4375 167.122 60.0455 166.96 59.5426C166.798 59.0369 166.772 58.4489 166.883 57.7784C166.994 57.108 167.214 56.517 167.544 56.0057C167.873 55.4915 168.284 55.0909 168.775 54.804C169.267 54.5142 169.806 54.3693 170.395 54.3693C170.735 54.3693 171.064 54.4261 171.379 54.5398C171.694 54.6534 171.967 54.8381 172.197 55.0938C172.427 55.3466 172.588 55.6818 172.679 56.0994C172.77 56.517 172.764 57.0312 172.662 57.642L172.593 58.0682H167.548L167.684 57.1989H171.707C171.772 56.8295 171.755 56.5 171.656 56.2102C171.559 55.9205 171.39 55.6918 171.149 55.5241C170.91 55.3565 170.608 55.2727 170.241 55.2727C169.863 55.2727 169.511 55.375 169.184 55.5795C168.858 55.7812 168.585 56.0369 168.366 56.3466C168.147 56.6534 168.011 56.9659 167.957 57.2841L167.838 58.0341C167.752 58.5767 167.765 59.0085 167.876 59.3295C167.99 59.6506 168.187 59.8821 168.468 60.0241C168.75 60.1634 169.102 60.233 169.525 60.233C169.795 60.233 170.044 60.196 170.271 60.1222C170.498 60.0455 170.701 59.9318 170.88 59.7812C171.059 59.6278 171.21 59.4375 171.332 59.2102L172.252 59.483C172.096 59.8125 171.876 60.1023 171.592 60.3523C171.311 60.5994 170.981 60.7926 170.603 60.9318C170.228 61.0682 169.818 61.1364 169.372 61.1364ZM177.59 54.4545L177.453 55.3068H174.061L174.198 54.4545H177.59ZM175.442 52.8864H176.448L175.408 59.125C175.363 59.4091 175.37 59.6222 175.429 59.7642C175.492 59.9034 175.586 59.9972 175.711 60.0455C175.838 60.0909 175.976 60.1136 176.124 60.1136C176.235 60.1136 176.326 60.108 176.397 60.0966C176.468 60.0824 176.525 60.071 176.567 60.0625L176.635 60.9659C176.559 60.9915 176.455 61.017 176.324 61.0426C176.196 61.071 176.039 61.0852 175.851 61.0852C175.567 61.0852 175.3 61.0241 175.05 60.902C174.8 60.7798 174.608 60.5938 174.475 60.3438C174.341 60.0938 174.306 59.7784 174.368 59.3977L175.442 52.8864ZM184.088 61.1364C183.486 61.1364 182.982 60.9929 182.576 60.706C182.169 60.419 181.882 60.017 181.715 59.5C181.55 58.983 181.523 58.3807 181.634 57.6932C181.742 57.0227 181.956 56.4389 182.277 55.9418C182.601 55.4418 183.003 55.0554 183.483 54.7827C183.966 54.5071 184.498 54.3693 185.077 54.3693C185.679 54.3693 186.182 54.5142 186.586 54.804C186.992 55.0909 187.279 55.4943 187.446 56.0142C187.614 56.5312 187.642 57.1364 187.532 57.8295C187.424 58.4943 187.206 59.0753 186.88 59.5724C186.556 60.0668 186.154 60.4517 185.674 60.7273C185.196 61 184.668 61.1364 184.088 61.1364ZM184.105 60.233C184.566 60.233 184.965 60.1151 185.303 59.8793C185.644 59.6435 185.919 59.3324 186.13 58.946C186.343 58.5597 186.486 58.142 186.56 57.6932C186.628 57.267 186.625 56.8707 186.551 56.5043C186.478 56.1349 186.32 55.8381 186.078 55.6136C185.837 55.3864 185.498 55.2727 185.06 55.2727C184.6 55.2727 184.198 55.392 183.854 55.6307C183.513 55.8693 183.238 56.1832 183.027 56.5724C182.817 56.9616 182.676 57.3807 182.605 57.8295C182.537 58.2557 182.539 58.652 182.61 59.0185C182.684 59.3821 182.841 59.6761 183.083 59.9006C183.327 60.1222 183.668 60.233 184.105 60.233ZM192.553 54.4545L192.416 55.3068H188.888L189.024 54.4545H192.553ZM188.99 61L190.234 53.5511C190.291 53.1761 190.428 52.8636 190.643 52.6136C190.862 52.3636 191.122 52.1761 191.423 52.0511C191.727 51.9261 192.036 51.8636 192.348 51.8636C192.595 51.8636 192.793 51.8835 192.94 51.9233C193.091 51.9631 193.2 52 193.268 52.0341L192.842 52.9034C192.791 52.8864 192.723 52.8651 192.638 52.8395C192.555 52.8139 192.442 52.8011 192.297 52.8011C191.964 52.8011 191.712 52.8849 191.538 53.0526C191.365 53.2202 191.249 53.4659 191.189 53.7898L189.996 61H188.99ZM198.155 61.1534C197.74 61.1534 197.377 61.0753 197.064 60.919C196.752 60.7599 196.52 60.5312 196.37 60.233C196.219 59.9318 196.178 59.5682 196.246 59.142C196.311 58.767 196.438 58.4631 196.625 58.2301C196.813 57.9943 197.04 57.8097 197.307 57.6761C197.577 57.5398 197.867 57.4389 198.176 57.3736C198.489 57.3054 198.8 57.2528 199.11 57.2159C199.513 57.1648 199.841 57.125 200.094 57.0966C200.347 57.0682 200.537 57.0213 200.665 56.956C200.793 56.8906 200.871 56.7784 200.9 56.6193V56.5852C200.968 56.1676 200.912 55.8423 200.733 55.6094C200.554 55.3736 200.235 55.2557 199.775 55.2557C199.297 55.2557 198.898 55.3608 198.577 55.571C198.256 55.7812 198.019 56.0057 197.865 56.2443L196.979 55.9034C197.212 55.5057 197.49 55.196 197.814 54.9744C198.138 54.75 198.478 54.5937 198.833 54.5057C199.188 54.4148 199.53 54.3693 199.86 54.3693C200.07 54.3693 200.307 54.3949 200.571 54.446C200.836 54.4943 201.083 54.5952 201.313 54.7486C201.546 54.902 201.721 55.1335 201.837 55.4432C201.956 55.7528 201.973 56.1676 201.888 56.6875L201.172 61H200.167L200.32 60.1136H200.269C200.178 60.2557 200.039 60.4077 199.851 60.5696C199.667 60.7315 199.432 60.8693 199.148 60.983C198.867 61.0966 198.536 61.1534 198.155 61.1534ZM198.445 60.25C198.843 60.25 199.191 60.1719 199.489 60.0156C199.79 59.8594 200.032 59.6577 200.213 59.4105C200.398 59.1634 200.513 58.9034 200.559 58.6307L200.712 57.7102C200.661 57.7614 200.56 57.8082 200.409 57.8509C200.259 57.8906 200.088 57.9261 199.898 57.9574C199.711 57.9858 199.527 58.0114 199.348 58.0341C199.172 58.054 199.03 58.071 198.922 58.0852C198.655 58.1193 198.401 58.1747 198.159 58.2514C197.921 58.3253 197.719 58.4375 197.554 58.5881C197.392 58.7358 197.292 58.9375 197.252 59.1932C197.192 59.5426 197.276 59.8068 197.503 59.9858C197.73 60.1619 198.044 60.25 198.445 60.25ZM205.462 52.2727L204.013 61H203.008L204.457 52.2727H205.462ZM208.31 52.2727L206.861 61H205.855L207.304 52.2727H208.31ZM216.646 58.3239L217.294 54.4545H218.3L217.209 61H216.203L216.391 59.892H216.322C216.118 60.2244 215.832 60.5071 215.466 60.7401C215.099 60.9702 214.669 61.0852 214.175 61.0852C213.766 61.0852 213.416 60.9957 213.126 60.8168C212.839 60.6349 212.635 60.3622 212.513 59.9986C212.393 59.6321 212.379 59.1705 212.47 58.6136L213.169 54.4545H214.175L213.493 58.5455C213.416 59.0227 213.489 59.4034 213.71 59.6875C213.932 59.9716 214.251 60.1136 214.669 60.1136C214.919 60.1136 215.183 60.0497 215.462 59.9219C215.743 59.794 215.993 59.598 216.212 59.3338C216.433 59.0696 216.578 58.733 216.646 58.3239ZM224.539 55.9205L223.585 56.1761C223.551 56.0227 223.491 55.875 223.406 55.733C223.324 55.5881 223.196 55.4702 223.022 55.3793C222.852 55.2855 222.619 55.2386 222.324 55.2386C221.923 55.2386 221.575 55.331 221.279 55.5156C220.984 55.6974 220.815 55.929 220.772 56.2102C220.73 56.4574 220.787 56.6548 220.943 56.8026C221.099 56.9503 221.36 57.071 221.727 57.1648L222.664 57.4034C223.227 57.5483 223.627 57.7656 223.866 58.0554C224.108 58.3423 224.19 58.7159 224.113 59.1761C224.051 59.5511 223.887 59.8864 223.623 60.1818C223.359 60.4773 223.021 60.7102 222.609 60.8807C222.197 61.0511 221.738 61.1364 221.233 61.1364C220.559 61.1364 220.028 60.9915 219.639 60.7017C219.25 60.4091 219.042 59.9858 219.017 59.4318L220.022 59.1932C220.048 59.5426 220.173 59.8068 220.397 59.9858C220.625 60.1619 220.943 60.25 221.352 60.25C221.821 60.25 222.211 60.1506 222.524 59.9517C222.836 59.75 223.014 59.5085 223.056 59.2273C223.099 58.9972 223.054 58.8054 222.92 58.652C222.789 58.4986 222.562 58.3835 222.238 58.3068L221.199 58.0511C220.619 57.9062 220.213 57.6847 219.98 57.3864C219.75 57.0881 219.673 56.7131 219.75 56.2614C219.812 55.892 219.971 55.5653 220.227 55.2812C220.485 54.9972 220.809 54.7741 221.199 54.6122C221.591 54.4503 222.017 54.3693 222.477 54.3693C223.125 54.3693 223.609 54.5114 223.93 54.7955C224.251 55.0767 224.454 55.4517 224.539 55.9205ZM228.048 61.1364C227.42 61.1364 226.901 60.9972 226.492 60.7188C226.083 60.4375 225.798 60.0455 225.636 59.5426C225.474 59.0369 225.448 58.4489 225.559 57.7784C225.67 57.108 225.89 56.517 226.219 56.0057C226.549 55.4915 226.96 55.0909 227.451 54.804C227.942 54.5142 228.482 54.3693 229.07 54.3693C229.411 54.3693 229.739 54.4261 230.055 54.5398C230.37 54.6534 230.643 54.8381 230.873 55.0938C231.103 55.3466 231.263 55.6818 231.354 56.0994C231.445 56.517 231.44 57.0312 231.337 57.642L231.269 58.0682H226.224L226.36 57.1989H230.383C230.448 56.8295 230.431 56.5 230.332 56.2102C230.235 55.9205 230.066 55.6918 229.825 55.5241C229.586 55.3565 229.283 55.2727 228.917 55.2727C228.539 55.2727 228.187 55.375 227.86 55.5795C227.533 55.7812 227.261 56.0369 227.042 56.3466C226.823 56.6534 226.687 56.9659 226.633 57.2841L226.513 58.0341C226.428 58.5767 226.441 59.0085 226.552 59.3295C226.665 59.6506 226.863 59.8821 227.144 60.0241C227.425 60.1634 227.778 60.233 228.201 60.233C228.471 60.233 228.719 60.196 228.947 60.1222C229.174 60.0455 229.377 59.9318 229.556 59.7812C229.735 59.6278 229.886 59.4375 230.008 59.2102L230.928 59.483C230.772 59.8125 230.552 60.1023 230.268 60.3523C229.987 60.5994 229.657 60.7926 229.279 60.9318C228.904 61.0682 228.494 61.1364 228.048 61.1364ZM232.328 61L233.419 54.4545H234.391L234.22 55.4432H234.288C234.459 55.1193 234.719 54.8565 235.068 54.6548C235.418 54.4531 235.788 54.3523 236.18 54.3523C236.257 54.3523 236.349 54.3537 236.457 54.3565C236.565 54.3565 236.649 54.3608 236.709 54.3693L236.538 55.392C236.504 55.3835 236.428 55.3707 236.308 55.3537C236.189 55.3338 236.061 55.3239 235.925 55.3239C235.607 55.3239 235.313 55.3906 235.043 55.5241C234.773 55.6548 234.547 55.8366 234.365 56.0696C234.183 56.2997 234.067 56.5625 234.016 56.858L233.334 61H232.328ZM242.305 55.9205L241.35 56.1761C241.316 56.0227 241.257 55.875 241.172 55.733C241.089 55.5881 240.961 55.4702 240.788 55.3793C240.618 55.2855 240.385 55.2386 240.089 55.2386C239.689 55.2386 239.341 55.331 239.045 55.5156C238.75 55.6974 238.581 55.929 238.538 56.2102C238.495 56.4574 238.552 56.6548 238.708 56.8026C238.865 56.9503 239.126 57.071 239.493 57.1648L240.43 57.4034C240.993 57.5483 241.393 57.7656 241.632 58.0554C241.873 58.3423 241.956 58.7159 241.879 59.1761C241.816 59.5511 241.653 59.8864 241.389 60.1818C241.125 60.4773 240.787 60.7102 240.375 60.8807C239.963 61.0511 239.504 61.1364 238.998 61.1364C238.325 61.1364 237.794 60.9915 237.404 60.7017C237.015 60.4091 236.808 59.9858 236.782 59.4318L237.788 59.1932C237.814 59.5426 237.939 59.8068 238.163 59.9858C238.39 60.1619 238.708 60.25 239.118 60.25C239.586 60.25 239.977 60.1506 240.289 59.9517C240.602 59.75 240.779 59.5085 240.822 59.2273C240.865 58.9972 240.819 58.8054 240.686 58.652C240.555 58.4986 240.328 58.3835 240.004 58.3068L238.964 58.0511C238.385 57.9062 237.978 57.6847 237.745 57.3864C237.515 57.0881 237.439 56.7131 237.515 56.2614C237.578 55.892 237.737 55.5653 237.993 55.2812C238.251 54.9972 238.575 54.7741 238.964 54.6122C239.356 54.4503 239.782 54.3693 240.243 54.3693C240.89 54.3693 241.375 54.5114 241.696 54.7955C242.017 55.0767 242.22 55.4517 242.305 55.9205Z" fill="white"/>
<path d="M148 39V38H147V39H148ZM148 40H286V38H148V40ZM149 79V39H147V79H149Z" fill="#5B5B5B" mask="url(#path-12-inside-4_2025_1157)"/>
</g>
<g clip-path="url(#clip3_2025_1157)">
<rect width="286" height="40" transform="translate(0 79)" fill="white" fill-opacity="0.01"/>
<mask id="path-15-inside-5_2025_1157" fill="white">
<path d="M0 79H148V119H0V79Z"/>
</mask>
<path d="M0 79H148V119H0V79Z" fill="white" fill-opacity="0.01"/>
<path d="M16.272 103V93.056H13.056V91.8H20.8V93.056H17.584V103H16.272Z" fill="white"/>
<path d="M0 79V78H-1V79H0ZM0 80H148V78H0V80ZM1 119V79H-1V119H1Z" fill="#5B5B5B" mask="url(#path-15-inside-5_2025_1157)"/>
<mask id="path-18-inside-6_2025_1157" fill="white">
<path d="M148 79H286V119H148V79Z"/>
</mask>
<path d="M148 79H286V119H148V79Z" fill="white" fill-opacity="0.01"/>
<path d="M164.312 94.4545L164.176 95.3068H160.784L160.92 94.4545H164.312ZM162.165 92.8864H163.17L162.131 99.125C162.085 99.4091 162.092 99.6222 162.152 99.7642C162.214 99.9034 162.308 99.9972 162.433 100.045C162.561 100.091 162.699 100.114 162.847 100.114C162.957 100.114 163.048 100.108 163.119 100.097C163.19 100.082 163.247 100.071 163.29 100.062L163.358 100.966C163.281 100.991 163.178 101.017 163.047 101.043C162.919 101.071 162.761 101.085 162.574 101.085C162.29 101.085 162.023 101.024 161.773 100.902C161.523 100.78 161.331 100.594 161.197 100.344C161.064 100.094 161.028 99.7784 161.091 99.3977L162.165 92.8864ZM167.366 101.136C166.763 101.136 166.259 100.993 165.853 100.706C165.447 100.419 165.16 100.017 164.992 99.5C164.827 98.983 164.8 98.3807 164.911 97.6932C165.019 97.0227 165.234 96.4389 165.555 95.9418C165.879 95.4418 166.281 95.0554 166.761 94.7827C167.244 94.5071 167.775 94.3693 168.354 94.3693C168.957 94.3693 169.46 94.5142 169.863 94.804C170.269 95.0909 170.556 95.4943 170.724 96.0142C170.891 96.5312 170.92 97.1364 170.809 97.8295C170.701 98.4943 170.484 99.0753 170.157 99.5724C169.833 100.067 169.431 100.452 168.951 100.727C168.474 101 167.945 101.136 167.366 101.136ZM167.383 100.233C167.843 100.233 168.242 100.115 168.58 99.8793C168.921 99.6435 169.197 99.3324 169.407 98.946C169.62 98.5597 169.763 98.142 169.837 97.6932C169.906 97.267 169.903 96.8707 169.829 96.5043C169.755 96.1349 169.597 95.8381 169.356 95.6136C169.114 95.3864 168.775 95.2727 168.337 95.2727C167.877 95.2727 167.475 95.392 167.131 95.6307C166.79 95.8693 166.515 96.1832 166.305 96.5724C166.094 96.9616 165.954 97.3807 165.883 97.8295C165.815 98.2557 165.816 98.652 165.887 99.0185C165.961 99.3821 166.119 99.6761 166.36 99.9006C166.604 100.122 166.945 100.233 167.383 100.233ZM175.762 94.4545L175.625 95.3068H172.233L172.37 94.4545H175.762ZM173.614 92.8864H174.62L173.58 99.125C173.534 99.4091 173.542 99.6222 173.601 99.7642C173.664 99.9034 173.757 99.9972 173.882 100.045C174.01 100.091 174.148 100.114 174.296 100.114C174.407 100.114 174.498 100.108 174.569 100.097C174.64 100.082 174.696 100.071 174.739 100.062L174.807 100.966C174.73 100.991 174.627 101.017 174.496 101.043C174.368 101.071 174.211 101.085 174.023 101.085C173.739 101.085 173.472 101.024 173.222 100.902C172.972 100.78 172.78 100.594 172.647 100.344C172.513 100.094 172.478 99.7784 172.54 99.3977L173.614 92.8864ZM178.093 101.153C177.678 101.153 177.314 101.075 177.002 100.919C176.689 100.76 176.458 100.531 176.307 100.233C176.157 99.9318 176.115 99.5682 176.184 99.142C176.249 98.767 176.375 98.4631 176.563 98.2301C176.75 97.9943 176.978 97.8097 177.245 97.6761C177.515 97.5398 177.804 97.4389 178.114 97.3736C178.426 97.3054 178.738 97.2528 179.047 97.2159C179.451 97.1648 179.779 97.125 180.032 97.0966C180.284 97.0682 180.475 97.0213 180.603 96.956C180.73 96.8906 180.809 96.7784 180.837 96.6193V96.5852C180.905 96.1676 180.85 95.8423 180.671 95.6094C180.492 95.3736 180.172 95.2557 179.712 95.2557C179.235 95.2557 178.836 95.3608 178.515 95.571C178.194 95.7812 177.956 96.0057 177.803 96.2443L176.917 95.9034C177.15 95.5057 177.428 95.196 177.752 94.9744C178.076 94.75 178.415 94.5937 178.77 94.5057C179.125 94.4148 179.468 94.3693 179.797 94.3693C180.007 94.3693 180.245 94.3949 180.509 94.446C180.773 94.4943 181.02 94.5952 181.25 94.7486C181.483 94.902 181.658 95.1335 181.775 95.4432C181.894 95.7528 181.911 96.1676 181.826 96.6875L181.11 101H180.104L180.257 100.114H180.206C180.115 100.256 179.976 100.408 179.789 100.57C179.604 100.732 179.37 100.869 179.086 100.983C178.804 101.097 178.473 101.153 178.093 101.153ZM178.382 100.25C178.78 100.25 179.128 100.172 179.426 100.016C179.728 99.8594 179.969 99.6577 180.151 99.4105C180.336 99.1634 180.451 98.9034 180.496 98.6307L180.65 97.7102C180.598 97.7614 180.498 97.8082 180.347 97.8509C180.196 97.8906 180.026 97.9261 179.836 97.9574C179.648 97.9858 179.465 98.0114 179.286 98.0341C179.11 98.054 178.968 98.071 178.86 98.0852C178.593 98.1193 178.338 98.1747 178.097 98.2514C177.858 98.3253 177.657 98.4375 177.492 98.5881C177.33 98.7358 177.229 98.9375 177.189 99.1932C177.13 99.5426 177.213 99.8068 177.441 99.9858C177.668 100.162 177.982 100.25 178.382 100.25ZM185.4 92.2727L183.951 101H182.945L184.394 92.2727H185.4ZM189.168 101L190.259 94.4545H191.23L191.06 95.4432H191.128C191.299 95.1193 191.559 94.8565 191.908 94.6548C192.257 94.4531 192.628 94.3523 193.02 94.3523C193.097 94.3523 193.189 94.3537 193.297 94.3565C193.405 94.3565 193.489 94.3608 193.549 94.3693L193.378 95.392C193.344 95.3835 193.267 95.3707 193.148 95.3537C193.029 95.3338 192.901 95.3239 192.765 95.3239C192.446 95.3239 192.152 95.3906 191.882 95.5241C191.613 95.6548 191.387 95.8366 191.205 96.0696C191.023 96.2997 190.907 96.5625 190.855 96.858L190.174 101H189.168ZM196.184 101.136C195.556 101.136 195.038 100.997 194.629 100.719C194.22 100.438 193.934 100.045 193.772 99.5426C193.61 99.0369 193.585 98.4489 193.696 97.7784C193.806 97.108 194.027 96.517 194.356 96.0057C194.686 95.4915 195.096 95.0909 195.588 94.804C196.079 94.5142 196.619 94.3693 197.207 94.3693C197.548 94.3693 197.876 94.4261 198.191 94.5398C198.507 94.6534 198.779 94.8381 199.01 95.0938C199.24 95.3466 199.4 95.6818 199.491 96.0994C199.582 96.517 199.576 97.0312 199.474 97.642L199.406 98.0682H194.36L194.497 97.1989H198.52C198.585 96.8295 198.568 96.5 198.468 96.2102C198.372 95.9205 198.203 95.6918 197.961 95.5241C197.723 95.3565 197.42 95.2727 197.054 95.2727C196.676 95.2727 196.324 95.375 195.997 95.5795C195.67 95.7812 195.397 96.0369 195.179 96.3466C194.96 96.6534 194.824 96.9659 194.77 97.2841L194.65 98.0341C194.565 98.5767 194.578 99.0085 194.689 99.3295C194.802 99.6506 195 99.8821 195.281 100.024C195.562 100.163 195.914 100.233 196.338 100.233C196.608 100.233 196.856 100.196 197.083 100.122C197.311 100.045 197.514 99.9318 197.693 99.7812C197.872 99.6278 198.022 99.4375 198.145 99.2102L199.065 99.483C198.909 99.8125 198.689 100.102 198.404 100.352C198.123 100.599 197.794 100.793 197.416 100.932C197.041 101.068 196.63 101.136 196.184 101.136ZM201.948 101L201.044 94.4545H202.101L202.681 99.4659H202.749L204.982 94.4545H206.056L206.601 99.4489H206.669L208.919 94.4545H209.976L206.891 101H205.902L205.306 95.9716H205.203L202.936 101H201.948ZM212.124 101.153C211.709 101.153 211.346 101.075 211.033 100.919C210.721 100.76 210.489 100.531 210.338 100.233C210.188 99.9318 210.147 99.5682 210.215 99.142C210.28 98.767 210.407 98.4631 210.594 98.2301C210.782 97.9943 211.009 97.8097 211.276 97.6761C211.546 97.5398 211.836 97.4389 212.145 97.3736C212.458 97.3054 212.769 97.2528 213.078 97.2159C213.482 97.1648 213.81 97.125 214.063 97.0966C214.316 97.0682 214.506 97.0213 214.634 96.956C214.762 96.8906 214.84 96.7784 214.868 96.6193V96.5852C214.936 96.1676 214.881 95.8423 214.702 95.6094C214.523 95.3736 214.203 95.2557 213.743 95.2557C213.266 95.2557 212.867 95.3608 212.546 95.571C212.225 95.7812 211.988 96.0057 211.834 96.2443L210.948 95.9034C211.181 95.5057 211.459 95.196 211.783 94.9744C212.107 94.75 212.446 94.5937 212.801 94.5057C213.157 94.4148 213.499 94.3693 213.828 94.3693C214.039 94.3693 214.276 94.3949 214.54 94.446C214.804 94.4943 215.051 94.5952 215.282 94.7486C215.515 94.902 215.689 95.1335 215.806 95.4432C215.925 95.7528 215.942 96.1676 215.857 96.6875L215.141 101H214.135L214.289 100.114H214.238C214.147 100.256 214.007 100.408 213.82 100.57C213.635 100.732 213.401 100.869 213.117 100.983C212.836 101.097 212.505 101.153 212.124 101.153ZM212.414 100.25C212.811 100.25 213.159 100.172 213.458 100.016C213.759 99.8594 214 99.6577 214.182 99.4105C214.367 99.1634 214.482 98.9034 214.527 98.6307L214.681 97.7102C214.63 97.7614 214.529 97.8082 214.378 97.8509C214.228 97.8906 214.057 97.9261 213.867 97.9574C213.679 97.9858 213.496 98.0114 213.317 98.0341C213.141 98.054 212.999 98.071 212.891 98.0852C212.624 98.1193 212.37 98.1747 212.128 98.2514C211.89 98.3253 211.688 98.4375 211.523 98.5881C211.361 98.7358 211.26 98.9375 211.221 99.1932C211.161 99.5426 211.245 99.8068 211.472 99.9858C211.699 100.162 212.013 100.25 212.414 100.25ZM216.977 101L218.067 94.4545H219.039L218.869 95.4432H218.937C219.107 95.1193 219.367 94.8565 219.717 94.6548C220.066 94.4531 220.437 94.3523 220.829 94.3523C220.906 94.3523 220.998 94.3537 221.106 94.3565C221.214 94.3565 221.298 94.3608 221.357 94.3693L221.187 95.392C221.153 95.3835 221.076 95.3707 220.957 95.3537C220.837 95.3338 220.71 95.3239 220.573 95.3239C220.255 95.3239 219.961 95.3906 219.691 95.5241C219.421 95.6548 219.195 95.8366 219.013 96.0696C218.832 96.2997 218.715 96.5625 218.664 96.858L217.982 101H216.977ZM223.729 101.136C223.18 101.136 222.72 100.999 222.348 100.723C221.976 100.445 221.713 100.053 221.56 99.5469C221.409 99.0384 221.391 98.4375 221.504 97.7443C221.621 97.0568 221.838 96.4602 222.156 95.9545C222.477 95.4489 222.871 95.0582 223.337 94.7827C223.803 94.5071 224.311 94.3693 224.862 94.3693C225.288 94.3693 225.614 94.4403 225.838 94.5824C226.065 94.7216 226.23 94.8807 226.332 95.0597C226.435 95.2358 226.513 95.3807 226.567 95.4943H226.652L227.189 92.2727H228.195L226.746 101H225.774L225.945 99.9943H225.825C225.732 100.114 225.601 100.264 225.433 100.446C225.266 100.625 225.044 100.786 224.768 100.928C224.496 101.067 224.149 101.136 223.729 101.136ZM223.976 100.233C224.379 100.233 224.74 100.128 225.058 99.9176C225.379 99.7045 225.646 99.4105 225.859 99.0355C226.072 98.6577 226.22 98.2216 226.303 97.7273C226.385 97.2386 226.382 96.8111 226.294 96.4446C226.206 96.0753 226.037 95.7884 225.787 95.5838C225.537 95.3764 225.206 95.2727 224.794 95.2727C224.371 95.2727 224.003 95.3821 223.69 95.6009C223.378 95.8168 223.124 96.1108 222.928 96.483C222.732 96.8523 222.595 97.267 222.518 97.7273C222.442 98.1932 222.44 98.6165 222.514 98.9972C222.588 99.375 222.744 99.6761 222.983 99.9006C223.224 100.122 223.555 100.233 223.976 100.233Z" fill="white"/>
<path d="M148 79V78H147V79H148ZM148 80H286V78H148V80ZM149 119V79H147V119H149Z" fill="#5B5B5B" mask="url(#path-18-inside-6_2025_1157)"/>
</g>
</g>
<rect x="0.5" y="0.5" width="285" height="118" rx="3.5" stroke="#5B5B5B"/>
<defs>
<clipPath id="clip0_2025_1157">
<rect width="286" height="119" rx="4" fill="white"/>
</clipPath>
<clipPath id="clip1_2025_1157">
<rect width="286" height="39" fill="white"/>
</clipPath>
<clipPath id="clip2_2025_1157">
<rect width="286" height="40" fill="white" transform="translate(0 39)"/>
</clipPath>
<clipPath id="clip3_2025_1157">
<rect width="286" height="40" fill="white" transform="translate(0 79)"/>
</clipPath>
</defs>
</svg>
