<svg width="240" height="216" viewBox="0 0 240 216" fill="none" xmlns="http://www.w3.org/2000/svg">
<g clip-path="url(#clip0_4163_371)">
<rect width="240" height="216" rx="4" fill="#363636"/>
<g clip-path="url(#clip1_4163_371)">
<rect width="240" height="36" fill="white" fill-opacity="0.01"/>
<mask id="path-3-inside-1_4163_371" fill="white">
<path d="M0 0H120V36H0V0Z"/>
</mask>
<path d="M0 0H120V36H0V0Z" fill="white" fill-opacity="0.05"/>
<path d="M17.4929 15.7827C17.4588 15.4389 17.3125 15.1719 17.054 14.9815C16.7955 14.7912 16.4446 14.696 16.0014 14.696C15.7003 14.696 15.446 14.7386 15.2386 14.8239C15.0313 14.9062 14.8722 15.0213 14.7614 15.169C14.6534 15.3168 14.5994 15.4844 14.5994 15.6719C14.5938 15.8281 14.6264 15.9645 14.6974 16.081C14.7713 16.1974 14.8722 16.2983 15 16.3835C15.1278 16.4659 15.2756 16.5384 15.4432 16.6009C15.6108 16.6605 15.7898 16.7116 15.9801 16.7543L16.7642 16.9418C17.1449 17.027 17.4943 17.1406 17.8125 17.2827C18.1307 17.4247 18.4063 17.5994 18.6392 17.8068C18.8722 18.0142 19.0526 18.2585 19.1804 18.5398C19.3111 18.821 19.3778 19.1435 19.3807 19.5071C19.3778 20.0412 19.2415 20.5043 18.9716 20.8963C18.7045 21.2855 18.3182 21.5881 17.8125 21.804C17.3097 22.017 16.7031 22.1236 15.9929 22.1236C15.2884 22.1236 14.6747 22.0156 14.152 21.7997C13.6321 21.5838 13.2259 21.2642 12.9332 20.8409C12.6435 20.4148 12.4915 19.8878 12.4773 19.2599H14.2628C14.2827 19.5526 14.3665 19.7969 14.5142 19.9929C14.6648 20.1861 14.8651 20.3324 15.1151 20.4318C15.3679 20.5284 15.6534 20.5767 15.9716 20.5767C16.2841 20.5767 16.5554 20.5312 16.7855 20.4403C17.0185 20.3494 17.1989 20.223 17.3267 20.0611C17.4545 19.8991 17.5185 19.7131 17.5185 19.5028C17.5185 19.3068 17.4602 19.142 17.3438 19.0085C17.2301 18.875 17.0625 18.7614 16.8409 18.6676C16.6222 18.5739 16.3537 18.4886 16.0355 18.4119L15.0852 18.1733C14.3494 17.9943 13.7685 17.7145 13.3423 17.3338C12.9162 16.9531 12.7045 16.4403 12.7074 15.7955C12.7045 15.267 12.8452 14.8054 13.1293 14.4105C13.4162 14.0156 13.8097 13.7074 14.3097 13.4858C14.8097 13.2642 15.3778 13.1534 16.0142 13.1534C16.6619 13.1534 17.2273 13.2642 17.7102 13.4858C18.196 13.7074 18.5739 14.0156 18.8438 14.4105C19.1136 14.8054 19.2528 15.2628 19.2614 15.7827H17.4929ZM23.5707 22.1278C22.8974 22.1278 22.3178 21.9915 21.832 21.7188C21.3491 21.4432 20.9769 21.054 20.7156 20.5511C20.4542 20.0455 20.3235 19.4474 20.3235 18.7571C20.3235 18.0838 20.4542 17.4929 20.7156 16.9844C20.9769 16.4759 21.3448 16.0795 21.8192 15.7955C22.2965 15.5114 22.8562 15.3693 23.4982 15.3693C23.93 15.3693 24.332 15.4389 24.7042 15.5781C25.0792 15.7145 25.4059 15.9205 25.6843 16.196C25.9656 16.4716 26.1843 16.8182 26.3406 17.2358C26.4968 17.6506 26.5749 18.1364 26.5749 18.6932V19.1918H21.0479V18.0668H24.8661C24.8661 17.8054 24.8093 17.5739 24.6957 17.3722C24.582 17.1705 24.4244 17.0128 24.2227 16.8991C24.0238 16.7827 23.7923 16.7244 23.5281 16.7244C23.2525 16.7244 23.0082 16.7884 22.7951 16.9162C22.5849 17.0412 22.4201 17.2102 22.3008 17.4233C22.1815 17.6335 22.1204 17.8679 22.1175 18.1264V19.196C22.1175 19.5199 22.1772 19.7997 22.2965 20.0355C22.4187 20.2713 22.5906 20.4531 22.8121 20.581C23.0337 20.7088 23.2965 20.7727 23.6005 20.7727C23.8022 20.7727 23.9869 20.7443 24.1545 20.6875C24.3221 20.6307 24.4656 20.5455 24.5849 20.4318C24.7042 20.3182 24.7951 20.179 24.8576 20.0142L26.5366 20.125C26.4513 20.5284 26.2766 20.8807 26.0124 21.1818C25.7511 21.4801 25.413 21.7131 24.9982 21.8807C24.5863 22.0455 24.1104 22.1278 23.5707 22.1278ZM27.7596 22V15.4545H29.5195V16.5966H29.5877C29.707 16.1903 29.9073 15.8835 30.1886 15.6761C30.4698 15.4659 30.7937 15.3608 31.1602 15.3608C31.2511 15.3608 31.3491 15.3665 31.4542 15.3778C31.5593 15.3892 31.6516 15.4048 31.7312 15.4247V17.0355C31.646 17.0099 31.5281 16.9872 31.3775 16.9673C31.2269 16.9474 31.0891 16.9375 30.9641 16.9375C30.6971 16.9375 30.4585 16.9957 30.2482 17.1122C30.0408 17.2259 29.8761 17.3849 29.7539 17.5895C29.6346 17.794 29.5749 18.0298 29.5749 18.2969V22H27.7596ZM38.9712 15.4545L36.6829 22H34.6374L32.3491 15.4545H34.2667L35.6261 20.1378H35.6942L37.0494 15.4545H38.9712ZM39.9002 22V15.4545H41.7156V22H39.9002ZM40.8121 14.6108C40.5423 14.6108 40.3107 14.5213 40.1175 14.3423C39.9272 14.1605 39.832 13.9432 39.832 13.6903C39.832 13.4403 39.9272 13.2259 40.1175 13.0469C40.3107 12.8651 40.5423 12.7741 40.8121 12.7741C41.082 12.7741 41.3121 12.8651 41.5025 13.0469C41.6957 13.2259 41.7923 13.4403 41.7923 13.6903C41.7923 13.9432 41.6957 14.1605 41.5025 14.3423C41.3121 14.5213 41.082 14.6108 40.8121 14.6108ZM46.1271 22.1278C45.4567 22.1278 44.88 21.9858 44.397 21.7017C43.9169 21.4148 43.5476 21.017 43.2891 20.5085C43.0334 20 42.9055 19.4148 42.9055 18.7528C42.9055 18.0824 43.0348 17.4943 43.2933 16.9886C43.5547 16.4801 43.9254 16.0838 44.4055 15.7997C44.8857 15.5128 45.4567 15.3693 46.1186 15.3693C46.6896 15.3693 47.1896 15.473 47.6186 15.6804C48.0476 15.8878 48.3871 16.179 48.6371 16.554C48.8871 16.929 49.0249 17.3693 49.0504 17.875H47.3374C47.2891 17.5483 47.1612 17.2855 46.9538 17.0866C46.7493 16.8849 46.4808 16.7841 46.1484 16.7841C45.8672 16.7841 45.6214 16.8608 45.4112 17.0142C45.2038 17.1648 45.0419 17.3849 44.9254 17.6747C44.8089 17.9645 44.7507 18.3153 44.7507 18.7273C44.7507 19.1449 44.8075 19.5 44.9212 19.7926C45.0376 20.0852 45.201 20.3082 45.4112 20.4616C45.6214 20.6151 45.8672 20.6918 46.1484 20.6918C46.3558 20.6918 46.5419 20.6491 46.7067 20.5639C46.8743 20.4787 47.0121 20.3551 47.12 20.1932C47.2308 20.0284 47.3033 19.831 47.3374 19.6009H49.0504C49.022 20.1009 48.8857 20.5412 48.6413 20.9219C48.3999 21.2997 48.0661 21.5952 47.6399 21.8082C47.2138 22.0213 46.7095 22.1278 46.1271 22.1278ZM53.1957 22.1278C52.5224 22.1278 51.9428 21.9915 51.457 21.7188C50.9741 21.4432 50.6019 21.054 50.3406 20.5511C50.0792 20.0455 49.9485 19.4474 49.9485 18.7571C49.9485 18.0838 50.0792 17.4929 50.3406 16.9844C50.6019 16.4759 50.9698 16.0795 51.4442 15.7955C51.9215 15.5114 52.4812 15.3693 53.1232 15.3693C53.555 15.3693 53.957 15.4389 54.3292 15.5781C54.7042 15.7145 55.0309 15.9205 55.3093 16.196C55.5906 16.4716 55.8093 16.8182 55.9656 17.2358C56.1218 17.6506 56.1999 18.1364 56.1999 18.6932V19.1918H50.6729V18.0668H54.4911C54.4911 17.8054 54.4343 17.5739 54.3207 17.3722C54.207 17.1705 54.0494 17.0128 53.8477 16.8991C53.6488 16.7827 53.4173 16.7244 53.1531 16.7244C52.8775 16.7244 52.6332 16.7884 52.4201 16.9162C52.2099 17.0412 52.0451 17.2102 51.9258 17.4233C51.8065 17.6335 51.7454 17.8679 51.7425 18.1264V19.196C51.7425 19.5199 51.8022 19.7997 51.9215 20.0355C52.0437 20.2713 52.2156 20.4531 52.4371 20.581C52.6587 20.7088 52.9215 20.7727 53.2255 20.7727C53.4272 20.7727 53.6119 20.7443 53.7795 20.6875C53.9471 20.6307 54.0906 20.5455 54.2099 20.4318C54.3292 20.3182 54.4201 20.179 54.4826 20.0142L56.1616 20.125C56.0763 20.5284 55.9016 20.8807 55.6374 21.1818C55.3761 21.4801 55.038 21.7131 54.6232 21.8807C54.2113 22.0455 53.7354 22.1278 53.1957 22.1278Z" fill="#00FF66"/>
<path d="M0 0V-1H-1V0H0ZM0 1H120V-1H0V1ZM1 36V0H-1V36H1Z" fill="#5B5B5B" mask="url(#path-3-inside-1_4163_371)"/>
<mask id="path-6-inside-2_4163_371" fill="white">
<path d="M120 0H240V36H120V0Z"/>
</mask>
<path d="M120 0H240V36H120V0Z" fill="white" fill-opacity="0.05"/>
<path d="M132.861 22V13.2727H138.452V14.598H134.442V16.9673H138.068V18.2926H134.442V22H132.861ZM142.241 22.1278C141.585 22.1278 141.018 21.9915 140.541 21.7188C140.066 21.4432 139.701 21.054 139.446 20.5511C139.19 20.0455 139.062 19.4503 139.062 18.7656C139.062 18.0923 139.19 17.5014 139.446 16.9929C139.704 16.4815 140.065 16.0838 140.528 15.7997C140.991 15.5128 141.535 15.3693 142.16 15.3693C142.564 15.3693 142.944 15.4347 143.302 15.5653C143.663 15.6932 143.981 15.892 144.257 16.1619C144.535 16.4318 144.754 16.7756 144.913 17.1932C145.072 17.608 145.152 18.1023 145.152 18.6761V19.1491H139.787V18.1094H143.673C143.67 17.8139 143.606 17.5511 143.481 17.321C143.356 17.0881 143.181 16.9048 142.957 16.7713C142.735 16.6378 142.477 16.571 142.181 16.571C141.866 16.571 141.589 16.6477 141.35 16.8011C141.112 16.9517 140.926 17.1506 140.792 17.3977C140.662 17.642 140.595 17.9105 140.592 18.2031V19.1108C140.592 19.4915 140.662 19.8182 140.801 20.0909C140.94 20.3608 141.135 20.5682 141.385 20.7131C141.635 20.8551 141.927 20.9261 142.262 20.9261C142.487 20.9261 142.69 20.8949 142.872 20.8324C143.054 20.767 143.211 20.6719 143.345 20.5469C143.478 20.4219 143.579 20.267 143.647 20.0824L145.088 20.2443C144.997 20.625 144.824 20.9574 144.568 21.2415C144.315 21.5227 143.991 21.7415 143.596 21.8977C143.201 22.0511 142.75 22.1278 142.241 22.1278ZM149.354 22.1278C148.698 22.1278 148.131 21.9915 147.654 21.7188C147.18 21.4432 146.815 21.054 146.559 20.5511C146.303 20.0455 146.175 19.4503 146.175 18.7656C146.175 18.0923 146.303 17.5014 146.559 16.9929C146.817 16.4815 147.178 16.0838 147.641 15.7997C148.104 15.5128 148.648 15.3693 149.273 15.3693C149.677 15.3693 150.058 15.4347 150.415 15.5653C150.776 15.6932 151.094 15.892 151.37 16.1619C151.648 16.4318 151.867 16.7756 152.026 17.1932C152.185 17.608 152.265 18.1023 152.265 18.6761V19.1491H146.9V18.1094H150.786C150.783 17.8139 150.719 17.5511 150.594 17.321C150.469 17.0881 150.295 16.9048 150.07 16.7713C149.849 16.6378 149.59 16.571 149.295 16.571C148.979 16.571 148.702 16.6477 148.464 16.8011C148.225 16.9517 148.039 17.1506 147.906 17.3977C147.775 17.642 147.708 17.9105 147.705 18.2031V19.1108C147.705 19.4915 147.775 19.8182 147.914 20.0909C148.053 20.3608 148.248 20.5682 148.498 20.7131C148.748 20.8551 149.04 20.9261 149.376 20.9261C149.6 20.9261 149.803 20.8949 149.985 20.8324C150.167 20.767 150.325 20.6719 150.458 20.5469C150.592 20.4219 150.692 20.267 150.761 20.0824L152.201 20.2443C152.11 20.625 151.937 20.9574 151.681 21.2415C151.428 21.5227 151.104 21.7415 150.71 21.8977C150.315 22.0511 149.863 22.1278 149.354 22.1278ZM158.743 17.1847L157.337 17.3381C157.297 17.196 157.228 17.0625 157.128 16.9375C157.032 16.8125 156.901 16.7116 156.736 16.6349C156.571 16.5582 156.37 16.5199 156.131 16.5199C155.81 16.5199 155.54 16.5895 155.321 16.7287C155.105 16.8679 154.999 17.0483 155.002 17.2699C154.999 17.4602 155.069 17.6151 155.211 17.7344C155.355 17.8537 155.594 17.9517 155.926 18.0284L157.043 18.267C157.662 18.4006 158.123 18.6122 158.424 18.902C158.728 19.1918 158.881 19.571 158.884 20.0398C158.881 20.4517 158.76 20.8153 158.522 21.1307C158.286 21.4432 157.958 21.6875 157.537 21.8636C157.117 22.0398 156.634 22.1278 156.088 22.1278C155.287 22.1278 154.642 21.9602 154.154 21.625C153.665 21.2869 153.374 20.8168 153.28 20.2145L154.784 20.0696C154.853 20.3651 154.998 20.5881 155.219 20.7386C155.441 20.8892 155.729 20.9645 156.084 20.9645C156.451 20.9645 156.745 20.8892 156.966 20.7386C157.191 20.5881 157.303 20.402 157.303 20.1804C157.303 19.9929 157.23 19.8381 157.086 19.7159C156.944 19.5937 156.722 19.5 156.421 19.4347L155.304 19.2003C154.676 19.0696 154.212 18.8494 153.911 18.5398C153.61 18.2273 153.461 17.8324 153.463 17.3551C153.461 16.9517 153.57 16.6023 153.792 16.3068C154.016 16.0085 154.327 15.7784 154.725 15.6165C155.125 15.4517 155.587 15.3693 156.11 15.3693C156.877 15.3693 157.48 15.5327 157.921 15.8594C158.364 16.1861 158.638 16.6278 158.743 17.1847Z" fill="#00C2FF"/>
<path d="M120 0V-1H119V0H120ZM120 1H240V-1H120V1ZM121 36V0H119V36H121Z" fill="#5B5B5B" mask="url(#path-6-inside-2_4163_371)"/>
</g>
<g clip-path="url(#clip2_4163_371)">
<rect width="240" height="36" transform="translate(0 36)" fill="white" fill-opacity="0.01"/>
<mask id="path-9-inside-3_4163_371" fill="white">
<path d="M0 36H120V72H0V36Z"/>
</mask>
<path d="M0 36H120V72H0V36Z" fill="white" fill-opacity="0.01"/>
<path d="M15.75 58H13.0568V49.2727H15.8693C16.7159 49.2727 17.4403 49.4474 18.0426 49.7969C18.6449 50.1435 19.1065 50.642 19.4276 51.2926C19.7486 51.9403 19.9091 52.7159 19.9091 53.6193C19.9091 54.5284 19.7472 55.3111 19.4233 55.9673C19.0994 56.6207 18.6278 57.1236 18.0085 57.4759C17.3892 57.8253 16.6364 58 15.75 58ZM14.1136 57.0625H15.6818C16.4034 57.0625 17.0014 56.9233 17.4759 56.6449C17.9503 56.3665 18.304 55.9702 18.5369 55.456C18.7699 54.9418 18.8864 54.3295 18.8864 53.6193C18.8864 52.9148 18.7713 52.3082 18.5412 51.7997C18.3111 51.2884 17.9673 50.8963 17.5099 50.6236C17.0526 50.348 16.483 50.2102 15.8011 50.2102H14.1136V57.0625ZM21.6818 58V49.2727H26.9489V50.2102H22.7386V53.1591H26.6761V54.0966H22.7386V57.0625H27.017V58H21.6818ZM29.3651 49.2727L31.6151 52.9034H31.6832L33.9332 49.2727H35.1776L32.4332 53.6364L35.1776 58H33.9332L31.6832 54.4375H31.6151L29.3651 58H28.1207L30.9332 53.6364L28.1207 49.2727H29.3651ZM42.7063 51.4545V52.3068H39.1779V51.4545H42.7063ZM40.2347 58V50.5511C40.2347 50.1761 40.3228 49.8636 40.4989 49.6136C40.6751 49.3636 40.9038 49.1761 41.185 49.0511C41.4663 48.9261 41.7631 48.8636 42.0756 48.8636C42.3228 48.8636 42.5245 48.8835 42.6808 48.9233C42.837 48.9631 42.9535 49 43.0302 49.0341L42.7404 49.9034C42.6893 49.8864 42.6183 49.8651 42.5273 49.8395C42.4393 49.8139 42.3228 49.8011 42.1779 49.8011C41.8455 49.8011 41.6055 49.8849 41.4577 50.0526C41.3129 50.2202 41.2404 50.4659 41.2404 50.7898V58H40.2347ZM46.5906 58.1364C45.9599 58.1364 45.4158 57.9972 44.9585 57.7188C44.5039 57.4375 44.1531 57.0455 43.9059 56.5426C43.6616 56.0369 43.5394 55.4489 43.5394 54.7784C43.5394 54.108 43.6616 53.517 43.9059 53.0057C44.1531 52.4915 44.4968 52.0909 44.9371 51.804C45.3803 51.5142 45.8974 51.3693 46.4883 51.3693C46.8292 51.3693 47.1658 51.4261 47.4982 51.5398C47.8306 51.6534 48.1332 51.8381 48.4059 52.0938C48.6786 52.3466 48.896 52.6818 49.0579 53.0994C49.2198 53.517 49.3008 54.0312 49.3008 54.642V55.0682H44.2553V54.1989H48.2781C48.2781 53.8295 48.2042 53.5 48.0565 53.2102C47.9116 52.9205 47.7042 52.6918 47.4343 52.5241C47.1673 52.3565 46.8519 52.2727 46.4883 52.2727C46.0877 52.2727 45.7411 52.3722 45.4485 52.571C45.1587 52.767 44.9357 53.0227 44.7795 53.3381C44.6232 53.6534 44.5451 53.9915 44.5451 54.3523V54.9318C44.5451 55.4261 44.6303 55.8452 44.8008 56.1889C44.9741 56.5298 45.2141 56.7898 45.521 56.9688C45.8278 57.1449 46.1843 57.233 46.5906 57.233C46.8548 57.233 47.0934 57.196 47.3065 57.1222C47.5224 57.0455 47.7085 56.9318 47.8647 56.7812C48.021 56.6278 48.1417 56.4375 48.2269 56.2102L49.1985 56.483C49.0962 56.8125 48.9244 57.1023 48.6829 57.3523C48.4414 57.5994 48.1431 57.7926 47.788 57.9318C47.4329 58.0682 47.0337 58.1364 46.5906 58.1364ZM53.5749 58.1364C52.9442 58.1364 52.4002 57.9972 51.9428 57.7188C51.4883 57.4375 51.1374 57.0455 50.8903 56.5426C50.646 56.0369 50.5238 55.4489 50.5238 54.7784C50.5238 54.108 50.646 53.517 50.8903 53.0057C51.1374 52.4915 51.4812 52.0909 51.9215 51.804C52.3647 51.5142 52.8817 51.3693 53.4727 51.3693C53.8136 51.3693 54.1502 51.4261 54.4826 51.5398C54.815 51.6534 55.1175 51.8381 55.3903 52.0938C55.663 52.3466 55.8803 52.6818 56.0423 53.0994C56.2042 53.517 56.2852 54.0312 56.2852 54.642V55.0682H51.2397V54.1989H55.2624C55.2624 53.8295 55.1886 53.5 55.0408 53.2102C54.896 52.9205 54.6886 52.6918 54.4187 52.5241C54.1516 52.3565 53.8363 52.2727 53.4727 52.2727C53.0721 52.2727 52.7255 52.3722 52.4329 52.571C52.1431 52.767 51.9201 53.0227 51.7638 53.3381C51.6076 53.6534 51.5295 53.9915 51.5295 54.3523V54.9318C51.5295 55.4261 51.6147 55.8452 51.7852 56.1889C51.9585 56.5298 52.1985 56.7898 52.5053 56.9688C52.8121 57.1449 53.1687 57.233 53.5749 57.233C53.8391 57.233 54.0778 57.196 54.2908 57.1222C54.5067 57.0455 54.6928 56.9318 54.8491 56.7812C55.0053 56.6278 55.1261 56.4375 55.2113 56.2102L56.1829 56.483C56.0806 56.8125 55.9087 57.1023 55.6673 57.3523C55.4258 57.5994 55.1275 57.7926 54.7724 57.9318C54.4173 58.0682 54.0181 58.1364 53.5749 58.1364ZM61.9229 56.8835C61.7127 56.8835 61.5323 56.8082 61.3817 56.6577C61.2312 56.5071 61.1559 56.3267 61.1559 56.1165C61.1559 55.9062 61.2312 55.7259 61.3817 55.5753C61.5323 55.4247 61.7127 55.3494 61.9229 55.3494C62.1332 55.3494 62.3136 55.4247 62.4641 55.5753C62.6147 55.7259 62.69 55.9062 62.69 56.1165C62.69 56.2557 62.6545 56.3835 62.5835 56.5C62.5153 56.6165 62.4229 56.7102 62.3065 56.7812C62.1928 56.8494 62.065 56.8835 61.9229 56.8835ZM61.9229 52.4688C61.7127 52.4688 61.5323 52.3935 61.3817 52.2429C61.2312 52.0923 61.1559 51.9119 61.1559 51.7017C61.1559 51.4915 61.2312 51.3111 61.3817 51.1605C61.5323 51.0099 61.7127 50.9347 61.9229 50.9347C62.1332 50.9347 62.3136 51.0099 62.4641 51.1605C62.6147 51.3111 62.69 51.4915 62.69 51.7017C62.69 51.8409 62.6545 51.9688 62.5835 52.0852C62.5153 52.2017 62.4229 52.2955 62.3065 52.3665C62.1928 52.4347 62.065 52.4688 61.9229 52.4688ZM68.006 58V49.2727H71.0572C71.6651 49.2727 72.1665 49.3778 72.5614 49.5881C72.9563 49.7955 73.2504 50.0753 73.4435 50.4276C73.6367 50.777 73.7333 51.1648 73.7333 51.5909C73.7333 51.9659 73.6665 52.2756 73.533 52.5199C73.4023 52.7642 73.229 52.9574 73.0131 53.0994C72.8001 53.2415 72.5685 53.3466 72.3185 53.4148V53.5C72.5856 53.517 72.854 53.6108 73.1239 53.7812C73.3938 53.9517 73.6197 54.196 73.8015 54.5142C73.9833 54.8324 74.0742 55.2216 74.0742 55.6818C74.0742 56.1193 73.9748 56.5128 73.7759 56.8622C73.5771 57.2116 73.2631 57.4886 72.8342 57.6932C72.4052 57.8977 71.8469 58 71.1594 58H68.006ZM69.0629 57.0625H71.1594C71.8498 57.0625 72.3398 56.929 72.6296 56.6619C72.9222 56.392 73.0685 56.0653 73.0685 55.6818C73.0685 55.3864 72.9933 55.1136 72.8427 54.8636C72.6921 54.6108 72.4776 54.4091 72.1992 54.2585C71.9208 54.1051 71.5913 54.0284 71.2106 54.0284H69.0629V57.0625ZM69.0629 53.108H71.0231C71.3413 53.108 71.6282 53.0455 71.8839 52.9205C72.1424 52.7955 72.3469 52.6193 72.4975 52.392C72.6509 52.1648 72.7276 51.8977 72.7276 51.5909C72.7276 51.2074 72.5941 50.8821 72.3271 50.6151C72.06 50.3452 71.6367 50.2102 71.0572 50.2102H69.0629V53.108ZM79.7994 55.3239V51.4545H80.805V58H79.7994V56.892H79.7312C79.5778 57.2244 79.3391 57.5071 79.0153 57.7401C78.6914 57.9702 78.2823 58.0852 77.788 58.0852C77.3789 58.0852 77.0153 57.9957 76.6971 57.8168C76.3789 57.6349 76.1289 57.3622 75.9471 56.9986C75.7653 56.6321 75.6744 56.1705 75.6744 55.6136V51.4545H76.68V55.5455C76.68 56.0227 76.8136 56.4034 77.0806 56.6875C77.3505 56.9716 77.6942 57.1136 78.1119 57.1136C78.3619 57.1136 78.6161 57.0497 78.8746 56.9219C79.136 56.794 79.3548 56.598 79.5309 56.3338C79.7099 56.0696 79.7994 55.733 79.7994 55.3239ZM83.2947 60.4545C83.1243 60.4545 82.9723 60.4403 82.8388 60.4119C82.7053 60.3864 82.6129 60.3608 82.5618 60.3352L82.8175 59.4489C83.0618 59.5114 83.2777 59.5341 83.4652 59.517C83.6527 59.5 83.8189 59.4162 83.9638 59.2656C84.1115 59.1179 84.2464 58.8778 84.3686 58.5455L84.5561 58.0341L82.1357 51.4545H83.2266L85.0334 56.6705H85.1016L86.9084 51.4545H87.9993L85.2209 58.9545C85.0959 59.2926 84.9411 59.5724 84.7564 59.794C84.5717 60.0185 84.3572 60.1847 84.1129 60.2926C83.8714 60.4006 83.5987 60.4545 83.2947 60.4545ZM89.3267 58V51.4545H90.3324V58H89.3267ZM89.8381 50.3636C89.642 50.3636 89.473 50.2969 89.331 50.1634C89.1918 50.0298 89.1222 49.8693 89.1222 49.6818C89.1222 49.4943 89.1918 49.3338 89.331 49.2003C89.473 49.0668 89.642 49 89.8381 49C90.0341 49 90.2017 49.0668 90.3409 49.2003C90.483 49.3338 90.554 49.4943 90.554 49.6818C90.554 49.8693 90.483 50.0298 90.3409 50.1634C90.2017 50.2969 90.0341 50.3636 89.8381 50.3636ZM93.18 54.0625V58H92.1744V51.4545H93.146V52.4773H93.2312C93.3846 52.1449 93.6175 51.8778 93.93 51.6761C94.2425 51.4716 94.646 51.3693 95.1403 51.3693C95.5835 51.3693 95.9712 51.4602 96.3036 51.642C96.636 51.821 96.8945 52.0938 97.0792 52.4602C97.2638 52.8239 97.3562 53.2841 97.3562 53.8409V58H96.3505V53.9091C96.3505 53.3949 96.217 52.9943 95.9499 52.7074C95.6829 52.4176 95.3164 52.2727 94.8505 52.2727C94.5295 52.2727 94.2425 52.3423 93.9897 52.4815C93.7397 52.6207 93.5423 52.8239 93.3974 53.0909C93.2525 53.358 93.18 53.6818 93.18 54.0625ZM101.836 60.5909C101.35 60.5909 100.933 60.5284 100.583 60.4034C100.234 60.2812 99.9425 60.1193 99.7095 59.9176C99.4794 59.7188 99.2962 59.5057 99.1598 59.2784L99.9609 58.7159C100.052 58.8352 100.167 58.9716 100.306 59.125C100.445 59.2812 100.636 59.4162 100.877 59.5298C101.121 59.6463 101.441 59.7045 101.836 59.7045C102.364 59.7045 102.8 59.5767 103.144 59.321C103.488 59.0653 103.66 58.6648 103.66 58.1193V56.7898H103.575C103.501 56.9091 103.396 57.0568 103.259 57.233C103.126 57.4062 102.933 57.5611 102.68 57.6974C102.43 57.831 102.092 57.8977 101.665 57.8977C101.137 57.8977 100.663 57.7727 100.242 57.5227C99.8246 57.2727 99.4936 56.9091 99.2493 56.4318C99.0078 55.9545 98.8871 55.375 98.8871 54.6932C98.8871 54.0227 99.005 53.4389 99.2408 52.9418C99.4766 52.4418 99.8047 52.0554 100.225 51.7827C100.646 51.5071 101.131 51.3693 101.683 51.3693C102.109 51.3693 102.447 51.4403 102.697 51.5824C102.95 51.7216 103.143 51.8807 103.276 52.0597C103.413 52.2358 103.518 52.3807 103.592 52.4943H103.694V51.4545H104.665V58.1875C104.665 58.75 104.538 59.2074 104.282 59.5597C104.029 59.9148 103.688 60.1747 103.259 60.3395C102.833 60.5071 102.359 60.5909 101.836 60.5909ZM101.802 56.9943C102.205 56.9943 102.546 56.902 102.825 56.7173C103.103 56.5327 103.315 56.267 103.46 55.9205C103.604 55.5739 103.677 55.1591 103.677 54.6761C103.677 54.2045 103.606 53.7884 103.464 53.4276C103.322 53.0668 103.112 52.7841 102.833 52.5795C102.555 52.375 102.211 52.2727 101.802 52.2727C101.376 52.2727 101.021 52.3807 100.737 52.5966C100.455 52.8125 100.244 53.1023 100.102 53.4659C99.9624 53.8295 99.8928 54.233 99.8928 54.6761C99.8928 55.1307 99.9638 55.5327 100.106 55.8821C100.251 56.2287 100.464 56.5014 100.745 56.7003C101.029 56.8963 101.381 56.9943 101.802 56.9943Z" fill="white"/>
<path d="M0 36V35H-1V36H0ZM0 37H120V35H0V37ZM1 72V36H-1V72H1Z" fill="#5B5B5B" mask="url(#path-9-inside-3_4163_371)"/>
<mask id="path-12-inside-4_4163_371" fill="white">
<path d="M120 36H240V72H120V36Z"/>
</mask>
<path d="M120 36H240V72H120V36Z" fill="white" fill-opacity="0.01"/>
<path d="M135.972 49.2727V58H134.915V50.3807H134.864L132.733 51.7955V50.7216L134.915 49.2727H135.972ZM142.93 56.3636V55.9034C142.93 55.5852 142.996 55.294 143.126 55.0298C143.26 54.7628 143.453 54.5497 143.706 54.3906C143.962 54.2287 144.271 54.1477 144.635 54.1477C145.004 54.1477 145.314 54.2287 145.564 54.3906C145.814 54.5497 146.003 54.7628 146.131 55.0298C146.259 55.294 146.322 55.5852 146.322 55.9034V56.3636C146.322 56.6818 146.257 56.9744 146.126 57.2415C145.999 57.5057 145.808 57.7187 145.555 57.8807C145.305 58.0398 144.999 58.1193 144.635 58.1193C144.266 58.1193 143.955 58.0398 143.702 57.8807C143.449 57.7187 143.257 57.5057 143.126 57.2415C142.996 56.9744 142.93 56.6818 142.93 56.3636ZM143.8 55.9034V56.3636C143.8 56.6278 143.862 56.8651 143.987 57.0753C144.112 57.2827 144.328 57.3864 144.635 57.3864C144.933 57.3864 145.143 57.2827 145.266 57.0753C145.391 56.8651 145.453 56.6278 145.453 56.3636V55.9034C145.453 55.6392 145.393 55.4034 145.274 55.196C145.155 54.9858 144.942 54.8807 144.635 54.8807C144.337 54.8807 144.122 54.9858 143.991 55.196C143.864 55.4034 143.8 55.6392 143.8 55.9034ZM138.584 51.3693V50.9091C138.584 50.5909 138.649 50.2997 138.78 50.0355C138.913 49.7685 139.107 49.5554 139.359 49.3963C139.615 49.2344 139.925 49.1534 140.288 49.1534C140.658 49.1534 140.967 49.2344 141.217 49.3963C141.467 49.5554 141.656 49.7685 141.784 50.0355C141.912 50.2997 141.976 50.5909 141.976 50.9091V51.3693C141.976 51.6875 141.911 51.9801 141.78 52.2472C141.652 52.5114 141.462 52.7244 141.209 52.8864C140.959 53.0455 140.652 53.125 140.288 53.125C139.919 53.125 139.608 53.0455 139.355 52.8864C139.102 52.7244 138.911 52.5114 138.78 52.2472C138.649 51.9801 138.584 51.6875 138.584 51.3693ZM139.453 50.9091V51.3693C139.453 51.6335 139.516 51.8707 139.641 52.081C139.766 52.2884 139.982 52.392 140.288 52.392C140.587 52.392 140.797 52.2884 140.919 52.081C141.044 51.8707 141.107 51.6335 141.107 51.3693V50.9091C141.107 50.6449 141.047 50.4091 140.928 50.2017C140.808 49.9915 140.595 49.8864 140.288 49.8864C139.99 49.8864 139.776 49.9915 139.645 50.2017C139.517 50.4091 139.453 50.6449 139.453 50.9091ZM138.908 58L144.908 49.2727H145.879L139.879 58H138.908Z" fill="white"/>
<path d="M120 36V35H119V36H120ZM120 37H240V35H120V37ZM121 72V36H119V72H121Z" fill="#5B5B5B" mask="url(#path-12-inside-4_4163_371)"/>
</g>
<g clip-path="url(#clip3_4163_371)">
<rect width="240" height="36" transform="translate(0 72)" fill="white" fill-opacity="0.01"/>
<mask id="path-15-inside-5_4163_371" fill="white">
<path d="M0 72H120V108H0V72Z"/>
</mask>
<path d="M0 72H120V108H0V72Z" fill="white" fill-opacity="0.01"/>
<path d="M15.75 94H13.0568V85.2727H15.8693C16.7159 85.2727 17.4403 85.4474 18.0426 85.7969C18.6449 86.1435 19.1065 86.642 19.4276 87.2926C19.7486 87.9403 19.9091 88.7159 19.9091 89.6193C19.9091 90.5284 19.7472 91.3111 19.4233 91.9673C19.0994 92.6207 18.6278 93.1236 18.0085 93.4759C17.3892 93.8253 16.6364 94 15.75 94ZM14.1136 93.0625H15.6818C16.4034 93.0625 17.0014 92.9233 17.4759 92.6449C17.9503 92.3665 18.304 91.9702 18.5369 91.456C18.7699 90.9418 18.8864 90.3295 18.8864 89.6193C18.8864 88.9148 18.7713 88.3082 18.5412 87.7997C18.3111 87.2884 17.9673 86.8963 17.5099 86.6236C17.0526 86.348 16.483 86.2102 15.8011 86.2102H14.1136V93.0625ZM21.6818 94V85.2727H26.9489V86.2102H22.7386V89.1591H26.6761V90.0966H22.7386V93.0625H27.017V94H21.6818ZM29.3651 85.2727L31.6151 88.9034H31.6832L33.9332 85.2727H35.1776L32.4332 89.6364L35.1776 94H33.9332L31.6832 90.4375H31.6151L29.3651 94H28.1207L30.9332 89.6364L28.1207 85.2727H29.3651ZM42.7063 87.4545V88.3068H39.1779V87.4545H42.7063ZM40.2347 94V86.5511C40.2347 86.1761 40.3228 85.8636 40.4989 85.6136C40.6751 85.3636 40.9038 85.1761 41.185 85.0511C41.4663 84.9261 41.7631 84.8636 42.0756 84.8636C42.3228 84.8636 42.5245 84.8835 42.6808 84.9233C42.837 84.9631 42.9535 85 43.0302 85.0341L42.7404 85.9034C42.6893 85.8864 42.6183 85.8651 42.5273 85.8395C42.4393 85.8139 42.3228 85.8011 42.1779 85.8011C41.8455 85.8011 41.6055 85.8849 41.4577 86.0526C41.3129 86.2202 41.2404 86.4659 41.2404 86.7898V94H40.2347ZM46.5906 94.1364C45.9599 94.1364 45.4158 93.9972 44.9585 93.7188C44.5039 93.4375 44.1531 93.0455 43.9059 92.5426C43.6616 92.0369 43.5394 91.4489 43.5394 90.7784C43.5394 90.108 43.6616 89.517 43.9059 89.0057C44.1531 88.4915 44.4968 88.0909 44.9371 87.804C45.3803 87.5142 45.8974 87.3693 46.4883 87.3693C46.8292 87.3693 47.1658 87.4261 47.4982 87.5398C47.8306 87.6534 48.1332 87.8381 48.4059 88.0938C48.6786 88.3466 48.896 88.6818 49.0579 89.0994C49.2198 89.517 49.3008 90.0312 49.3008 90.642V91.0682H44.2553V90.1989H48.2781C48.2781 89.8295 48.2042 89.5 48.0565 89.2102C47.9116 88.9205 47.7042 88.6918 47.4343 88.5241C47.1673 88.3565 46.8519 88.2727 46.4883 88.2727C46.0877 88.2727 45.7411 88.3722 45.4485 88.571C45.1587 88.767 44.9357 89.0227 44.7795 89.3381C44.6232 89.6534 44.5451 89.9915 44.5451 90.3523V90.9318C44.5451 91.4261 44.6303 91.8452 44.8008 92.1889C44.9741 92.5298 45.2141 92.7898 45.521 92.9688C45.8278 93.1449 46.1843 93.233 46.5906 93.233C46.8548 93.233 47.0934 93.196 47.3065 93.1222C47.5224 93.0455 47.7085 92.9318 47.8647 92.7812C48.021 92.6278 48.1417 92.4375 48.2269 92.2102L49.1985 92.483C49.0962 92.8125 48.9244 93.1023 48.6829 93.3523C48.4414 93.5994 48.1431 93.7926 47.788 93.9318C47.4329 94.0682 47.0337 94.1364 46.5906 94.1364ZM53.5749 94.1364C52.9442 94.1364 52.4002 93.9972 51.9428 93.7188C51.4883 93.4375 51.1374 93.0455 50.8903 92.5426C50.646 92.0369 50.5238 91.4489 50.5238 90.7784C50.5238 90.108 50.646 89.517 50.8903 89.0057C51.1374 88.4915 51.4812 88.0909 51.9215 87.804C52.3647 87.5142 52.8817 87.3693 53.4727 87.3693C53.8136 87.3693 54.1502 87.4261 54.4826 87.5398C54.815 87.6534 55.1175 87.8381 55.3903 88.0938C55.663 88.3466 55.8803 88.6818 56.0423 89.0994C56.2042 89.517 56.2852 90.0312 56.2852 90.642V91.0682H51.2397V90.1989H55.2624C55.2624 89.8295 55.1886 89.5 55.0408 89.2102C54.896 88.9205 54.6886 88.6918 54.4187 88.5241C54.1516 88.3565 53.8363 88.2727 53.4727 88.2727C53.0721 88.2727 52.7255 88.3722 52.4329 88.571C52.1431 88.767 51.9201 89.0227 51.7638 89.3381C51.6076 89.6534 51.5295 89.9915 51.5295 90.3523V90.9318C51.5295 91.4261 51.6147 91.8452 51.7852 92.1889C51.9585 92.5298 52.1985 92.7898 52.5053 92.9688C52.8121 93.1449 53.1687 93.233 53.5749 93.233C53.8391 93.233 54.0778 93.196 54.2908 93.1222C54.5067 93.0455 54.6928 92.9318 54.8491 92.7812C55.0053 92.6278 55.1261 92.4375 55.2113 92.2102L56.1829 92.483C56.0806 92.8125 55.9087 93.1023 55.6673 93.3523C55.4258 93.5994 55.1275 93.7926 54.7724 93.9318C54.4173 94.0682 54.0181 94.1364 53.5749 94.1364ZM61.9229 92.8835C61.7127 92.8835 61.5323 92.8082 61.3817 92.6577C61.2312 92.5071 61.1559 92.3267 61.1559 92.1165C61.1559 91.9062 61.2312 91.7259 61.3817 91.5753C61.5323 91.4247 61.7127 91.3494 61.9229 91.3494C62.1332 91.3494 62.3136 91.4247 62.4641 91.5753C62.6147 91.7259 62.69 91.9062 62.69 92.1165C62.69 92.2557 62.6545 92.3835 62.5835 92.5C62.5153 92.6165 62.4229 92.7102 62.3065 92.7812C62.1928 92.8494 62.065 92.8835 61.9229 92.8835ZM61.9229 88.4688C61.7127 88.4688 61.5323 88.3935 61.3817 88.2429C61.2312 88.0923 61.1559 87.9119 61.1559 87.7017C61.1559 87.4915 61.2312 87.3111 61.3817 87.1605C61.5323 87.0099 61.7127 86.9347 61.9229 86.9347C62.1332 86.9347 62.3136 87.0099 62.4641 87.1605C62.6147 87.3111 62.69 87.4915 62.69 87.7017C62.69 87.8409 62.6545 87.9688 62.5835 88.0852C62.5153 88.2017 62.4229 88.2955 62.3065 88.3665C62.1928 88.4347 62.065 88.4688 61.9229 88.4688ZM72.7788 87.4545C72.7276 87.0227 72.5202 86.6875 72.1566 86.4489C71.793 86.2102 71.3469 86.0909 70.8185 86.0909C70.4322 86.0909 70.0941 86.1534 69.8043 86.2784C69.5174 86.4034 69.293 86.5753 69.131 86.794C68.9719 87.0128 68.8924 87.2614 68.8924 87.5398C68.8924 87.7727 68.9478 87.973 69.0586 88.1406C69.1722 88.3054 69.3171 88.4432 69.4933 88.554C69.6694 88.6619 69.854 88.7514 70.0472 88.8224C70.2404 88.8906 70.418 88.946 70.5799 88.9886L71.4663 89.2273C71.6935 89.2869 71.9464 89.3693 72.2248 89.4744C72.506 89.5795 72.7745 89.723 73.0302 89.9048C73.2887 90.0838 73.5018 90.3139 73.6694 90.5952C73.837 90.8764 73.9208 91.2216 73.9208 91.6307C73.9208 92.1023 73.7972 92.5284 73.5501 92.9091C73.3058 93.2898 72.9478 93.5923 72.4762 93.8168C72.0075 94.0412 71.4379 94.1534 70.7674 94.1534C70.1424 94.1534 69.6012 94.0526 69.1438 93.8509C68.6893 93.6491 68.3313 93.3679 68.07 93.0071C67.8114 92.6463 67.6651 92.2273 67.631 91.75H68.7219C68.7504 92.0795 68.8612 92.3523 69.0543 92.5682C69.2504 92.7812 69.4975 92.9403 69.7958 93.0455C70.0969 93.1477 70.4208 93.1989 70.7674 93.1989C71.1708 93.1989 71.533 93.1335 71.854 93.0028C72.1751 92.8693 72.4293 92.6847 72.6168 92.4489C72.8043 92.2102 72.8981 91.9318 72.8981 91.6136C72.8981 91.3239 72.8171 91.0881 72.6552 90.9062C72.4933 90.7244 72.2802 90.5767 72.016 90.4631C71.7518 90.3494 71.4663 90.25 71.1594 90.1648L70.0856 89.858C69.4038 89.6619 68.864 89.3821 68.4663 89.0185C68.0685 88.6548 67.8697 88.179 67.8697 87.5909C67.8697 87.1023 68.0018 86.6761 68.266 86.3125C68.533 85.946 68.891 85.6619 69.3398 85.4602C69.7915 85.2557 70.2958 85.1534 70.8526 85.1534C71.4151 85.1534 71.9151 85.2543 72.3526 85.456C72.7901 85.6548 73.1367 85.9276 73.3924 86.2741C73.6509 86.6207 73.7873 87.0142 73.8015 87.4545H72.7788ZM78.2663 94.1364C77.6357 94.1364 77.0916 93.9972 76.6342 93.7188C76.1797 93.4375 75.8288 93.0455 75.5817 92.5426C75.3374 92.0369 75.2152 91.4489 75.2152 90.7784C75.2152 90.108 75.3374 89.517 75.5817 89.0057C75.8288 88.4915 76.1726 88.0909 76.6129 87.804C77.0561 87.5142 77.5732 87.3693 78.1641 87.3693C78.505 87.3693 78.8416 87.4261 79.174 87.5398C79.5064 87.6534 79.8089 87.8381 80.0817 88.0938C80.3544 88.3466 80.5717 88.6818 80.7337 89.0994C80.8956 89.517 80.9766 90.0312 80.9766 90.642V91.0682H75.9311V90.1989H79.9538C79.9538 89.8295 79.88 89.5 79.7322 89.2102C79.5874 88.9205 79.38 88.6918 79.1101 88.5241C78.843 88.3565 78.5277 88.2727 78.1641 88.2727C77.7635 88.2727 77.4169 88.3722 77.1243 88.571C76.8345 88.767 76.6115 89.0227 76.4553 89.3381C76.299 89.6534 76.2209 89.9915 76.2209 90.3523V90.9318C76.2209 91.4261 76.3061 91.8452 76.4766 92.1889C76.6499 92.5298 76.8899 92.7898 77.1967 92.9688C77.5036 93.1449 77.8601 93.233 78.2663 93.233C78.5305 93.233 78.7692 93.196 78.9822 93.1222C79.1982 93.0455 79.3842 92.9318 79.5405 92.7812C79.6967 92.6278 79.8175 92.4375 79.9027 92.2102L80.8743 92.483C80.772 92.8125 80.6001 93.1023 80.3587 93.3523C80.1172 93.5994 79.8189 93.7926 79.4638 93.9318C79.1087 94.0682 78.7095 94.1364 78.2663 94.1364ZM83.5121 85.2727V94H82.5064V85.2727H83.5121ZM86.3597 85.2727V94H85.354V85.2727H86.3597ZM88.2017 94V87.4545H89.2074V94H88.2017ZM88.7131 86.3636C88.517 86.3636 88.348 86.2969 88.206 86.1634C88.0668 86.0298 87.9972 85.8693 87.9972 85.6818C87.9972 85.4943 88.0668 85.3338 88.206 85.2003C88.348 85.0668 88.517 85 88.7131 85C88.9091 85 89.0767 85.0668 89.2159 85.2003C89.358 85.3338 89.429 85.4943 89.429 85.6818C89.429 85.8693 89.358 86.0298 89.2159 86.1634C89.0767 86.2969 88.9091 86.3636 88.7131 86.3636ZM92.055 90.0625V94H91.0494V87.4545H92.021V88.4773H92.1062C92.2596 88.1449 92.4925 87.8778 92.805 87.6761C93.1175 87.4716 93.521 87.3693 94.0153 87.3693C94.4585 87.3693 94.8462 87.4602 95.1786 87.642C95.511 87.821 95.7695 88.0938 95.9542 88.4602C96.1388 88.8239 96.2312 89.2841 96.2312 89.8409V94H95.2255V89.9091C95.2255 89.3949 95.092 88.9943 94.8249 88.7074C94.5579 88.4176 94.1914 88.2727 93.7255 88.2727C93.4045 88.2727 93.1175 88.3423 92.8647 88.4815C92.6147 88.6207 92.4173 88.8239 92.2724 89.0909C92.1275 89.358 92.055 89.6818 92.055 90.0625ZM100.711 96.5909C100.225 96.5909 99.8075 96.5284 99.4581 96.4034C99.1087 96.2812 98.8175 96.1193 98.5845 95.9176C98.3544 95.7188 98.1712 95.5057 98.0348 95.2784L98.8359 94.7159C98.9268 94.8352 99.0419 94.9716 99.1811 95.125C99.3203 95.2812 99.5107 95.4162 99.7521 95.5298C99.9964 95.6463 100.316 95.7045 100.711 95.7045C101.239 95.7045 101.675 95.5767 102.019 95.321C102.363 95.0653 102.535 94.6648 102.535 94.1193V92.7898H102.45C102.376 92.9091 102.271 93.0568 102.134 93.233C102.001 93.4062 101.808 93.5611 101.555 93.6974C101.305 93.831 100.967 93.8977 100.54 93.8977C100.012 93.8977 99.5376 93.7727 99.1172 93.5227C98.6996 93.2727 98.3686 92.9091 98.1243 92.4318C97.8828 91.9545 97.7621 91.375 97.7621 90.6932C97.7621 90.0227 97.88 89.4389 98.1158 88.9418C98.3516 88.4418 98.6797 88.0554 99.1001 87.7827C99.5206 87.5071 100.006 87.3693 100.558 87.3693C100.984 87.3693 101.322 87.4403 101.572 87.5824C101.825 87.7216 102.018 87.8807 102.151 88.0597C102.288 88.2358 102.393 88.3807 102.467 88.4943H102.569V87.4545H103.54V94.1875C103.54 94.75 103.413 95.2074 103.157 95.5597C102.904 95.9148 102.563 96.1747 102.134 96.3395C101.708 96.5071 101.234 96.5909 100.711 96.5909ZM100.677 92.9943C101.08 92.9943 101.421 92.902 101.7 92.7173C101.978 92.5327 102.19 92.267 102.335 91.9205C102.479 91.5739 102.552 91.1591 102.552 90.6761C102.552 90.2045 102.481 89.7884 102.339 89.4276C102.197 89.0668 101.987 88.7841 101.708 88.5795C101.43 88.375 101.086 88.2727 100.677 88.2727C100.251 88.2727 99.8956 88.3807 99.6115 88.5966C99.3303 88.8125 99.1186 89.1023 98.9766 89.4659C98.8374 89.8295 98.7678 90.233 98.7678 90.6761C98.7678 91.1307 98.8388 91.5327 98.9808 91.8821C99.1257 92.2287 99.3388 92.5014 99.62 92.7003C99.9041 92.8963 100.256 92.9943 100.677 92.9943Z" fill="white"/>
<path d="M0 72V71H-1V72H0ZM0 73H120V71H0V73ZM1 108V72H-1V108H1Z" fill="#5B5B5B" mask="url(#path-15-inside-5_4163_371)"/>
<mask id="path-18-inside-6_4163_371" fill="white">
<path d="M120 72H240V108H120V72Z"/>
</mask>
<path d="M120 72H240V108H120V72Z" fill="white" fill-opacity="0.01"/>
<path d="M135.972 85.2727V94H134.915V86.3807H134.864L132.733 87.7955V86.7216L134.915 85.2727H135.972ZM138.716 94.0682C138.506 94.0682 138.325 93.9929 138.175 93.8423C138.024 93.6918 137.949 93.5114 137.949 93.3011C137.949 93.0909 138.024 92.9105 138.175 92.7599C138.325 92.6094 138.506 92.5341 138.716 92.5341C138.926 92.5341 139.107 92.6094 139.257 92.7599C139.408 92.9105 139.483 93.0909 139.483 93.3011C139.483 93.4403 139.447 93.5682 139.376 93.6847C139.308 93.8011 139.216 93.8949 139.099 93.9659C138.986 94.0341 138.858 94.0682 138.716 94.0682ZM143.822 94.1193C143.322 94.1193 142.872 94.0199 142.471 93.821C142.071 93.6222 141.75 93.3494 141.508 93.0028C141.267 92.6562 141.135 92.2614 141.112 91.8182H142.135C142.174 92.2131 142.353 92.5398 142.672 92.7983C142.993 93.054 143.376 93.1818 143.822 93.1818C144.18 93.1818 144.498 93.098 144.777 92.9304C145.058 92.7628 145.278 92.5327 145.437 92.2401C145.599 91.9446 145.68 91.6108 145.68 91.2386C145.68 90.858 145.596 90.5185 145.429 90.2202C145.264 89.919 145.037 89.6818 144.747 89.5085C144.457 89.3352 144.126 89.2472 143.754 89.2443C143.487 89.2415 143.213 89.2827 142.931 89.3679C142.65 89.4503 142.419 89.5568 142.237 89.6875L141.248 89.5682L141.777 85.2727H146.311V86.2102H142.663L142.356 88.7841H142.407C142.586 88.642 142.811 88.5241 143.081 88.4304C143.35 88.3366 143.632 88.2898 143.924 88.2898C144.458 88.2898 144.934 88.4176 145.352 88.6733C145.772 88.9261 146.102 89.2727 146.341 89.7131C146.582 90.1534 146.703 90.6562 146.703 91.2216C146.703 91.7784 146.578 92.2756 146.328 92.7131C146.081 93.1477 145.74 93.4915 145.305 93.7443C144.87 93.9943 144.376 94.1193 143.822 94.1193ZM152.844 92.3636V91.9034C152.844 91.5852 152.91 91.294 153.04 91.0298C153.174 90.7628 153.367 90.5497 153.62 90.3906C153.876 90.2287 154.185 90.1477 154.549 90.1477C154.918 90.1477 155.228 90.2287 155.478 90.3906C155.728 90.5497 155.917 90.7628 156.045 91.0298C156.173 91.294 156.237 91.5852 156.237 91.9034V92.3636C156.237 92.6818 156.171 92.9744 156.04 93.2415C155.913 93.5057 155.722 93.7187 155.469 93.8807C155.219 94.0398 154.913 94.1193 154.549 94.1193C154.18 94.1193 153.869 94.0398 153.616 93.8807C153.363 93.7187 153.171 93.5057 153.04 93.2415C152.91 92.9744 152.844 92.6818 152.844 92.3636ZM153.714 91.9034V92.3636C153.714 92.6278 153.776 92.8651 153.901 93.0753C154.026 93.2827 154.242 93.3864 154.549 93.3864C154.847 93.3864 155.058 93.2827 155.18 93.0753C155.305 92.8651 155.367 92.6278 155.367 92.3636V91.9034C155.367 91.6392 155.308 91.4034 155.188 91.196C155.069 90.9858 154.856 90.8807 154.549 90.8807C154.251 90.8807 154.036 90.9858 153.906 91.196C153.778 91.4034 153.714 91.6392 153.714 91.9034ZM148.498 87.3693V86.9091C148.498 86.5909 148.563 86.2997 148.694 86.0355C148.827 85.7685 149.021 85.5554 149.273 85.3963C149.529 85.2344 149.839 85.1534 150.202 85.1534C150.572 85.1534 150.881 85.2344 151.131 85.3963C151.381 85.5554 151.57 85.7685 151.698 86.0355C151.826 86.2997 151.89 86.5909 151.89 86.9091V87.3693C151.89 87.6875 151.825 87.9801 151.694 88.2472C151.566 88.5114 151.376 88.7244 151.123 88.8864C150.873 89.0455 150.566 89.125 150.202 89.125C149.833 89.125 149.522 89.0455 149.269 88.8864C149.016 88.7244 148.825 88.5114 148.694 88.2472C148.563 87.9801 148.498 87.6875 148.498 87.3693ZM149.367 86.9091V87.3693C149.367 87.6335 149.43 87.8707 149.555 88.081C149.68 88.2884 149.896 88.392 150.202 88.392C150.501 88.392 150.711 88.2884 150.833 88.081C150.958 87.8707 151.021 87.6335 151.021 87.3693V86.9091C151.021 86.6449 150.961 86.4091 150.842 86.2017C150.722 85.9915 150.509 85.8864 150.202 85.8864C149.904 85.8864 149.69 85.9915 149.559 86.2017C149.431 86.4091 149.367 86.6449 149.367 86.9091ZM148.822 94L154.822 85.2727H155.793L149.793 94H148.822Z" fill="white"/>
<path d="M120 72V71H119V72H120ZM120 73H240V71H120V73ZM121 108V72H119V108H121Z" fill="#5B5B5B" mask="url(#path-18-inside-6_4163_371)"/>
</g>
<g clip-path="url(#clip4_4163_371)">
<rect width="240" height="36" transform="translate(0 108)" fill="white" fill-opacity="0.01"/>
<mask id="path-21-inside-7_4163_371" fill="white">
<path d="M0 108H120V144H0V108Z"/>
</mask>
<path d="M0 108H120V144H0V108Z" fill="white" fill-opacity="0.01"/>
<path d="M13.0568 121.273H14.3182L17.2841 128.517H17.3864L20.3523 121.273H21.6136V130H20.625V123.369H20.5398L17.8125 130H16.858L14.1307 123.369H14.0455V130H13.0568V121.273ZM25.5224 130.153C25.1076 130.153 24.7312 130.075 24.3931 129.919C24.055 129.76 23.7866 129.531 23.5877 129.233C23.3888 128.932 23.2894 128.568 23.2894 128.142C23.2894 127.767 23.3633 127.463 23.511 127.23C23.6587 126.994 23.8562 126.81 24.1033 126.676C24.3505 126.543 24.6232 126.443 24.9215 126.378C25.2227 126.31 25.5252 126.256 25.8292 126.216C26.2269 126.165 26.5494 126.126 26.7965 126.101C27.0465 126.072 27.2283 126.026 27.342 125.96C27.4585 125.895 27.5167 125.781 27.5167 125.619V125.585C27.5167 125.165 27.4016 124.838 27.1715 124.605C26.9442 124.372 26.5991 124.256 26.136 124.256C25.6559 124.256 25.2795 124.361 25.0067 124.571C24.734 124.781 24.5423 125.006 24.4315 125.244L23.4769 124.903C23.6474 124.506 23.8746 124.196 24.1587 123.974C24.4457 123.75 24.7582 123.594 25.0962 123.506C25.4371 123.415 25.7724 123.369 26.1019 123.369C26.3121 123.369 26.5536 123.395 26.8263 123.446C27.1019 123.494 27.3675 123.595 27.6232 123.749C27.8817 123.902 28.0962 124.134 28.2667 124.443C28.4371 124.753 28.5224 125.168 28.5224 125.688V130H27.5167V129.114H27.4656C27.3974 129.256 27.2837 129.408 27.1246 129.57C26.9656 129.732 26.7539 129.869 26.4897 129.983C26.2255 130.097 25.9031 130.153 25.5224 130.153ZM25.6758 129.25C26.0735 129.25 26.4087 129.172 26.6815 129.016C26.957 128.859 27.1644 128.658 27.3036 128.411C27.4457 128.163 27.5167 127.903 27.5167 127.631V126.71C27.4741 126.761 27.3803 126.808 27.2354 126.851C27.0934 126.891 26.9286 126.926 26.7411 126.957C26.5565 126.986 26.3761 127.011 26.1999 127.034C26.0266 127.054 25.886 127.071 25.7781 127.085C25.5167 127.119 25.2724 127.175 25.0451 127.251C24.8207 127.325 24.6388 127.437 24.4996 127.588C24.3633 127.736 24.2951 127.937 24.2951 128.193C24.2951 128.543 24.4244 128.807 24.6829 128.986C24.9442 129.162 25.2752 129.25 25.6758 129.25ZM30.358 130V123.455H31.3295V124.443H31.3977C31.517 124.119 31.733 123.857 32.0455 123.655C32.358 123.453 32.7102 123.352 33.1023 123.352C33.1761 123.352 33.2685 123.354 33.3793 123.357C33.4901 123.359 33.5739 123.364 33.6307 123.369V124.392C33.5966 124.384 33.5185 124.371 33.3963 124.354C33.277 124.334 33.1506 124.324 33.017 124.324C32.6989 124.324 32.4148 124.391 32.1648 124.524C31.9176 124.655 31.7216 124.837 31.5767 125.07C31.4347 125.3 31.3636 125.562 31.3636 125.858V130H30.358ZM35.7603 127.614L35.7433 126.369H35.9478L38.8114 123.455H40.0558L37.0046 126.54H36.9194L35.7603 127.614ZM34.8228 130V121.273H35.8285V130H34.8228ZM38.9819 130L36.4251 126.761L37.141 126.062L40.2603 130H38.9819ZM43.8249 130.136C43.1942 130.136 42.6502 129.997 42.1928 129.719C41.7383 129.438 41.3874 129.045 41.1403 128.543C40.896 128.037 40.7738 127.449 40.7738 126.778C40.7738 126.108 40.896 125.517 41.1403 125.006C41.3874 124.491 41.7312 124.091 42.1715 123.804C42.6147 123.514 43.1317 123.369 43.7227 123.369C44.0636 123.369 44.4002 123.426 44.7326 123.54C45.065 123.653 45.3675 123.838 45.6403 124.094C45.913 124.347 46.1303 124.682 46.2923 125.099C46.4542 125.517 46.5352 126.031 46.5352 126.642V127.068H41.4897V126.199H45.5124C45.5124 125.83 45.4386 125.5 45.2908 125.21C45.146 124.92 44.9386 124.692 44.6687 124.524C44.4016 124.357 44.0863 124.273 43.7227 124.273C43.3221 124.273 42.9755 124.372 42.6829 124.571C42.3931 124.767 42.1701 125.023 42.0138 125.338C41.8576 125.653 41.7795 125.991 41.7795 126.352V126.932C41.7795 127.426 41.8647 127.845 42.0352 128.189C42.2085 128.53 42.4485 128.79 42.7553 128.969C43.0621 129.145 43.4187 129.233 43.8249 129.233C44.0891 129.233 44.3278 129.196 44.5408 129.122C44.7567 129.045 44.9428 128.932 45.0991 128.781C45.2553 128.628 45.3761 128.437 45.4613 128.21L46.4329 128.483C46.3306 128.812 46.1587 129.102 45.9173 129.352C45.6758 129.599 45.3775 129.793 45.0224 129.932C44.6673 130.068 44.2681 130.136 43.8249 130.136ZM50.9116 123.455V124.307H47.5195V123.455H50.9116ZM48.5082 121.886H49.5138V128.125C49.5138 128.409 49.555 128.622 49.6374 128.764C49.7227 128.903 49.8306 128.997 49.9613 129.045C50.0948 129.091 50.2354 129.114 50.3832 129.114C50.494 129.114 50.5849 129.108 50.6559 129.097C50.7269 129.082 50.7837 129.071 50.8263 129.062L51.0309 129.966C50.9627 129.991 50.8675 130.017 50.7454 130.043C50.6232 130.071 50.4684 130.085 50.2809 130.085C49.9968 130.085 49.7184 130.024 49.4457 129.902C49.1758 129.78 48.9513 129.594 48.7724 129.344C48.5962 129.094 48.5082 128.778 48.5082 128.398V121.886ZM52.4244 132.455V123.455H53.396V124.494H53.5153C53.5891 124.381 53.6914 124.236 53.8221 124.06C53.9556 123.881 54.146 123.722 54.3931 123.582C54.6431 123.44 54.9812 123.369 55.4073 123.369C55.9585 123.369 56.4442 123.507 56.8647 123.783C57.2852 124.058 57.6133 124.449 57.8491 124.955C58.0849 125.46 58.2028 126.057 58.2028 126.744C58.2028 127.438 58.0849 128.038 57.8491 128.547C57.6133 129.053 57.2866 129.445 56.869 129.723C56.4513 129.999 55.9698 130.136 55.4244 130.136C55.0039 130.136 54.6673 130.067 54.4144 129.928C54.1616 129.786 53.967 129.625 53.8306 129.446C53.6942 129.264 53.5891 129.114 53.5153 128.994H53.43V132.455H52.4244ZM53.413 126.727C53.413 127.222 53.4854 127.658 53.6303 128.036C53.7752 128.411 53.9869 128.705 54.2653 128.918C54.5437 129.128 54.8846 129.233 55.288 129.233C55.7085 129.233 56.0593 129.122 56.3406 128.901C56.6246 128.676 56.8377 128.375 56.9798 127.997C57.1246 127.616 57.1971 127.193 57.1971 126.727C57.1971 126.267 57.1261 125.852 56.984 125.483C56.8448 125.111 56.6332 124.817 56.3491 124.601C56.0678 124.382 55.7141 124.273 55.288 124.273C54.8789 124.273 54.5352 124.376 54.2567 124.584C53.9783 124.788 53.7681 125.075 53.6261 125.445C53.484 125.811 53.413 126.239 53.413 126.727ZM60.7425 121.273V130H59.7369V121.273H60.7425ZM64.5107 130.153C64.0959 130.153 63.7195 130.075 63.3814 129.919C63.0433 129.76 62.7749 129.531 62.576 129.233C62.3771 128.932 62.2777 128.568 62.2777 128.142C62.2777 127.767 62.3516 127.463 62.4993 127.23C62.647 126.994 62.8445 126.81 63.0916 126.676C63.3388 126.543 63.6115 126.443 63.9098 126.378C64.2109 126.31 64.5135 126.256 64.8175 126.216C65.2152 126.165 65.5376 126.126 65.7848 126.101C66.0348 126.072 66.2166 126.026 66.3303 125.96C66.4467 125.895 66.505 125.781 66.505 125.619V125.585C66.505 125.165 66.3899 124.838 66.1598 124.605C65.9325 124.372 65.5874 124.256 65.1243 124.256C64.6442 124.256 64.2678 124.361 63.995 124.571C63.7223 124.781 63.5305 125.006 63.4197 125.244L62.4652 124.903C62.6357 124.506 62.8629 124.196 63.147 123.974C63.4339 123.75 63.7464 123.594 64.0845 123.506C64.4254 123.415 64.7607 123.369 65.0902 123.369C65.3004 123.369 65.5419 123.395 65.8146 123.446C66.0902 123.494 66.3558 123.595 66.6115 123.749C66.87 123.902 67.0845 124.134 67.255 124.443C67.4254 124.753 67.5107 125.168 67.5107 125.688V130H66.505V129.114H66.4538C66.3857 129.256 66.272 129.408 66.1129 129.57C65.9538 129.732 65.7422 129.869 65.478 129.983C65.2138 130.097 64.8913 130.153 64.5107 130.153ZM64.6641 129.25C65.0618 129.25 65.397 129.172 65.6697 129.016C65.9453 128.859 66.1527 128.658 66.2919 128.411C66.4339 128.163 66.505 127.903 66.505 127.631V126.71C66.4624 126.761 66.3686 126.808 66.2237 126.851C66.0817 126.891 65.9169 126.926 65.7294 126.957C65.5447 126.986 65.3643 127.011 65.1882 127.034C65.0149 127.054 64.8743 127.071 64.7663 127.085C64.505 127.119 64.2607 127.175 64.0334 127.251C63.8089 127.325 63.6271 127.437 63.4879 127.588C63.3516 127.736 63.2834 127.937 63.2834 128.193C63.2834 128.543 63.4126 128.807 63.6712 128.986C63.9325 129.162 64.2635 129.25 64.6641 129.25ZM72.0053 130.136C71.3917 130.136 70.8633 129.991 70.4201 129.702C69.9769 129.412 69.636 129.013 69.3974 128.504C69.1587 127.996 69.0394 127.415 69.0394 126.761C69.0394 126.097 69.1616 125.51 69.4059 125.001C69.6531 124.49 69.9968 124.091 70.4371 123.804C70.8803 123.514 71.3974 123.369 71.9883 123.369C72.4485 123.369 72.8633 123.455 73.2326 123.625C73.6019 123.795 73.9045 124.034 74.1403 124.341C74.3761 124.648 74.5224 125.006 74.5792 125.415H73.5735C73.4968 125.116 73.3263 124.852 73.0621 124.622C72.8008 124.389 72.4485 124.273 72.0053 124.273C71.6133 124.273 71.2695 124.375 70.9741 124.58C70.6815 124.781 70.4528 125.067 70.288 125.436C70.1261 125.803 70.0451 126.233 70.0451 126.727C70.0451 127.233 70.1246 127.673 70.2837 128.048C70.4457 128.423 70.6729 128.714 70.9656 128.922C71.261 129.129 71.6076 129.233 72.0053 129.233C72.2667 129.233 72.5039 129.188 72.717 129.097C72.93 129.006 73.1104 128.875 73.2582 128.705C73.4059 128.534 73.511 128.33 73.5735 128.091H74.5792C74.5224 128.477 74.3817 128.825 74.1573 129.135C73.9357 129.442 73.6417 129.686 73.2752 129.868C72.9116 130.047 72.4883 130.136 72.0053 130.136ZM78.7937 130.136C78.163 130.136 77.619 129.997 77.1616 129.719C76.707 129.438 76.3562 129.045 76.109 128.543C75.8647 128.037 75.7425 127.449 75.7425 126.778C75.7425 126.108 75.8647 125.517 76.109 125.006C76.3562 124.491 76.6999 124.091 77.1403 123.804C77.5835 123.514 78.1005 123.369 78.6914 123.369C79.0323 123.369 79.369 123.426 79.7013 123.54C80.0337 123.653 80.3363 123.838 80.609 124.094C80.8817 124.347 81.0991 124.682 81.261 125.099C81.4229 125.517 81.5039 126.031 81.5039 126.642V127.068H76.4585V126.199H80.4812C80.4812 125.83 80.4073 125.5 80.2596 125.21C80.1147 124.92 79.9073 124.692 79.6374 124.524C79.3704 124.357 79.055 124.273 78.6914 124.273C78.2908 124.273 77.9442 124.372 77.6516 124.571C77.3619 124.767 77.1388 125.023 76.9826 125.338C76.8263 125.653 76.7482 125.991 76.7482 126.352V126.932C76.7482 127.426 76.8335 127.845 77.0039 128.189C77.1772 128.53 77.4173 128.79 77.7241 128.969C78.0309 129.145 78.3874 129.233 78.7937 129.233C79.0579 129.233 79.2965 129.196 79.5096 129.122C79.7255 129.045 79.9116 128.932 80.0678 128.781C80.2241 128.628 80.3448 128.437 80.43 128.21L81.4016 128.483C81.2994 128.812 81.1275 129.102 80.886 129.352C80.6445 129.599 80.3462 129.793 79.9911 129.932C79.636 130.068 79.2369 130.136 78.7937 130.136Z" fill="white"/>
<path d="M0 108V107H-1V108H0ZM0 109H120V107H0V109ZM1 144V108H-1V144H1Z" fill="#5B5B5B" mask="url(#path-21-inside-7_4163_371)"/>
<mask id="path-24-inside-8_4163_371" fill="white">
<path d="M120 108H240V144H120V108Z"/>
</mask>
<path d="M120 108H240V144H120V108Z" fill="white" fill-opacity="0.01"/>
<path d="M132.903 130V129.233L135.784 126.08C136.122 125.71 136.401 125.389 136.619 125.116C136.838 124.841 137 124.582 137.105 124.341C137.213 124.097 137.267 123.841 137.267 123.574C137.267 123.267 137.193 123.001 137.045 122.777C136.901 122.553 136.702 122.379 136.449 122.257C136.196 122.135 135.912 122.074 135.597 122.074C135.261 122.074 134.969 122.143 134.719 122.283C134.472 122.419 134.28 122.611 134.143 122.858C134.01 123.105 133.943 123.395 133.943 123.727H132.938C132.938 123.216 133.055 122.767 133.291 122.381C133.527 121.994 133.848 121.693 134.254 121.477C134.663 121.261 135.122 121.153 135.631 121.153C136.142 121.153 136.595 121.261 136.99 121.477C137.385 121.693 137.695 121.984 137.919 122.351C138.143 122.717 138.256 123.125 138.256 123.574C138.256 123.895 138.197 124.209 138.081 124.516C137.967 124.82 137.768 125.159 137.484 125.534C137.203 125.906 136.812 126.361 136.312 126.898L134.352 128.994V129.062H138.409V130H132.903ZM144.618 128.364V127.903C144.618 127.585 144.683 127.294 144.814 127.03C144.947 126.763 145.141 126.55 145.393 126.391C145.649 126.229 145.959 126.148 146.322 126.148C146.692 126.148 147.001 126.229 147.251 126.391C147.501 126.55 147.69 126.763 147.818 127.03C147.946 127.294 148.01 127.585 148.01 127.903V128.364C148.01 128.682 147.945 128.974 147.814 129.241C147.686 129.506 147.496 129.719 147.243 129.881C146.993 130.04 146.686 130.119 146.322 130.119C145.953 130.119 145.642 130.04 145.389 129.881C145.136 129.719 144.945 129.506 144.814 129.241C144.683 128.974 144.618 128.682 144.618 128.364ZM145.487 127.903V128.364C145.487 128.628 145.55 128.865 145.675 129.075C145.8 129.283 146.016 129.386 146.322 129.386C146.621 129.386 146.831 129.283 146.953 129.075C147.078 128.865 147.141 128.628 147.141 128.364V127.903C147.141 127.639 147.081 127.403 146.962 127.196C146.842 126.986 146.629 126.881 146.322 126.881C146.024 126.881 145.81 126.986 145.679 127.196C145.551 127.403 145.487 127.639 145.487 127.903ZM140.271 123.369V122.909C140.271 122.591 140.337 122.3 140.467 122.036C140.601 121.768 140.794 121.555 141.047 121.396C141.303 121.234 141.612 121.153 141.976 121.153C142.345 121.153 142.655 121.234 142.905 121.396C143.155 121.555 143.344 121.768 143.472 122.036C143.599 122.3 143.663 122.591 143.663 122.909V123.369C143.663 123.687 143.598 123.98 143.467 124.247C143.339 124.511 143.149 124.724 142.896 124.886C142.646 125.045 142.339 125.125 141.976 125.125C141.607 125.125 141.295 125.045 141.043 124.886C140.79 124.724 140.598 124.511 140.467 124.247C140.337 123.98 140.271 123.687 140.271 123.369ZM141.141 122.909V123.369C141.141 123.634 141.203 123.871 141.328 124.081C141.453 124.288 141.669 124.392 141.976 124.392C142.274 124.392 142.484 124.288 142.607 124.081C142.732 123.871 142.794 123.634 142.794 123.369V122.909C142.794 122.645 142.734 122.409 142.615 122.202C142.496 121.991 142.283 121.886 141.976 121.886C141.678 121.886 141.463 121.991 141.332 122.202C141.205 122.409 141.141 122.645 141.141 122.909ZM140.595 130L146.595 121.273H147.567L141.567 130H140.595Z" fill="white"/>
<path d="M120 108V107H119V108H120ZM120 109H240V107H120V109ZM121 144V108H119V144H121Z" fill="#5B5B5B" mask="url(#path-24-inside-8_4163_371)"/>
</g>
<g clip-path="url(#clip5_4163_371)">
<rect width="240" height="36" transform="translate(0 144)" fill="white" fill-opacity="0.01"/>
<mask id="path-27-inside-9_4163_371" fill="white">
<path d="M0 144H120V180H0V144Z"/>
</mask>
<path d="M0 144H120V180H0V144Z" fill="white" fill-opacity="0.01"/>
<path d="M16.8 156.4V168.4H12V156.4H16.8ZM21.3 156.4V168.4H16.5V156.4H21.3ZM25.8 156.4V168.4H21V156.4H25.8ZM30.3 156.4V168.4H25.5V156.4H30.3ZM34.8 156.4V168.4H30V156.4H34.8ZM39.3 156.4V168.4H34.5V156.4H39.3ZM43.8 156.4V168.4H39V156.4H43.8ZM48.3 156.4V168.4H43.5V156.4H48.3ZM52.8 156.4V168.4H48V156.4H52.8ZM57.3 156.4V168.4H52.5V156.4H57.3ZM61.8 156.4V168.4H57V156.4H61.8ZM66.3 156.4V168.4H61.5V156.4H66.3Z" fill="white"/>
<path d="M0 144V143H-1V144H0ZM0 145H120V143H0V145ZM1 180V144H-1V180H1Z" fill="#5B5B5B" mask="url(#path-27-inside-9_4163_371)"/>
<mask id="path-30-inside-10_4163_371" fill="white">
<path d="M120 144H240V180H120V144Z"/>
</mask>
<path d="M120 144H240V180H120V144Z" fill="white" fill-opacity="0.01"/>
<path d="M136.8 156.4V168.4H132V156.4H136.8ZM141.3 156.4V168.4H136.5V156.4H141.3Z" fill="white"/>
<path d="M120 144V143H119V144H120ZM120 145H240V143H120V145ZM121 180V144H119V180H121Z" fill="#5B5B5B" mask="url(#path-30-inside-10_4163_371)"/>
</g>
<g clip-path="url(#clip6_4163_371)">
<rect width="240" height="36" transform="translate(0 180)" fill="white" fill-opacity="0.01"/>
<mask id="path-33-inside-11_4163_371" fill="white">
<path d="M0 180H120V216H0V180Z"/>
</mask>
<path d="M0 180H120V216H0V180Z" fill="white" fill-opacity="0.01"/>
<path d="M14.642 202L12.2557 193.273H13.3295L15.1534 200.381H15.2386L17.0966 193.273H18.2898L20.1477 200.381H20.233L22.0568 193.273H23.1307L20.7443 202H19.6534L17.7273 195.045H17.6591L15.733 202H14.642ZM25.6278 202.153C25.2131 202.153 24.8366 202.075 24.4986 201.919C24.1605 201.76 23.892 201.531 23.6932 201.233C23.4943 200.932 23.3949 200.568 23.3949 200.142C23.3949 199.767 23.4688 199.463 23.6165 199.23C23.7642 198.994 23.9616 198.81 24.2088 198.676C24.456 198.543 24.7287 198.443 25.027 198.378C25.3281 198.31 25.6307 198.256 25.9347 198.216C26.3324 198.165 26.6548 198.126 26.902 198.101C27.152 198.072 27.3338 198.026 27.4474 197.96C27.5639 197.895 27.6222 197.781 27.6222 197.619V197.585C27.6222 197.165 27.5071 196.838 27.277 196.605C27.0497 196.372 26.7045 196.256 26.2415 196.256C25.7614 196.256 25.3849 196.361 25.1122 196.571C24.8395 196.781 24.6477 197.006 24.5369 197.244L23.5824 196.903C23.7528 196.506 23.9801 196.196 24.2642 195.974C24.5511 195.75 24.8636 195.594 25.2017 195.506C25.5426 195.415 25.8778 195.369 26.2074 195.369C26.4176 195.369 26.6591 195.395 26.9318 195.446C27.2074 195.494 27.473 195.595 27.7287 195.749C27.9872 195.902 28.2017 196.134 28.3722 196.443C28.5426 196.753 28.6278 197.168 28.6278 197.688V202H27.6222V201.114H27.571C27.5028 201.256 27.3892 201.408 27.2301 201.57C27.071 201.732 26.8594 201.869 26.5952 201.983C26.331 202.097 26.0085 202.153 25.6278 202.153ZM25.7812 201.25C26.179 201.25 26.5142 201.172 26.7869 201.016C27.0625 200.859 27.2699 200.658 27.4091 200.411C27.5511 200.163 27.6222 199.903 27.6222 199.631V198.71C27.5795 198.761 27.4858 198.808 27.3409 198.851C27.1989 198.891 27.0341 198.926 26.8466 198.957C26.6619 198.986 26.4815 199.011 26.3054 199.034C26.1321 199.054 25.9915 199.071 25.8835 199.085C25.6222 199.119 25.3778 199.175 25.1506 199.251C24.9261 199.325 24.7443 199.437 24.6051 199.588C24.4688 199.736 24.4006 199.937 24.4006 200.193C24.4006 200.543 24.5298 200.807 24.7884 200.986C25.0497 201.162 25.3807 201.25 25.7812 201.25ZM33.1055 204.591C32.6197 204.591 32.2021 204.528 31.8526 204.403C31.5032 204.281 31.212 204.119 30.979 203.918C30.7489 203.719 30.5657 203.506 30.4293 203.278L31.2305 202.716C31.3214 202.835 31.4364 202.972 31.5756 203.125C31.7148 203.281 31.9052 203.416 32.1467 203.53C32.391 203.646 32.7106 203.705 33.1055 203.705C33.6339 203.705 34.07 203.577 34.4137 203.321C34.7575 203.065 34.9293 202.665 34.9293 202.119V200.79H34.8441C34.7702 200.909 34.6651 201.057 34.5288 201.233C34.3952 201.406 34.2021 201.561 33.9492 201.697C33.6992 201.831 33.3612 201.898 32.935 201.898C32.4066 201.898 31.9322 201.773 31.5117 201.523C31.0941 201.273 30.7631 200.909 30.5188 200.432C30.2773 199.955 30.1566 199.375 30.1566 198.693C30.1566 198.023 30.2745 197.439 30.5103 196.942C30.7461 196.442 31.0742 196.055 31.4947 195.783C31.9151 195.507 32.4009 195.369 32.9521 195.369C33.3782 195.369 33.7163 195.44 33.9663 195.582C34.2191 195.722 34.4123 195.881 34.5458 196.06C34.6822 196.236 34.7873 196.381 34.8612 196.494H34.9634V195.455H35.935V202.188C35.935 202.75 35.8072 203.207 35.5515 203.56C35.2987 203.915 34.9577 204.175 34.5288 204.339C34.1026 204.507 33.6282 204.591 33.1055 204.591ZM33.0714 200.994C33.4748 200.994 33.8157 200.902 34.0941 200.717C34.3725 200.533 34.5842 200.267 34.729 199.92C34.8739 199.574 34.9464 199.159 34.9464 198.676C34.9464 198.205 34.8754 197.788 34.7333 197.428C34.5913 197.067 34.381 196.784 34.1026 196.58C33.8242 196.375 33.4805 196.273 33.0714 196.273C32.6452 196.273 32.2901 196.381 32.006 196.597C31.7248 196.812 31.5131 197.102 31.3711 197.466C31.2319 197.83 31.1623 198.233 31.1623 198.676C31.1623 199.131 31.2333 199.533 31.3754 199.882C31.5202 200.229 31.7333 200.501 32.0146 200.7C32.2987 200.896 32.6509 200.994 33.0714 200.994ZM40.5202 202.136C39.8896 202.136 39.3455 201.997 38.8881 201.719C38.4336 201.438 38.0827 201.045 37.8356 200.543C37.5913 200.037 37.4691 199.449 37.4691 198.778C37.4691 198.108 37.5913 197.517 37.8356 197.006C38.0827 196.491 38.4265 196.091 38.8668 195.804C39.31 195.514 39.8271 195.369 40.418 195.369C40.7589 195.369 41.0955 195.426 41.4279 195.54C41.7603 195.653 42.0629 195.838 42.3356 196.094C42.6083 196.347 42.8256 196.682 42.9876 197.099C43.1495 197.517 43.2305 198.031 43.2305 198.642V199.068H38.185V198.199H42.2077C42.2077 197.83 42.1339 197.5 41.9862 197.21C41.8413 196.92 41.6339 196.692 41.364 196.524C41.0969 196.357 40.7816 196.273 40.418 196.273C40.0174 196.273 39.6708 196.372 39.3782 196.571C39.0884 196.767 38.8654 197.023 38.7092 197.338C38.5529 197.653 38.4748 197.991 38.4748 198.352V198.932C38.4748 199.426 38.56 199.845 38.7305 200.189C38.9038 200.53 39.1438 200.79 39.4506 200.969C39.7575 201.145 40.114 201.233 40.5202 201.233C40.7844 201.233 41.0231 201.196 41.2362 201.122C41.4521 201.045 41.6381 200.932 41.7944 200.781C41.9506 200.628 42.0714 200.437 42.1566 200.21L43.1282 200.483C43.0259 200.812 42.854 201.102 42.6126 201.352C42.3711 201.599 42.0728 201.793 41.7177 201.932C41.3626 202.068 40.9634 202.136 40.5202 202.136ZM44.7603 202V195.455H45.7319V196.443H45.8001C45.9194 196.119 46.1353 195.857 46.4478 195.655C46.7603 195.453 47.1126 195.352 47.5046 195.352C47.5785 195.352 47.6708 195.354 47.7816 195.357C47.8924 195.359 47.9762 195.364 48.033 195.369V196.392C47.9989 196.384 47.9208 196.371 47.7987 196.354C47.6793 196.334 47.5529 196.324 47.4194 196.324C47.1012 196.324 46.8171 196.391 46.5671 196.524C46.32 196.655 46.1239 196.837 45.979 197.07C45.837 197.3 45.766 197.562 45.766 197.858V202H44.7603ZM49.2251 202V195.455H50.2308V202H49.2251ZM49.7365 194.364C49.5405 194.364 49.3714 194.297 49.2294 194.163C49.0902 194.03 49.0206 193.869 49.0206 193.682C49.0206 193.494 49.0902 193.334 49.2294 193.2C49.3714 193.067 49.5405 193 49.7365 193C49.9325 193 50.1001 193.067 50.2393 193.2C50.3814 193.334 50.4524 193.494 50.4524 193.682C50.4524 193.869 50.3814 194.03 50.2393 194.163C50.1001 194.297 49.9325 194.364 49.7365 194.364ZM53.0785 198.062V202H52.0728V195.455H53.0444V196.477H53.1296C53.283 196.145 53.516 195.878 53.8285 195.676C54.141 195.472 54.5444 195.369 55.0387 195.369C55.4819 195.369 55.8697 195.46 56.2021 195.642C56.5344 195.821 56.793 196.094 56.9776 196.46C57.1623 196.824 57.2546 197.284 57.2546 197.841V202H56.2489V197.909C56.2489 197.395 56.1154 196.994 55.8484 196.707C55.5813 196.418 55.2148 196.273 54.7489 196.273C54.4279 196.273 54.141 196.342 53.8881 196.482C53.6381 196.621 53.4407 196.824 53.2958 197.091C53.1509 197.358 53.0785 197.682 53.0785 198.062ZM61.7344 204.591C61.2486 204.591 60.831 204.528 60.4815 204.403C60.1321 204.281 59.8409 204.119 59.608 203.918C59.3778 203.719 59.1946 203.506 59.0582 203.278L59.8594 202.716C59.9503 202.835 60.0653 202.972 60.2045 203.125C60.3438 203.281 60.5341 203.416 60.7756 203.53C61.0199 203.646 61.3395 203.705 61.7344 203.705C62.2628 203.705 62.6989 203.577 63.0426 203.321C63.3864 203.065 63.5582 202.665 63.5582 202.119V200.79H63.473C63.3991 200.909 63.294 201.057 63.1577 201.233C63.0241 201.406 62.831 201.561 62.5781 201.697C62.3281 201.831 61.9901 201.898 61.5639 201.898C61.0355 201.898 60.5611 201.773 60.1406 201.523C59.723 201.273 59.392 200.909 59.1477 200.432C58.9063 199.955 58.7855 199.375 58.7855 198.693C58.7855 198.023 58.9034 197.439 59.1392 196.942C59.375 196.442 59.7031 196.055 60.1236 195.783C60.544 195.507 61.0298 195.369 61.581 195.369C62.0071 195.369 62.3452 195.44 62.5952 195.582C62.848 195.722 63.0412 195.881 63.1747 196.06C63.3111 196.236 63.4162 196.381 63.4901 196.494H63.5923V195.455H64.5639V202.188C64.5639 202.75 64.4361 203.207 64.1804 203.56C63.9276 203.915 63.5866 204.175 63.1577 204.339C62.7315 204.507 62.2571 204.591 61.7344 204.591ZM61.7003 200.994C62.1037 200.994 62.4446 200.902 62.723 200.717C63.0014 200.533 63.2131 200.267 63.358 199.92C63.5028 199.574 63.5753 199.159 63.5753 198.676C63.5753 198.205 63.5043 197.788 63.3622 197.428C63.2202 197.067 63.0099 196.784 62.7315 196.58C62.4531 196.375 62.1094 196.273 61.7003 196.273C61.2741 196.273 60.919 196.381 60.6349 196.597C60.3537 196.812 60.142 197.102 60 197.466C59.8608 197.83 59.7912 198.233 59.7912 198.676C59.7912 199.131 59.8622 199.533 60.0043 199.882C60.1491 200.229 60.3622 200.501 60.6435 200.7C60.9276 200.896 61.2798 200.994 61.7003 200.994Z" fill="white"/>
<path d="M0 180V179H-1V180H0ZM0 181H120V179H0V181ZM1 216V180H-1V216H1Z" fill="#5B5B5B" mask="url(#path-33-inside-11_4163_371)"/>
<mask id="path-36-inside-12_4163_371" fill="white">
<path d="M120 180H240V216H120V180Z"/>
</mask>
<path d="M120 180H240V216H120V180Z" fill="white" fill-opacity="0.01"/>
<path d="M135.631 202.119C135.131 202.119 134.68 202.02 134.28 201.821C133.879 201.622 133.558 201.349 133.317 201.003C133.075 200.656 132.943 200.261 132.92 199.818H133.943C133.983 200.213 134.162 200.54 134.48 200.798C134.801 201.054 135.185 201.182 135.631 201.182C135.989 201.182 136.307 201.098 136.585 200.93C136.866 200.763 137.087 200.533 137.246 200.24C137.408 199.945 137.489 199.611 137.489 199.239C137.489 198.858 137.405 198.518 137.237 198.22C137.072 197.919 136.845 197.682 136.555 197.509C136.266 197.335 135.935 197.247 135.562 197.244C135.295 197.241 135.021 197.283 134.74 197.368C134.459 197.45 134.227 197.557 134.045 197.688L133.057 197.568L133.585 193.273H138.119V194.21H134.472L134.165 196.784H134.216C134.395 196.642 134.619 196.524 134.889 196.43C135.159 196.337 135.44 196.29 135.733 196.29C136.267 196.29 136.743 196.418 137.161 196.673C137.581 196.926 137.911 197.273 138.149 197.713C138.391 198.153 138.511 198.656 138.511 199.222C138.511 199.778 138.386 200.276 138.136 200.713C137.889 201.148 137.548 201.491 137.114 201.744C136.679 201.994 136.185 202.119 135.631 202.119ZM144.653 200.364V199.903C144.653 199.585 144.718 199.294 144.849 199.03C144.983 198.763 145.176 198.55 145.429 198.391C145.684 198.229 145.994 198.148 146.358 198.148C146.727 198.148 147.037 198.229 147.287 198.391C147.537 198.55 147.725 198.763 147.853 199.03C147.981 199.294 148.045 199.585 148.045 199.903V200.364C148.045 200.682 147.98 200.974 147.849 201.241C147.721 201.506 147.531 201.719 147.278 201.881C147.028 202.04 146.721 202.119 146.358 202.119C145.988 202.119 145.677 202.04 145.424 201.881C145.172 201.719 144.98 201.506 144.849 201.241C144.718 200.974 144.653 200.682 144.653 200.364ZM145.522 199.903V200.364C145.522 200.628 145.585 200.865 145.71 201.075C145.835 201.283 146.051 201.386 146.358 201.386C146.656 201.386 146.866 201.283 146.988 201.075C147.113 200.865 147.176 200.628 147.176 200.364V199.903C147.176 199.639 147.116 199.403 146.997 199.196C146.877 198.986 146.664 198.881 146.358 198.881C146.059 198.881 145.845 198.986 145.714 199.196C145.586 199.403 145.522 199.639 145.522 199.903ZM140.306 195.369V194.909C140.306 194.591 140.372 194.3 140.502 194.036C140.636 193.768 140.829 193.555 141.082 193.396C141.338 193.234 141.647 193.153 142.011 193.153C142.38 193.153 142.69 193.234 142.94 193.396C143.19 193.555 143.379 193.768 143.507 194.036C143.635 194.3 143.699 194.591 143.699 194.909V195.369C143.699 195.687 143.633 195.98 143.502 196.247C143.375 196.511 143.184 196.724 142.931 196.886C142.681 197.045 142.375 197.125 142.011 197.125C141.642 197.125 141.331 197.045 141.078 196.886C140.825 196.724 140.633 196.511 140.502 196.247C140.372 195.98 140.306 195.687 140.306 195.369ZM141.176 194.909V195.369C141.176 195.634 141.238 195.871 141.363 196.081C141.488 196.288 141.704 196.392 142.011 196.392C142.309 196.392 142.52 196.288 142.642 196.081C142.767 195.871 142.829 195.634 142.829 195.369V194.909C142.829 194.645 142.77 194.409 142.65 194.202C142.531 193.991 142.318 193.886 142.011 193.886C141.713 193.886 141.498 193.991 141.368 194.202C141.24 194.409 141.176 194.645 141.176 194.909ZM140.63 202L146.63 193.273H147.602L141.602 202H140.63Z" fill="white"/>
<path d="M120 180V179H119V180H120ZM120 181H240V179H120V181ZM121 216V180H119V216H121Z" fill="#5B5B5B" mask="url(#path-36-inside-12_4163_371)"/>
</g>
</g>
<rect x="0.5" y="0.5" width="239" height="215" rx="3.5" stroke="#5B5B5B"/>
<defs>
<clipPath id="clip0_4163_371">
<rect width="240" height="216" rx="4" fill="white"/>
</clipPath>
<clipPath id="clip1_4163_371">
<rect width="240" height="36" fill="white"/>
</clipPath>
<clipPath id="clip2_4163_371">
<rect width="240" height="36" fill="white" transform="translate(0 36)"/>
</clipPath>
<clipPath id="clip3_4163_371">
<rect width="240" height="36" fill="white" transform="translate(0 72)"/>
</clipPath>
<clipPath id="clip4_4163_371">
<rect width="240" height="36" fill="white" transform="translate(0 108)"/>
</clipPath>
<clipPath id="clip5_4163_371">
<rect width="240" height="36" fill="white" transform="translate(0 144)"/>
</clipPath>
<clipPath id="clip6_4163_371">
<rect width="240" height="36" fill="white" transform="translate(0 180)"/>
</clipPath>
</defs>
</svg>
